<svg width="110" height="109" viewBox="0 0 110 109" fill="none" xmlns="http://www.w3.org/2000/svg">
<path d="M109.03 54.5C109.03 68.3846 103.838 81.0528 95.2638 90.6948C94.7595 91.2585 94.2551 91.8519 93.721 92.3859C93.632 92.4453 93.6023 92.4749 93.6023 92.4749C83.7229 102.651 69.868 109 54.5297 109C50.1982 109 45.9854 108.496 41.9505 107.546C41.0605 107.339 40.2001 107.101 39.31 106.864C16.5844 100.278 0 79.3321 0 54.5C0 51.8596 0.207683 49.2784 0.563698 46.7566C2.8778 30.5579 12.3122 16.6437 25.6035 8.30699C32.9611 3.67879 41.5054 0.77133 50.7025 0.148304C51.9782 0.0592997 53.254 0 54.5297 0C60.671 0 66.6045 1.00865 72.1228 2.9074C84.346 7.06091 94.6111 15.4273 101.197 26.2858C103.719 30.4689 105.707 35.0081 107.042 39.8143C108.169 43.7898 108.822 47.9137 109 52.1859C109 52.9573 109.03 53.7286 109.03 54.5Z" fill="url(#paint0_linear)"/>
<path d="M41.9503 107.576C42.0393 107.25 42.1283 106.894 42.1579 106.449C42.692 102.384 46.9345 99.2986 48.2992 98.4382C49.6936 97.6075 46.5191 95.9757 47.8245 95.9757C49.1596 95.9757 49.9013 95.6791 51.2363 92.0596C52.5417 88.4401 54.6185 88.2325 58.238 87.9951C61.8575 87.7578 61.0267 79.9848 63.0145 78.9761C65.0023 77.9674 64.4683 74.5852 60.4038 72.2118C56.3393 69.8087 54.2625 72.9831 54.4108 70.9657C54.5592 68.9779 52.9571 66.8122 50.4056 66.6639C47.8542 66.5155 47.1125 66.9902 43.404 62.896C39.7252 58.8315 37.6485 63.5784 34.7113 65.3585C31.8039 67.1386 35.4234 59.3656 32.4862 59.5139C29.5788 59.6622 29.3415 56.0724 29.3415 56.0724C29.3415 56.0724 24.6539 57.3778 24.0309 54.144C23.4078 50.9102 27.3537 46.1337 29.2525 48.2994C31.1809 50.4355 34.9487 53.9957 34.5036 52.3639C34.029 50.7618 37.4111 43.0778 40.6449 41.179C43.8787 39.2506 45.3027 36.1058 44.472 34.0588C43.671 32.0117 48.4772 33.139 51.711 32.4864C54.9448 31.8337 46.3412 23.0223 45.2731 21.9543C44.2347 20.8862 42.781 26.6121 41.8316 24.0904C40.9119 21.5983 38.6275 20.4412 35.3937 18.4831C32.1598 16.525 35.8684 27.9175 34.0289 29.935C32.1895 31.9227 28.125 26.8791 25.2176 22.963C22.2804 19.0468 28.837 15.279 31.2995 13.1726C33.7619 11.0958 32.8719 6.91259 30.9139 8.663C28.9854 10.4134 27.1756 10.8584 25.5736 8.3663C12.2823 16.703 2.81825 30.6173 0.533813 46.816C5.19168 53.3133 11.5406 59.2172 12.6087 59.0095C14.2998 58.7128 14.5965 50.3168 15.2195 51.8595C15.8425 53.4023 17.3556 59.2469 25.1583 60.4039C32.9313 61.561 29.8458 62.6883 30.7655 65.8628C31.6852 69.0076 31.2995 67.1682 34.4739 66.5452C37.6188 65.9222 37.233 67.2276 37.233 67.2276C37.233 67.2276 33.2279 72.1525 33.0796 73.1612C32.9312 74.1699 35.008 77.8486 35.6013 79.3914C36.2244 80.9341 41.2086 84.2867 41.2086 84.2867C41.2086 84.2867 39.8439 87.9951 38.7758 90.3982C37.6781 92.8013 38.6869 99.18 38.9835 104.58C39.0429 105.499 39.1615 106.3 39.3098 106.923L41.9503 107.576Z" fill="url(#paint1_linear)"/>
<path d="M107.012 39.8143C106.597 40.556 106.033 41.1791 105.262 41.6537C101.435 43.9382 98.7347 40.2297 95.6196 37.9156C92.5045 35.6015 98.1414 43.2262 97.014 44.3239C95.857 45.4216 95.7976 42.9888 94.9372 41.3867C94.0768 39.755 92.2078 38.7166 89.775 38.9539C87.3423 39.1616 87.6982 42.6922 85.2061 44.0272C82.714 45.3623 80.4 43.9085 80.8746 42.5141C81.3197 41.1197 80.578 41.0605 80.6966 39.132C80.845 37.2036 81.023 38.3903 84.0194 38.7463C87.0159 39.1024 83.4557 35.2751 85.5324 35.1565C87.6092 35.0378 90.7244 28.6889 95.8866 28.9263C99.1501 29.0746 100.544 27.4428 101.138 26.2561C103.689 30.4689 105.677 35.0081 107.012 39.8143Z" fill="url(#paint2_linear)"/>
<path d="M95.2635 90.7245C97.5776 86.126 96.8358 74.0215 94.2844 73.9029C91.3473 73.7842 91.8517 72.1227 91.3473 68.8296C90.8133 65.5364 89.5672 66.4561 85.562 67.6132C81.5865 68.7702 79.3317 67.0495 76.6616 63.7564C74.0212 60.4632 74.2288 54.5593 78.679 52.4529C83.1292 50.3168 80.8745 45.9853 82.0315 45.9853C83.1886 45.9853 86.7784 45.5996 90.8726 44.4425C94.9668 43.2855 93.1273 44.5612 94.7294 47.4983C96.3315 50.4354 97.1622 49.1895 99.595 48.9521C102.057 48.7148 102.68 48.3587 104.876 49.3971C107.071 50.4355 107.131 48.8334 107.131 48.8334L108.911 52.2452C108.94 53.0166 108.97 53.7879 108.97 54.5296C109.029 68.4142 103.808 81.0825 95.2635 90.7245Z" fill="url(#paint3_linear)"/>
<path d="M72.093 2.9074C71.9149 3.47109 71.6479 4.06447 71.2623 4.6875C68.2065 9.76071 64.498 11.1551 59.8698 15.6943C55.2416 20.2335 58.772 27.3835 55.7756 25.2474C52.7791 23.0816 50.8507 7.4466 50.7914 1.9877C50.7914 1.30534 50.7617 0.682327 50.7024 0.148304C51.9781 0.0592997 53.2539 0 54.5296 0C60.6708 0 66.5747 1.00865 72.093 2.9074Z" fill="url(#paint4_linear)"/>
<defs>
<linearGradient id="paint0_linear" x1="19.561" y1="19.5716" x2="92.3423" y2="92.353" gradientUnits="userSpaceOnUse">
<stop stop-color="#5CDDE2"/>
<stop offset="0.092" stop-color="#50CDDE"/>
<stop offset="0.378" stop-color="#30A2D1"/>
<stop offset="0.6348" stop-color="#1882C8"/>
<stop offset="0.8509" stop-color="#0A6FC3"/>
<stop offset="1" stop-color="#0568C1"/>
</linearGradient>
<linearGradient id="paint1_linear" x1="3.04936" y1="7.45522" x2="51.7792" y2="77.1998" gradientUnits="userSpaceOnUse">
<stop stop-color="#EDD106"/>
<stop offset="0.0451" stop-color="#E7D107"/>
<stop offset="0.4841" stop-color="#B4CF13"/>
<stop offset="0.8159" stop-color="#95CE1A"/>
<stop offset="1" stop-color="#89CE1D"/>
</linearGradient>
<linearGradient id="paint2_linear" x1="29.4815" y1="-26.6685" x2="97.818" y2="41.6677" gradientUnits="userSpaceOnUse">
<stop stop-color="#EDD106"/>
<stop offset="0.0451" stop-color="#E7D107"/>
<stop offset="0.4841" stop-color="#B4CF13"/>
<stop offset="0.8159" stop-color="#95CE1A"/>
<stop offset="1" stop-color="#89CE1D"/>
</linearGradient>
<linearGradient id="paint3_linear" x1="17.1435" y1="-14.3306" x2="85.4798" y2="54.0058" gradientUnits="userSpaceOnUse">
<stop stop-color="#EDD106"/>
<stop offset="0.0451" stop-color="#E7D107"/>
<stop offset="0.4841" stop-color="#B4CF13"/>
<stop offset="0.8159" stop-color="#95CE1A"/>
<stop offset="1" stop-color="#89CE1D"/>
</linearGradient>
<linearGradient id="paint4_linear" x1="26.3287" y1="-23.5154" x2="94.6648" y2="44.8208" gradientUnits="userSpaceOnUse">
<stop stop-color="#EDD106"/>
<stop offset="0.0451" stop-color="#E7D107"/>
<stop offset="0.4841" stop-color="#B4CF13"/>
<stop offset="0.8159" stop-color="#95CE1A"/>
<stop offset="1" stop-color="#89CE1D"/>
</linearGradient>
</defs>
</svg>
