<svg width="111" height="111" viewBox="0 0 111 111" fill="none" xmlns="http://www.w3.org/2000/svg">
<path d="M111 55.8602V55.8738C111 57.9804 110.891 60.0327 110.633 62.0714C110.524 63.2131 110.361 64.3547 110.157 65.4692C109.641 68.3778 108.907 71.2047 107.956 73.9502C106.841 77.1577 105.455 80.2294 103.783 83.1379C103.09 84.3747 102.329 85.5707 101.527 86.7396C99.4882 89.7568 97.164 92.5702 94.5817 95.0982C92.3119 97.3544 89.8655 99.3795 87.2288 101.214H87.2152L86.9706 101.364C85.462 102.424 83.9261 103.362 82.3088 104.245H82.2544C74.3987 108.554 65.4556 111 55.8873 111C48.317 111 41.1 109.464 34.5354 106.719C30.1998 104.884 26.1495 102.519 22.4391 99.6921L22.4256 99.6785C19.3675 97.3544 16.5677 94.6905 14.0669 91.7684C12.0826 89.4579 10.275 86.9842 8.71195 84.3611C7.57029 82.4855 6.53735 80.5284 5.65391 78.5169C3.41135 73.556 1.87551 68.2283 1.20953 62.6286C0.937709 60.4133 0.788208 58.1707 0.788208 55.8874V55.6019C0.815391 51.2527 1.33185 47.0394 2.31043 42.9892C2.8133 40.9097 3.42493 38.8847 4.15886 36.9003C5.21898 34.0054 6.51016 31.2192 8.03239 28.596C9.92158 25.2526 12.1505 22.1402 14.6921 19.286C16.7988 16.9347 19.0821 14.7601 21.5421 12.8166C24.8312 10.1935 28.4193 7.95087 32.2385 6.12964C39.4011 2.69104 47.4199 0.788269 55.8873 0.788269C65.0342 0.788269 73.6512 3.01722 81.2351 6.97229C83.5864 8.18191 85.8561 9.56825 88.0035 11.1177C91.9586 13.9446 95.5195 17.3017 98.5911 21.0529C101.119 24.1517 103.321 27.5359 105.142 31.1376C107.643 36.0984 109.41 41.4806 110.307 47.1481V47.1617C110.633 49.1325 110.837 51.144 110.932 53.1691C110.973 54.0525 111 54.9631 111 55.8602Z" fill="url(#paint0_linear)"/>
<path opacity="0.56" d="M98.591 21.0393L14.692 19.2724C16.7987 16.9212 19.082 14.7465 21.542 12.803L88.0034 11.1041C91.9449 13.9311 95.5058 17.2881 98.591 21.0393Z" fill="#FFD8AE"/>
<path opacity="0.33" d="M110.307 47.1345L4.15881 36.8867C5.21893 33.9918 6.51011 31.2055 8.03234 28.5824L105.156 31.124C107.643 36.0848 109.41 41.4806 110.307 47.1345Z" fill="#AD4912"/>
<path opacity="0.56" d="M111 55.8601L0.788208 55.5883C0.815391 51.2391 1.33185 47.0258 2.31043 42.9756L110.932 53.1691C110.973 54.0525 111 54.9631 111 55.8601Z" fill="#FFD8AE"/>
<path opacity="0.6" d="M110.633 62.0714L1.19592 62.615C1.8619 68.2282 3.3977 73.556 5.64026 78.5033L110.157 65.4692L110.633 62.0714Z" fill="#AD4912"/>
<path opacity="0.33" d="M101.541 86.7396C99.5019 89.7568 97.1777 92.5702 94.5954 95.0982L14.067 91.7547C12.0827 89.4442 10.275 86.9706 8.71204 84.3475L101.541 86.7396Z" fill="#AD4912"/>
<path opacity="0.56" d="M87.2424 101.214C87.2424 101.214 87.2424 101.214 87.2288 101.214C71.4357 100.807 38.504 99.9775 22.4391 99.6785C26.1359 102.505 30.1862 104.87 34.5354 106.705L82.2544 104.245H82.3087L87.2424 101.214Z" fill="#FFD8AE"/>
<path opacity="0.56" d="M107.969 73.9501C106.855 77.1577 105.468 80.2293 103.797 83.1379L13.5641 80.5148L107.969 73.9501Z" fill="#FFD8AE"/>
<path opacity="0.43" d="M81.235 6.95873L32.2384 6.12964C39.401 2.69104 47.4199 0.78827 55.8872 0.78827C65.0342 0.774679 73.6511 3.00366 81.235 6.95873Z" fill="#AD4912"/>
<defs>
<linearGradient id="paint0_linear" x1="93.672" y1="93.6711" x2="28.5646" y2="28.5637" gradientUnits="userSpaceOnUse">
<stop stop-color="#C15F1E"/>
<stop offset="0.1776" stop-color="#D17229"/>
<stop offset="0.5162" stop-color="#EA923A"/>
<stop offset="0.8024" stop-color="#F9A544"/>
<stop offset="1" stop-color="#FFAC48"/>
</linearGradient>
</defs>
</svg>
