<svg width="75" height="75" viewBox="0 0 75 75" fill="none" xmlns="http://www.w3.org/2000/svg">
<path d="M37.9509 75C58.4126 75 75 58.4126 75 37.9509C75 17.4893 58.4126 0.901855 37.9509 0.901855C17.4893 0.901855 0.901855 17.4893 0.901855 37.9509C0.901855 58.4126 17.4893 75 37.9509 75Z" fill="url(#paint0_linear)"/>
<path opacity="0.42" d="M44.9401 49.4355C35.4234 49.4355 27.7048 57.1541 27.7048 66.6708C27.7048 69.2832 28.2986 71.7599 29.3503 73.9822C32.1154 74.6438 34.9823 75 37.951 75C47.1963 75 55.6443 71.6073 62.1415 66.0092C61.7852 56.7978 54.2363 49.4355 44.9401 49.4355Z" fill="#8E0202"/>
<path opacity="0.42" d="M62.1413 66.0092C61.0048 66.9761 59.8173 67.8922 58.562 68.7234C56.8656 60.1736 49.2658 50.9962 40.9026 50.9962C39.4437 50.9962 38.0527 51.1997 36.7125 51.522C39.1723 50.1989 41.9544 49.4355 44.94 49.4355C54.2362 49.4355 61.7851 56.7978 62.1413 66.0092Z" fill="#8E0202"/>
<path opacity="0.21" d="M66.1279 38.2563C62.3111 38.2563 59.2236 41.3437 59.2236 45.1606C59.2236 48.9775 62.3111 52.0649 66.1279 52.0649C69.9448 52.0649 73.0322 48.9775 73.0322 45.1606C73.0322 41.3437 69.9448 38.2563 66.1279 38.2563Z" fill="#8E0202"/>
<path opacity="0.42" d="M62.413 18.8497C64.6692 18.8497 66.7388 18.1033 68.4352 16.8649C64.6353 11.3856 59.4104 6.99193 53.3034 4.20985C52.6418 5.56696 52.2516 7.07676 52.2516 8.67136C52.2347 14.3034 56.7979 18.8497 62.413 18.8497Z" fill="#8E0202"/>
<path opacity="0.42" d="M49.6729 24.6004C44.482 24.6004 40.2749 28.8074 40.2749 33.9984C40.2749 39.1893 44.482 43.3964 49.6729 43.3964C54.8638 43.3964 59.0708 39.1893 59.0708 33.9984C59.0708 28.7905 54.8638 24.6004 49.6729 24.6004Z" fill="#8E0202"/>
<path opacity="0.42" d="M53.0826 25.245C55.0334 26.9584 56.2718 29.469 56.2718 32.285C56.2718 37.476 52.0648 41.683 46.8738 41.683C45.6694 41.683 44.5159 41.4455 43.4641 41.0384C45.1266 42.4973 47.281 43.3964 49.6729 43.3964C54.8638 43.3964 59.0708 39.1893 59.0708 33.9984C59.0708 30.0119 56.5941 26.6021 53.0826 25.245Z" fill="#8E0202"/>
<path opacity="0.42" d="M36.7126 12.4882C34.5242 12.4882 32.76 14.2524 32.76 16.4408C32.76 18.6291 34.5242 20.3933 36.7126 20.3933C38.9009 20.3933 40.6651 18.6291 40.6651 16.4408C40.6651 14.2524 38.9009 12.4882 36.7126 12.4882Z" fill="#8E0202"/>
<path opacity="0.42" d="M20.2576 17.3738C20.2576 13.6587 18.3237 10.4016 15.406 8.55258C9.82484 12.8444 5.49907 18.68 3.07324 25.4316C4.88838 26.9414 7.22936 27.8575 9.77394 27.8575C15.5586 27.8575 20.2576 23.1585 20.2576 17.3738Z" fill="#8E0202"/>
<path opacity="0.42" d="M15.4059 8.55258C15.2872 8.6374 15.1854 8.73919 15.0666 8.82401C17.0005 10.724 18.2219 13.3534 18.2219 16.2881C18.2219 22.0728 13.5229 26.7718 7.73825 26.7718C6.34722 26.7718 5.00704 26.4834 3.78564 25.9914C5.48203 27.1619 7.53469 27.8575 9.75696 27.8575C15.5416 27.8575 20.2406 23.1585 20.2406 17.3738C20.2576 13.6587 18.3237 10.4016 15.4059 8.55258Z" fill="#8E0202"/>
<path opacity="0.21" d="M30.5037 33.5913C27.6707 33.5913 25.3806 35.8814 25.3806 38.7143C25.3806 41.5473 27.6707 43.8374 30.5037 43.8374C33.3366 43.8374 35.6268 41.5473 35.6268 38.7143C35.6268 35.8983 33.3366 33.5913 30.5037 33.5913Z" fill="#8E0202"/>
<path opacity="0.21" d="M8.29821 50.5212C6.58486 50.5212 4.9733 50.9453 3.53137 51.6747C6.12684 58.1719 10.5035 63.753 16.0507 67.8243C17.6962 65.9922 18.6971 63.5664 18.6971 60.9201C18.6971 55.1693 14.049 50.5212 8.29821 50.5212Z" fill="#8E0202"/>
<path opacity="0.42" d="M14.0489 40.5125C14.0489 36.2715 10.6052 32.8279 6.36422 32.8279C4.29463 32.8279 2.41162 33.6591 1.03754 34.9823C0.952724 35.9662 0.901855 36.9501 0.901855 37.951C0.901855 41.0045 1.27502 43.9731 1.97054 46.8231C3.2089 47.6882 4.71871 48.1971 6.34724 48.1971C10.6052 48.1971 14.0489 44.7535 14.0489 40.5125Z" fill="#8E0202"/>
<path opacity="0.42" d="M6.36423 32.8279C5.56693 32.8279 4.78658 32.9466 4.0741 33.1841C7.94186 33.5913 10.9444 36.8483 10.9444 40.8179C10.9444 44.2446 8.70524 47.1454 5.61781 48.1293C5.87227 48.1462 6.10977 48.1802 6.36423 48.1802C10.6052 48.1802 14.0489 44.7365 14.0489 40.4955C14.0489 36.2546 10.6052 32.8279 6.36423 32.8279Z" fill="#8E0202"/>
<path opacity="0.21" d="M69.0966 28.8583C69.0966 30.9788 70.8099 32.6921 72.9304 32.6921C73.5241 32.6921 74.067 32.5395 74.5759 32.302C74.1857 29.7913 73.558 27.3655 72.6929 25.0414C70.6912 25.1772 69.0966 26.8226 69.0966 28.8583Z" fill="#8E0202"/>
<path opacity="0.21" d="M31.4368 8.29813C34.3546 8.29813 36.7125 5.94015 36.7125 3.02237C36.7125 2.27596 36.5599 1.58045 36.2885 0.935822C32.76 1.0885 29.3672 1.75009 26.161 2.81881C26.161 2.88667 26.144 2.9545 26.144 3.00539C26.161 5.92317 28.519 8.29813 31.4368 8.29813Z" fill="#8E0202"/>
<defs>
<linearGradient id="paint0_linear" x1="57.5155" y1="57.5042" x2="18.8359" y2="18.8245" gradientUnits="userSpaceOnUse">
<stop stop-color="#B70404"/>
<stop offset="1" stop-color="#FF4A4A"/>
</linearGradient>
</defs>
</svg>
