<svg width="57" height="57" viewBox="0 0 57 57" fill="none" xmlns="http://www.w3.org/2000/svg">
<path d="M28.53 57C44.2535 57 57 44.2535 57 28.53C57 12.8064 44.2535 0.0599976 28.53 0.0599976C12.8064 0.0599976 0.0599976 12.8064 0.0599976 28.53C0.0599976 44.2535 12.8064 57 28.53 57Z" fill="url(#paint0_linear)"/>
<g opacity="0.53">
<path opacity="0.53" d="M34.892 0.764374C28.0074 7.05822 18.3508 4.35438 15.3515 3.26375C14.3745 3.78634 13.4202 4.33166 12.5114 4.96786C14.17 5.39957 15.965 5.99031 17.9418 6.831C25.7126 10.1029 34.9829 6.55834 43.1172 4.05898C40.5951 2.55936 37.8231 1.44602 34.892 0.764374Z" fill="white"/>
<path opacity="0.53" d="M7.35359 18.6916C13.9201 15.7606 19.9867 20.5548 25.0991 24.8719C30.1887 29.189 31.1657 26.8259 42.8445 22.2362C49.3429 19.6687 53.5463 21.0547 56.4774 23.0542C56.2502 21.9408 55.9775 20.8275 55.6367 19.7595C52.2739 18.4417 48.9794 16.6694 46.3664 14.2837C37.5505 6.24026 38.9137 13.2158 25.3035 15.4652C12.1933 17.6237 11.5116 15.6242 4.58157 13.1249C3.37733 15.0108 2.37762 17.033 1.62781 19.1688C3.24103 19.646 5.17233 19.6687 7.35359 18.6916Z" fill="white"/>
<path opacity="0.53" d="M25.099 52.7057C33.4378 56.7956 38.7092 48.2977 44.7986 50.07C45.3893 50.2518 46.0483 50.3654 46.7072 50.4562C47.7069 49.6156 48.6612 48.7067 49.5474 47.7524C47.9341 47.2752 46.4345 46.3437 45.2985 44.7759C40.2997 37.914 38.7319 41.0496 32.8471 44.7759C26.9622 48.5022 25.3944 47.707 14.4199 40.277C8.39873 36.1872 4.96784 38.4821 3.10468 41.3904C4.58157 44.3215 6.55833 46.9799 8.92137 49.2066C12.6704 48.5704 17.9191 49.1839 25.099 52.7057Z" fill="white"/>
<path opacity="0.53" d="M29.507 10.3755C23.6222 11.239 14.2155 9.28493 8.85324 7.94437C7.89893 8.85323 6.99009 9.85295 6.17212 10.8754C9.6485 11.5571 14.2837 12.3296 19.805 13.0112C32.6426 14.579 38.1185 9.10314 29.507 10.3755Z" fill="white"/>
<path opacity="0.53" d="M45.9119 24.531C47.4343 27.5076 53.7281 28.9617 57 28.53C57 27.5075 56.9318 26.4851 56.841 25.4853C53.1828 24.0539 44.026 20.8274 45.9119 24.531Z" fill="white"/>
<path opacity="0.53" d="M45.3439 8.67143C45.7302 11.9888 51.047 15.3061 54.637 17.1466C52.7511 12.8295 49.8428 9.08042 46.2073 6.19479C45.5711 6.83099 45.2303 7.67168 45.3439 8.67143Z" fill="white"/>
<path opacity="0.53" d="M18.9188 36.6416C22.8496 43.5944 32.9379 40.8451 39.0046 34.483C45.0712 28.121 44.5032 44.4805 48.6158 38.5048C50.7743 35.3919 54.069 33.5515 56.7274 32.5063C56.841 31.7338 56.9091 30.9612 56.9545 30.1887C54.6142 31.5747 51.1606 32.6881 48.3204 29.7797C43.5262 24.8719 41.5494 25.6671 35.0965 30.8476C28.6209 36.0508 25.0081 31.3475 15.9877 23.5086C10.8527 19.0552 4.9224 20.2594 0.764372 22.1453C0.446272 23.5313 0.241781 24.94 0.128174 26.3942C4.05899 25.3263 8.35331 25.0309 11.8751 26.9395C18.1917 30.3705 7.64898 28.5982 0.128174 30.5977C0.287224 32.938 0.741623 35.2101 1.44599 37.3687C5.24047 32.938 15.6015 30.734 18.9188 36.6416Z" fill="white"/>
</g>
<defs>
<linearGradient id="paint0_linear" x1="42.3242" y1="42.3308" x2="16.7385" y2="16.7451" gradientUnits="userSpaceOnUse">
<stop stop-color="#C14327"/>
<stop offset="0.00460082" stop-color="#C14327"/>
<stop offset="0.4146" stop-color="#DC632B"/>
<stop offset="0.7609" stop-color="#EC762E"/>
<stop offset="1" stop-color="#F27D2F"/>
</linearGradient>
</defs>
</svg>
