<svg width="65" height="65" viewBox="0 0 65 65" fill="none" xmlns="http://www.w3.org/2000/svg">
<path d="M65.0001 32.526C65.0001 35.9767 64.4801 39.2855 63.4874 42.4053C61.5021 48.6449 57.6733 54.0337 52.6155 58.0989C52.5682 58.1461 52.5682 58.146 52.5682 58.146C47.6049 62.0694 41.4125 64.5274 34.653 64.9529C33.9439 65.0001 33.2822 65.0002 32.5259 65.0002C26.8063 65.0002 21.5121 63.5348 16.8797 60.9822C9.64747 57.0116 4.11683 50.3939 1.56427 42.4526C0.618883 39.3328 0.0517578 35.9767 0.0517578 32.526C0.0517578 25.6246 2.1788 19.2433 5.86582 13.9963C9.50558 8.70215 14.7525 4.5424 20.803 2.22619C24.4428 0.808103 28.3662 0.0517578 32.5259 0.0517578C33.5659 0.0517578 34.6058 0.0990937 35.5984 0.193633C39.3327 0.52452 42.878 1.56438 46.1396 3.07701C52.8991 6.1968 58.3351 11.491 61.5967 18.156C63.7711 22.4575 65.0001 27.3736 65.0001 32.526Z" fill="url(#paint0_linear)"/>
<path d="M20.8503 28.6026C20.8503 36.6857 14.3272 43.2089 6.24406 43.2089C4.63689 43.2089 3.02963 42.9253 1.56427 42.4526C0.618883 39.3328 0.0517578 35.9766 0.0517578 32.526C0.0517578 25.6246 2.1788 19.2432 5.86582 13.9963C6.00763 13.949 6.10225 13.949 6.24406 13.949C14.3272 13.9963 20.8503 20.5667 20.8503 28.6026Z" fill="#F9A121"/>
<path d="M6.24402 13.9963C6.10221 13.9963 6.00759 13.9963 5.86578 14.0435C12.0108 15.7925 16.5487 21.3703 16.5487 28.0353C16.5487 36.0239 10.1674 42.4525 2.22607 42.6415C3.50235 43.0197 4.8732 43.2561 6.24402 43.2561C14.3271 43.2561 20.8503 36.7329 20.8503 28.6498C20.8503 20.5667 14.3271 13.9963 6.24402 13.9963Z" fill="#F9A121"/>
<path d="M63.4877 42.4052C61.5024 48.6448 57.6736 54.0335 52.6158 58.0987C52.5685 58.146 52.5685 58.1459 52.5685 58.1459H52.2849C45.7144 58.1459 40.4202 52.8045 40.4202 46.2813C40.4202 39.6636 45.7617 34.3694 52.2849 34.3694C57.4845 34.3221 61.9278 37.7255 63.4877 42.4052Z" fill="#F9A121"/>
<path d="M52.3792 38.9073C56.6807 38.9073 60.4624 41.2234 62.5422 44.7214C62.8731 43.9651 63.2039 43.2088 63.4875 42.4052C61.9276 37.7255 57.4843 34.3221 52.2374 34.3221C45.6669 34.3221 40.3728 39.6636 40.3728 46.234C40.3728 47.1794 40.5145 48.0776 40.7036 48.9284C41.6017 43.2561 46.4705 38.9073 52.3792 38.9073Z" fill="#F9A121"/>
<path d="M61.5965 18.156C60.3202 18.6287 58.9494 18.8651 57.5313 18.8651C50.9135 18.8651 45.5249 13.4763 45.5249 6.85858C45.5249 5.53503 45.714 4.25873 46.1394 3.077C52.8517 6.19679 58.3349 11.491 61.5965 18.156Z" fill="#FFBD66"/>
<path d="M34.1804 31.2024C36.6344 31.2024 38.6236 29.213 38.6236 26.759C38.6236 24.305 36.6344 22.3157 34.1804 22.3157C31.7264 22.3157 29.7371 24.305 29.7371 26.759C29.7371 29.213 31.7264 31.2024 34.1804 31.2024Z" fill="#FFBD66"/>
<path d="M35.7877 1.9898C35.7877 6.14952 32.4316 9.50564 28.2718 9.50564C24.2067 9.50564 20.8977 6.29132 20.7559 2.2734C24.3956 0.855317 28.319 0.0990448 32.4788 0.0990448C33.5187 0.0990448 34.5586 0.146309 35.5513 0.240848C35.7403 0.760813 35.7877 1.32802 35.7877 1.9898Z" fill="#F9A121"/>
<path d="M35.1734 61.8802C35.1734 62.9674 34.9843 64.0073 34.6062 64.9527C33.8971 65 33.2353 65.0001 32.479 65.0001C26.7594 65.0001 21.4652 63.5347 16.8328 60.9821C17.3055 56.3024 21.2288 52.6628 26.0031 52.6628C31.0609 52.6628 35.1734 56.7751 35.1734 61.8802Z" fill="#FFBD66"/>
<defs>
<linearGradient id="paint0_linear" x1="47.4253" y1="47.458" x2="14.5568" y2="14.5896" gradientUnits="userSpaceOnUse">
<stop stop-color="#FFBD55"/>
<stop offset="0.0686" stop-color="#FEB751"/>
<stop offset="0.4522" stop-color="#F7973F"/>
<stop offset="0.7763" stop-color="#F38433"/>
<stop offset="1" stop-color="#F27D2F"/>
</linearGradient>
</defs>
</svg>
