<svg width="98" height="98" viewBox="0 0 98 98" fill="none" xmlns="http://www.w3.org/2000/svg">
<path d="M48.9928 97.9566C76.0427 97.9566 97.971 76.0282 97.971 48.9783C97.971 21.9283 76.0427 0 48.9928 0C21.9428 0 0.0144043 21.9283 0.0144043 48.9783C0.0144043 76.0282 21.9428 97.9566 48.9928 97.9566Z" fill="url(#paint0_linear)"/>
<g opacity="0.2">
<path opacity="0.2" d="M80.4081 11.4008C69.1584 18.8391 53.4088 23.7755 35.2917 13.8187C30.5232 11.1994 26.124 9.33561 22.0943 8.05952C15.7978 12.2068 10.5256 17.7477 6.71411 24.2457C14.2867 23.6244 24.0923 25.3707 36.4335 32.1541C59.9403 45.0829 79.4847 32.9264 90.3483 22.7345C87.6282 18.4697 84.27 14.6414 80.4081 11.4008Z" fill="#3A52CC"/>
<path opacity="0.2" d="M36.5509 57.1721C51.6121 65.685 65.0446 67.6495 80.7607 50.6238C85.5124 45.4691 91.3555 42.2453 97.1818 40.2472C96.2416 35.0253 94.4786 30.0888 92.0272 25.6057C79.0145 30.5758 68.7386 48.3067 37.8438 38.5177C17.2753 32.003 6.69712 34.1858 1.27374 37.8797C0.283095 42.1109 -0.153429 46.5437 0.0480587 51.1107C0.35029 58.1124 2.11336 64.7112 5.03493 70.6215C10.0889 64.7615 24.3777 50.288 36.5509 57.1721Z" fill="#3A52CC"/>
<path opacity="0.2" d="M26.1743 86.3206C30.607 87.7646 44.9462 98.4435 61.6529 88.94C67.8654 85.3972 74.2795 85.4979 79.854 87.0091C88.1989 80.2257 94.2267 70.7557 96.7117 59.9929C92.1783 58.6497 86.3687 58.5657 82.9266 64.0395C78.0069 71.8975 67.8654 84.3394 38.0621 68.9591C18.4842 58.8512 12.0534 69.5132 9.65234 78.194C11.9191 81.2331 14.5216 83.9867 17.3928 86.4214C19.5924 85.33 22.4468 85.0949 26.1743 86.3206Z" fill="#3A52CC"/>
</g>
<defs>
<linearGradient id="paint0_linear" x1="74.5424" y1="74.5258" x2="18.9658" y2="18.9492" gradientUnits="userSpaceOnUse">
<stop stop-color="#003FAA"/>
<stop offset="1" stop-color="#2A97FF"/>
</linearGradient>
</defs>
</svg>
