<svg width="168" height="100" viewBox="0 0 168 100" fill="none" xmlns="http://www.w3.org/2000/svg">
<path d="M80.7015 99.4196C107.992 99.4196 130.114 77.2967 130.114 50.0067C130.114 22.7168 107.992 0.593887 80.7015 0.593887C53.4116 0.593887 31.2886 22.7168 31.2886 50.0067C31.2886 77.2967 53.4116 99.4196 80.7015 99.4196Z" fill="url(#paint0_linear)"/>
<path d="M128.489 37.3898C129.494 41.1934 130.031 45.0472 130.114 48.8843C118.033 55.4023 103.757 62.2554 88.2918 68.8237C72.91 75.325 58.2989 80.7203 45.5645 84.725C42.8165 81.9435 40.3702 78.8102 38.3092 75.3417C38.393 75.3082 38.4936 75.2747 38.5941 75.2412C50.8594 71.3538 67.2633 65.2212 85.0747 57.6644C101.898 50.5264 117.062 43.4051 128.456 37.3898H128.489Z" fill="url(#paint1_linear)"/>
<path d="M124.669 27.4536C124.133 26.3813 123.529 25.3256 122.909 24.3035L124.669 27.4536Z" fill="url(#paint2_linear)"/>
<path opacity="0.33" d="M102.199 5.53704C97.8761 3.45932 93.2683 2.00156 88.5097 1.23079C81.7571 4.48142 74.6693 7.73205 67.3303 10.8989C57.9806 14.937 48.8487 18.5898 40.1189 21.8404C37.3877 25.7948 35.243 30.1178 33.7517 34.6586C45.5143 30.6037 58.1985 25.6775 71.2848 20.0308C82.2598 15.2889 92.6483 10.3962 102.199 5.53704Z" fill="white"/>
<path opacity="0.33" d="M124.484 27.1185C123.261 24.7727 121.87 22.5609 120.346 20.5C108.717 26.4315 95.6477 32.5641 81.7236 38.5962C63.8452 46.3207 46.8044 52.8554 31.9253 57.8487C32.3274 60.3788 32.9642 62.9089 33.7853 65.4223C48.9493 60.3788 66.4423 53.6932 84.8234 45.751C99.1664 39.5513 112.588 33.2176 124.484 27.1185Z" fill="white"/>
<path opacity="0.33" d="M114.565 85.9984C119.29 81.5414 123.043 76.2465 125.691 70.449C117.749 74.3364 109.304 78.2237 100.49 82.0273C87.7222 87.5399 75.3564 92.3824 63.8787 96.4373C69.8772 98.6155 76.2948 99.6376 82.796 99.3696C89.7497 96.6719 96.9044 93.7564 104.21 90.6063C107.712 89.0815 111.164 87.54 114.565 85.9984Z" fill="white"/>
<path opacity="0.33" d="M130.131 49.521C130.098 46.7395 129.83 43.9581 129.327 41.1766C116.157 48.1135 100.842 55.4358 84.2873 62.5905C69.0228 69.1923 54.3614 74.9228 41.1411 79.5641C42.8334 81.8262 44.6934 83.9374 46.7041 85.8476C59.2709 81.357 73.0442 75.9449 87.3704 69.7452C102.97 63.0094 117.481 56.106 130.131 49.521Z" fill="white"/>
<path opacity="0.33" d="M112.839 12.4739C111.951 11.7199 111.046 10.9994 110.125 10.3292C99.2838 15.9926 87.2364 21.7399 74.4182 27.286C59.3882 33.7873 44.8776 39.2999 31.7075 43.6732C31.5567 44.8126 31.4563 45.952 31.3893 47.1081C44.9782 42.6679 60.0417 36.9709 75.6749 30.2015C89.0795 24.404 101.63 18.3887 112.839 12.4739Z" fill="white"/>
<path opacity="0.6" d="M82.8799 0.627561C79.8806 0.493515 76.831 0.644333 73.7982 1.06323C70.5141 2.55449 67.1796 4.04574 63.7782 5.52025C59.1536 7.51419 54.5793 9.42437 50.0552 11.2172C47.6591 13.1106 45.4641 15.2051 43.4869 17.4671C50.5244 14.7862 57.7629 11.8707 65.1354 8.67035C71.268 6.05645 77.1829 3.35876 82.8799 0.627561Z" fill="#E58645"/>
<path opacity="0.6" d="M129.511 57.6978C129.712 56.4411 129.863 55.1677 129.964 53.8943C119.173 59.5242 107.176 65.2547 94.4247 70.7673C78.3894 77.6875 62.9907 83.5018 49.1337 87.9923C50.1223 88.8133 51.1276 89.6009 52.1665 90.3214C65.5544 85.9146 80.333 80.3014 95.6813 73.6661C107.762 68.4551 119.156 63.0429 129.511 57.6978Z" fill="#E58645"/>
<path opacity="0.6" d="M128.455 37.306C128.104 35.9991 127.701 34.7089 127.232 33.4187C113.911 40.3221 99.2165 47.3092 83.5834 54.0618C67.2297 61.1328 51.3787 67.2822 36.6671 72.3927C37.2871 73.6159 37.9573 74.8055 38.6611 75.9617C53.2721 70.8847 68.9891 64.7688 85.192 57.7816C100.658 51.0793 115.235 44.1592 128.455 37.306Z" fill="#E58645"/>
<path opacity="0.6" d="M116.995 16.4786C116.71 16.1602 116.408 15.8586 116.107 15.5403C104.562 21.6729 91.5425 27.9395 77.6017 33.9716C61.181 41.0593 45.4138 46.9909 31.3054 51.5317C31.3222 51.9674 31.3222 52.3863 31.339 52.8219C45.5479 48.2643 61.4995 42.2825 78.0877 35.1278C92.2128 29.0287 105.349 22.6782 116.995 16.4786Z" fill="#FFB583"/>
<path opacity="0.6" d="M107.176 8.28497C106.774 8.03363 106.355 7.7823 105.936 7.53096C95.2959 13.0771 83.4998 18.6736 70.9832 24.0857C57.545 29.8832 44.5593 34.9099 32.5454 39.0319C32.4448 39.501 32.3443 39.9702 32.2438 40.4561C44.4755 36.2839 57.7462 31.1734 71.4859 25.2418C84.3041 19.6957 96.3348 13.9484 107.176 8.28497Z" fill="#E58645"/>
<path opacity="0.6" d="M127.852 64.7185C128.02 64.1656 128.188 63.6126 128.338 63.0597C117.263 68.8907 104.897 74.8055 91.6934 80.5025C79.9811 85.5627 68.5871 90.0365 57.8969 93.8234C58.4163 94.0914 58.9358 94.3428 59.4552 94.5941C69.8438 90.8743 80.8691 86.5513 92.196 81.6419C105.014 76.1125 117.028 70.3652 127.852 64.7185Z" fill="#FFB583"/>
<path d="M167.899 19.0757C169.373 24.2197 154.645 35.5467 131.337 48.2141C130.935 48.4319 130.516 48.6665 130.098 48.8843C118.017 55.4023 103.741 62.2554 88.275 68.8237C72.8932 75.325 58.2821 80.7203 45.5477 84.7249C45.1791 84.8422 44.8105 84.9595 44.4251 85.0768C19.459 92.8683 1.93238 95.1806 0.441111 89.9863C-0.949621 85.1271 12.0361 74.8055 33.0312 63.0262C33.3328 64.1153 33.6679 65.2212 34.0533 66.3103C22.7766 72.4597 16.091 77.1681 16.6272 79.0112C17.1801 80.9381 25.4408 79.3966 38.2757 75.3585C38.3595 75.3249 38.46 75.2914 38.5606 75.2579C50.8258 71.3706 67.2297 65.2379 85.0412 57.6811C101.864 50.5431 117.028 43.4219 128.422 37.4066L128.472 37.3898C141.961 30.2686 150.154 24.7559 149.568 22.7117C148.965 20.634 139.347 22.6112 124.652 27.4368L122.893 24.2868C148.428 16.2943 166.391 13.8311 167.899 19.0757Z" fill="url(#paint3_linear)"/>
<defs>
<linearGradient id="paint0_linear" x1="137.768" y1="72.6264" x2="6.31162" y2="20.5019" gradientUnits="userSpaceOnUse">
<stop stop-color="#FFDCC0"/>
<stop offset="0.0971" stop-color="#FFD5AF"/>
<stop offset="0.3815" stop-color="#FFC484"/>
<stop offset="0.6369" stop-color="#FFB764"/>
<stop offset="0.8518" stop-color="#FFB051"/>
<stop offset="1" stop-color="#FFAD4A"/>
</linearGradient>
<linearGradient id="paint1_linear" x1="128.595" y1="77.5532" x2="28.0343" y2="37.679" gradientUnits="userSpaceOnUse">
<stop stop-color="#FFDCC0"/>
<stop offset="0.0971" stop-color="#FFD5AF"/>
<stop offset="0.3815" stop-color="#FFC484"/>
<stop offset="0.6369" stop-color="#FFB764"/>
<stop offset="0.8518" stop-color="#FFB051"/>
<stop offset="1" stop-color="#FFAD4A"/>
</linearGradient>
<linearGradient id="paint2_linear" x1="125.397" y1="26.5183" x2="121.687" y2="25.0476" gradientUnits="userSpaceOnUse">
<stop stop-color="#FFDCC0"/>
<stop offset="0.0971" stop-color="#FFD5AF"/>
<stop offset="0.3815" stop-color="#FFC484"/>
<stop offset="0.6369" stop-color="#FFB764"/>
<stop offset="0.8518" stop-color="#FFB051"/>
<stop offset="1" stop-color="#FFAD4A"/>
</linearGradient>
<linearGradient id="paint3_linear" x1="0.343257" y1="54.5432" x2="168.006" y2="54.5432" gradientUnits="userSpaceOnUse">
<stop stop-color="#D8053C"/>
<stop offset="0.2539" stop-color="#E62439"/>
<stop offset="0.561" stop-color="#F44436"/>
<stop offset="0.8208" stop-color="#FC5734"/>
<stop offset="1" stop-color="#FF5E33"/>
</linearGradient>
</defs>
</svg>
