<svg width="140" height="142" viewBox="0 0 140 142" fill="none" xmlns="http://www.w3.org/2000/svg">
<g filter="url(#filter0_d)">
<path d="M124.844 69.9735C124.844 101.237 99.8472 126.587 69.0033 126.587C38.1594 126.587 13.1565 101.237 13.1565 69.9735C13.1565 43.2661 31.4006 20.8723 55.9446 14.9133C60.1271 13.8972 64.4996 13.3597 68.9968 13.3597C72.9367 13.3597 76.7782 13.7727 80.4887 14.5593C105.826 19.9284 124.844 42.7024 124.844 69.9735Z" fill="url(#paint0_linear)"/>
</g>
<path d="M124.844 69.9735C124.844 101.237 99.8472 126.587 69.0033 126.587C38.1594 126.587 13.1565 101.237 13.1565 69.9735C13.1565 43.2661 31.4006 20.8723 55.9446 14.9133C60.1271 13.8972 64.4996 13.3597 68.9968 13.3597C72.9367 13.3597 76.7782 13.7727 80.4887 14.5593C105.826 19.9284 124.844 42.7024 124.844 69.9735Z" fill="url(#paint1_linear)"/>
<path d="M93.8161 42.2958C93.8161 32.8033 91.2594 23.9205 86.8148 16.3095C84.7563 15.6081 82.6454 15.0246 80.4952 14.5658C76.7848 13.7791 72.9432 13.3661 69.0033 13.3661C64.5062 13.3661 60.1336 13.9037 55.9512 14.9198C31.4006 20.8722 13.1565 43.266 13.1565 69.9734C13.1565 74.9818 13.7989 79.846 15.0052 84.4677C23.1013 90.0858 32.8887 93.3767 43.4366 93.3767C71.265 93.3767 93.8161 70.5044 93.8161 42.2958Z" fill="url(#paint2_radial)" style="mix-blend-mode:screen"/>
<g opacity="0.44">
<g opacity="0.83">
<g opacity="0.83">
<path opacity="0.83" d="M121.382 54.273C119.474 54.6663 119.238 58.0686 117.291 58.1801C116.124 58.2456 115.253 56.9804 114.092 56.8559C112.106 56.6461 111.201 59.6289 109.267 60.1074C106.704 60.7433 104.705 56.6723 102.141 57.3279C102.922 60.0812 100.503 62.828 97.8279 63.7523C95.1533 64.6766 92.2426 64.4079 89.4434 64.8078C86.6769 65.2076 84.0088 66.2828 81.734 67.9216C80.8097 68.5838 79.9116 69.3901 79.551 70.4783C78.8103 72.7072 80.4491 75.5851 78.8824 77.3092C78.489 77.7419 77.9515 78.0107 77.5975 78.4761C76.66 79.6889 77.3942 81.59 76.6273 82.9142C75.7619 84.4154 73.1528 84.9792 73.7297 86.8541C73.7953 87.0704 73.9067 87.2737 74.0444 87.4572C75.7554 89.8172 77.1779 92.3936 78.2727 95.101C79.6166 98.4312 80.2984 102.686 77.8269 105.269C77.4336 105.682 76.9222 106.042 76.3519 106.036C75.7685 106.029 75.2637 105.629 74.8245 105.236C72.4645 103.099 70.5568 100.45 69.2719 97.5135C69.1342 97.1988 68.9114 96.93 68.6098 96.7792C67.9346 96.4318 67.5281 96.9497 67.0365 97.2184C65.9876 97.7888 64.6437 97.1332 63.916 96.1696C63.1949 95.2059 62.8737 93.9997 62.323 92.9246C60.494 89.3452 56.4034 87.6539 52.7519 86.1592C52.4241 86.0216 52.0505 86.0084 51.7161 86.1396C50.7393 86.5329 51.1523 87.6473 50.7262 88.3684C50.0117 89.5812 48.1827 88.5389 47.337 87.4179C46.4913 86.2969 44.9115 85.0382 43.9478 86.0543C44.6755 87.1294 43.7118 88.8798 42.4269 88.8142C41.8828 88.788 41.3452 88.5061 40.8208 88.6503C39.2933 89.0699 40.3619 91.7118 39.3392 92.9377C38.0412 94.4913 36.9923 90.5646 34.7569 93.7178C34.5668 94.9961 34.8421 95.6123 35.2748 96.0778C36.2188 97.0939 36.2712 98.6344 35.3928 99.7096C35.1502 100.011 34.9929 100.385 35.0257 100.765C35.124 101.925 36.127 102.764 37.0054 103.512C37.012 103.518 37.0251 103.525 37.0317 103.538C37.956 104.331 37.189 105.839 36.0156 105.551C35.5632 105.439 35.1043 105.347 34.6454 105.275C34.2324 106.547 35.0519 107.917 36.0614 108.789C37.071 109.661 38.2969 110.284 39.1426 111.313C40.1652 112.558 40.6307 114.394 42.086 115.069C42.9513 115.469 43.9543 115.345 44.8787 115.574C45.803 115.803 46.7339 116.715 46.3865 117.606C46.2029 118.078 45.6981 118.419 45.9603 119.029C46.0783 119.291 46.2947 119.494 46.5503 119.619C49.0742 120.838 52.1619 120.753 54.6268 119.422C55.0463 119.193 55.479 118.924 55.9576 118.917C56.6066 118.904 57.1572 119.37 57.6882 119.756C59.727 121.231 62.4017 121.776 64.8404 121.212L64.4929 123.054C65.804 123.113 67.1086 123.382 68.341 123.86C67.5937 125.755 64.0078 124.686 63.0966 126.286C65.037 126.496 67.0102 126.6 69.0031 126.6C70.6748 126.6 72.3268 126.522 73.9526 126.378C74.595 126.05 75.2571 125.735 75.9193 125.434C77.6499 124.653 79.4265 123.952 81.1113 123.277C82.7829 122.608 84.4743 121.985 86.0738 121.159C86.2901 121.048 86.513 120.923 86.6245 120.707C86.8736 120.242 86.4934 119.697 86.159 119.291C84.507 117.298 83.4713 114.781 83.2287 112.191C83.1828 111.719 83.1697 111.228 83.3664 110.795C83.563 110.362 83.9498 110.061 84.3366 109.785C86.1394 108.501 88.1913 107.57 90.3415 107.058C90.9118 106.921 91.5215 106.803 91.9607 106.409C92.3409 106.075 92.5442 105.59 92.8326 105.177C93.5209 104.2 94.7534 103.656 95.9203 103.8C96.1497 103.826 96.4119 103.905 96.5103 104.121C96.7266 104.593 96.0186 104.888 95.5663 105.118C94.4911 105.662 94.3142 107.15 94.4977 108.356C94.6813 109.563 95.068 110.834 94.6092 111.962C94.2486 112.853 93.416 113.47 92.9637 114.322C92.177 115.803 92.6884 117.613 92.8588 119.291C92.9244 119.92 92.9244 120.569 92.8392 121.205C95.1664 120.091 97.4084 118.812 99.5455 117.396C98.7392 117.462 97.9328 116.774 97.3559 116.112C97.015 115.718 96.6742 115.299 96.5758 114.787C96.4972 114.348 96.6086 113.896 96.7659 113.476C97.3232 112.041 98.4245 110.913 99.3751 109.707C100.319 108.501 101.165 107.052 101.027 105.511C100.883 103.872 99.6307 102.489 99.6832 100.817C99.7356 99.0999 101.204 97.2053 102.673 96.4449C103.879 95.8221 105.76 95.5468 106.547 96.9497C107.261 98.2215 105.445 99.88 106.062 100.509C106.193 100.647 106.442 100.732 106.855 100.758C107.72 100.811 108.546 101.348 108.953 102.122C109.359 102.896 109.34 103.892 108.9 104.646C107.891 106.383 105.413 106.35 103.715 107.406C103.498 107.537 103.289 107.694 103.164 107.924C102.895 108.422 103.138 109.032 103.282 109.576C103.938 112.041 102.443 114.532 100.85 116.498C106.016 112.853 110.546 108.35 114.237 103.191C113.653 101.506 112.329 99.9259 112.558 98.1493C112.65 97.4741 112.965 96.8317 112.984 96.1565C113.043 94.216 110.814 93.0622 108.907 92.8787C106.999 92.6951 104.888 92.9246 103.354 91.7642C101.204 90.1384 101.617 86.3887 103.728 84.7104C105.839 83.0322 108.926 83.1437 111.372 84.2647C112.899 84.9661 114.872 85.9429 116.026 84.7104C116.754 83.9303 116.649 82.6586 117.239 81.7736C118.019 80.6067 119.73 80.4559 120.615 79.3742C121.533 78.2532 121.251 76.6078 121.277 75.1459C121.336 72.3926 122.739 69.9801 124.798 68.1773C124.653 63.477 123.939 58.9143 122.726 54.568C122.326 54.2992 121.88 54.1746 121.382 54.273ZM38.6443 97.1595C38.487 97.1332 38.3034 97.0742 38.2641 96.9169C38.2444 96.8251 38.2772 96.7333 38.3231 96.6547C38.6116 96.1302 39.2147 95.8877 39.6736 95.514C40.2701 95.0289 40.6569 94.2881 40.7093 93.508C40.7356 93.0884 40.6766 92.6558 40.7946 92.2493C40.9978 91.5413 41.6927 91.1087 42.3548 90.8071C43.0169 90.499 43.738 90.2171 44.1641 89.6206C44.2625 89.4763 44.3542 89.3059 44.505 89.2272C44.8656 89.0371 45.2982 89.2403 45.6916 89.0437C46.1898 88.7946 46.393 88.5389 46.9699 88.8404C47.5796 89.1617 48.4646 90.2958 48.4973 91.0431C48.5367 91.9937 47.4812 90.5842 47.042 90.3679C46.7995 90.2433 46.6093 90.1909 46.4586 90.1909C46.4192 90.1909 46.3865 90.1974 46.3537 90.204C46.3209 90.2105 46.2881 90.2237 46.2619 90.2302C46.2029 90.2564 46.1505 90.2892 46.1111 90.3351C45.8161 90.6367 45.7768 91.3316 45.39 91.738C45.0032 92.1445 44.3411 91.9937 43.8232 91.7904C43.5151 91.6724 43.1152 91.5676 42.9055 91.8232C42.7547 92.0002 42.7874 92.269 42.8268 92.4984C42.9972 93.4621 43.1677 94.4323 43.3381 95.396C43.3906 95.6844 43.4365 96.0122 43.266 96.2548C43.1677 96.399 43.0038 96.4777 42.853 96.5563C41.5484 97.1857 40.0603 97.3955 38.6443 97.1595ZM52.8568 98.4312C51.4736 99.6899 52.3717 102.233 51.2113 103.702C50.936 104.049 50.5558 104.312 50.3132 104.685C49.7495 105.544 50.0379 106.678 50.2018 107.701C50.3788 108.802 50.3395 110.035 49.6249 110.88C48.1302 112.65 47.16 110.821 46.1177 110.002C46.0783 109.976 46.0456 109.949 46.0062 109.923C45.9931 109.917 45.9866 109.91 45.9735 109.903C45.921 109.871 45.8686 109.838 45.8161 109.812C45.7899 109.799 45.7637 109.785 45.7375 109.772C45.7047 109.753 45.6653 109.74 45.6326 109.726C45.6129 109.72 45.5932 109.707 45.5736 109.7C45.4949 109.667 45.4162 109.641 45.331 109.615C45.2392 109.589 45.1409 109.563 45.0426 109.543C44.8393 109.497 44.623 109.471 44.4132 109.445C44.3215 109.431 44.2297 109.425 44.1445 109.418C44.1313 109.418 44.1182 109.412 44.1117 109.412C44.0199 109.405 43.9347 109.399 43.8429 109.386C43.7642 109.379 43.6856 109.372 43.6069 109.359C43.5282 109.353 43.4496 109.346 43.3709 109.333H43.3643C43.2857 109.327 43.2136 109.313 43.1349 109.3C43.0628 109.287 42.9972 109.281 42.9317 109.268C42.9251 109.268 42.9186 109.268 42.9055 109.261C42.8596 109.248 42.8137 109.241 42.7678 109.228C42.7088 109.215 42.6563 109.202 42.6039 109.189C42.5252 109.169 42.44 109.143 42.3679 109.11C42.322 109.091 42.2827 109.077 42.2433 109.058C42.2171 109.045 42.1909 109.032 42.1647 109.018C42.1319 109.005 42.1057 108.992 42.0794 108.973C42.0467 108.953 42.0073 108.933 41.9746 108.914C41.9352 108.887 41.8959 108.861 41.8566 108.828C41.8172 108.802 41.7779 108.769 41.7386 108.737C41.6992 108.704 41.6665 108.671 41.6271 108.632C41.5419 108.54 41.4567 108.442 41.3846 108.33C42.0401 107.727 43.1939 107.865 43.7183 107.137C44.0592 106.665 43.974 105.996 43.738 105.459C43.502 104.921 43.1349 104.456 42.9186 103.912C42.3482 102.489 43.0366 100.68 44.4001 100.011C45.3113 99.5653 46.4717 99.5588 47.1535 98.8049C47.4681 98.4575 47.632 97.992 47.7631 97.5397C48.0057 96.7137 48.1892 95.868 48.3138 95.0092C48.4187 94.2619 48.4842 93.4949 48.7727 92.8C49.0611 92.0986 49.6249 91.4692 50.3591 91.3447C51.4867 91.148 52.4372 92.1576 53.1518 93.0622C53.532 91.7708 55.0529 90.9907 56.3312 91.3578C57.6096 91.7249 58.4946 93.1016 58.3962 94.4454C58.3045 95.7893 57.308 96.989 56.0494 97.4217C54.9742 97.7757 53.6959 97.6642 52.8568 98.4312ZM70.1176 116.761C69.7242 117.292 69.1605 117.783 68.5115 117.737C68.2296 117.718 67.9674 117.593 67.7248 117.442C66.7677 116.833 66.1646 115.758 65.0305 115.449C63.8964 115.141 62.6574 115.417 61.497 115.089C59.4976 114.519 56.1674 112.073 56.3968 109.595C56.5082 108.428 57.6161 107.996 58.6716 108.251C59.4845 108.448 60.081 109.13 60.7694 109.556C61.5757 110.048 62.3689 110.048 63.2277 110.362C63.857 110.592 64.329 111.116 64.7814 111.614C65.8892 112.84 67.3118 114.125 68.931 113.883C70.288 113.679 71.3435 112.427 72.707 112.309C73.6051 112.231 74.477 112.67 75.2178 113.194C75.4341 113.352 75.6701 113.588 75.598 113.843C75.5587 113.981 75.4407 114.079 75.3227 114.158C74.1624 114.925 72.4841 114.414 71.35 115.22C70.819 115.62 70.5109 116.23 70.1176 116.761ZM80.6786 120.537C79.4265 120.746 79.5773 120.051 78.6333 121.192C78.4825 121.376 78.2399 121.467 78.0105 121.52C77.014 121.762 75.9324 121.559 74.9818 121.946C74.8048 122.018 74.6344 122.11 74.4508 122.103C73.9264 122.09 73.7231 121.422 73.6641 120.891C73.6445 120.727 73.6314 120.556 73.7035 120.419C73.8149 120.202 74.0903 120.13 74.3263 120.091C75.0277 119.96 75.7226 119.835 76.424 119.704C76.6994 119.652 76.9944 119.593 77.2041 119.409C77.5778 119.088 77.5909 118.511 77.8269 118.078C78.7119 116.393 81.4587 117.567 81.6554 119.18C81.7472 119.986 81.4259 120.412 80.6786 120.537ZM89.8892 103.912C89.5483 104.869 88.696 105.701 87.6996 105.728C87.5095 105.734 87.3194 105.708 87.1489 105.616C86.2508 105.118 87.0768 103.531 86.4147 102.738C86.0083 102.247 85.215 102.325 84.6709 102.653C84.1268 102.981 83.7073 103.499 83.1631 103.826C82.619 104.154 81.8324 104.246 81.4128 103.754C81.9045 102.627 83.209 101.932 83.4319 100.713C83.5434 100.09 83.3336 99.4473 83.091 98.8639C81.6357 95.3698 78.8496 92.5705 77.486 89.0371C76.9944 87.7653 76.837 86.0281 77.9777 85.3004C78.4956 84.9727 79.2036 84.9137 79.5707 84.422C79.8264 84.0746 79.8395 83.6091 79.8985 83.1765C80.1804 81.0983 83.9957 77.0929 85.7133 80.0691C86.5065 81.4523 84.9069 82.0423 85.1495 83.2748C85.215 83.5829 85.3462 83.8189 85.5363 84.009C85.5494 84.0221 85.569 84.0418 87.398 84.7891C87.4767 84.8088 87.5554 84.8219 87.6275 84.8415L88.1847 84.9858C88.4338 85.0579 88.6567 85.1497 88.8403 85.2611C89.522 85.6872 89.9481 86.5067 89.9023 87.3195C89.817 88.9257 88.1585 90.0073 87.7193 91.5545C87.3063 93.0163 88.0601 94.5176 88.6436 95.9204C89.2991 97.5069 89.7646 99.1786 90.0137 100.883C90.1579 101.906 90.23 102.955 89.8892 103.912ZM94.1962 69.0427C93.5144 69.2459 93.1079 69.3049 92.4262 68.9705C91.9083 68.7214 90.112 67.1088 91.5477 66.8793C92.0066 66.8072 92.472 66.8531 92.9309 66.899C94.0192 67.0039 95.1139 67.1153 96.2022 67.2202C96.2349 67.2202 96.2612 67.2268 96.2939 67.2268C96.6742 67.2661 97.0675 67.3185 97.3887 67.5283C97.251 67.4431 94.5698 68.9378 94.1962 69.0427ZM114.177 68.374C114.118 69.2 114.125 70.026 114.125 70.8585C114.125 71.6845 114.125 72.5171 114.053 73.3431C113.987 74.038 113.902 74.7394 113.594 75.3622C113.286 75.9784 112.709 76.5094 112.027 76.5684C110.821 76.6799 109.969 75.4343 108.874 74.9164C107.596 74.3133 106.049 74.7656 104.895 75.5982C103.748 76.4242 102.869 77.5846 101.866 78.581C101.42 79.0202 100.85 79.466 100.24 79.3545C99.8077 79.2759 99.4668 78.9284 99.2505 78.5417C98.7392 77.6173 98.8506 76.4439 99.2702 75.4802C99.6963 74.51 100.404 73.7102 101.099 72.917C101.846 72.0779 102.587 71.2322 103.335 70.3931C101.84 69.613 101.315 67.5873 101.748 65.9419C101.833 65.6207 101.951 65.2994 102.168 65.0569C102.941 64.1981 104.469 64.6832 105.347 63.9424C106.003 63.3852 106.14 62.2642 106.94 61.9758C107.681 61.7135 108.415 62.3625 108.881 62.9984C109.346 63.6343 109.877 64.3882 110.657 64.421C111.267 64.4472 111.817 63.9949 112.08 63.4311C112.342 62.8739 112.362 62.2314 112.329 61.6152C112.316 61.2743 112.289 60.9138 112.44 60.6122C113.332 58.875 113.614 62.3101 113.686 62.5723C113.948 63.5491 115.226 64.1784 115.357 65.1486C115.521 66.2106 114.269 67.1678 114.177 68.374Z" fill="#FF830C"/>
</g>
</g>
<g opacity="0.74">
<path opacity="0.74" d="M121.1 90.3876C121.448 89.4829 121.769 88.5651 122.071 87.6342C121.966 87.7653 121.861 87.903 121.769 88.0472C121.323 88.7487 121.146 89.555 121.1 90.3876Z" fill="white"/>
</g>
<g opacity="0.74">
<path opacity="0.74" d="M68.7343 70.4914C68.4525 69.9604 68.3148 69.3704 68.1116 68.8066C67.633 67.4824 66.7546 66.3155 65.627 65.4961C65.391 65.3256 65.1288 65.1617 64.8338 65.1617C64.4142 65.1617 64.0799 65.4895 63.8046 65.8107C62.5787 67.2661 61.733 69.0492 61.3659 70.9241C60.9595 73.0284 60.9791 74.9689 59.8516 76.8503C59.1239 78.0696 58.3503 78.817 58.9076 80.3182C59.3665 81.5572 60.6841 82.4619 61.6281 83.2944C63.3326 84.8022 64.2241 86.5591 65.6532 88.2701C66.4071 89.1748 67.4298 89.8434 68.5573 90.1712C68.9376 90.2826 69.3375 90.3482 69.7242 90.2499C70.8256 89.9549 71.1075 88.4143 70.6748 87.3458C70.2421 86.2772 69.3702 85.4446 68.8655 84.4089C68.1378 82.9142 68.2886 81.0328 69.2326 79.6692C70.0913 78.4302 71.5729 77.5517 71.8876 76.0702C72.176 74.7066 71.3303 73.3562 70.3601 72.3663C69.7767 71.7763 69.1277 71.2256 68.7343 70.4914Z" fill="white"/>
</g>
<g opacity="0.83">
<g opacity="0.83">
<path opacity="0.83" d="M25.2643 104.305C24.9168 103.571 24.8447 102.725 24.5628 101.958C23.9925 100.437 22.6289 99.3883 21.7112 98.0575C21.4883 97.7363 21.285 97.3692 21.2916 96.9759C21.2982 96.5498 21.5538 96.1761 21.7833 95.8221C22.7601 94.3405 23.6254 92.5181 23.0616 90.8267C22.7273 89.8237 21.9472 89.0567 21.2195 88.3028C20.4918 87.549 19.7445 86.7295 19.5216 85.6937C19.2987 84.6645 19.81 83.3927 20.8327 83.1764C21.6325 83.006 22.6552 83.4452 23.173 82.8027C23.6451 82.2127 23.1665 81.3736 22.9633 80.646C22.76 79.9183 23.4812 78.8366 24.0187 79.3676C23.9663 78.4302 23.9073 77.4862 23.8548 76.5487C24.5432 76.1882 25.3888 76.8044 25.6445 77.5452C25.9002 78.2859 25.7887 79.0988 25.8412 79.8789C25.8936 80.6591 26.2148 81.531 26.9425 81.7932C27.3817 81.9505 27.8734 81.8456 28.3257 81.9505C28.8633 82.0751 29.2959 82.4881 29.8204 82.6651C31.4986 83.2223 32.9343 81.2163 33.2162 79.4528C33.6357 76.8044 33.0982 73.6053 35.1042 71.8549C36.2121 70.8913 37.8641 70.6618 38.7818 69.5081C39.9291 68.0658 39.385 65.9287 38.6311 64.2439C37.6608 62.0806 36.4349 60.0287 34.9731 58.1669C34.5469 57.6228 34.0946 57.0787 33.8652 56.4232C33.4325 55.1907 33.9045 53.7616 34.7829 52.811C35.6679 51.8605 36.9004 51.3164 38.1459 50.9689C38.8933 50.7657 39.68 50.6084 40.3093 50.156C41.509 49.2842 41.7712 47.5994 41.7515 46.1113C41.7056 43.0236 40.8534 39.9425 39.3063 37.2809C38.3361 35.6158 37.0708 34.0294 36.8021 32.1151C36.6972 31.394 36.6513 30.4959 35.9957 30.1944C35.6679 30.0436 35.2877 30.1026 34.9468 30.214C32.6065 30.9417 31.2823 33.4656 30.6726 35.8715C30.0629 38.2774 29.8991 40.8471 28.7191 43.0301C27.6112 45.082 25.7035 46.5898 24.5891 48.6352C23.5008 50.6412 23.2583 53.106 23.9466 55.289C24.7529 57.8523 26.7852 60.1467 26.5361 62.8279C26.2345 66.1254 22.6814 68.1183 21.5342 71.2256C21.1146 72.3728 21.0425 73.6512 21.3375 74.8443C21.4424 75.2442 21.5735 75.7096 21.3309 76.0505C21.108 76.3652 20.6688 76.4045 20.2886 76.4635C18.7153 76.6798 17.1485 77.6632 15.8177 79.0005C15.2212 79.6102 14.6705 80.2854 14.1985 81.0065C16.4339 92.4853 22.0979 102.719 30.0629 110.566C29.2959 108.959 28.1291 107.517 26.8638 106.265C26.2804 105.669 25.6314 105.079 25.2643 104.305ZM26.4967 68.8591C26.5951 68.2822 26.9097 67.7643 27.2965 67.3316C28.3585 66.1319 29.9581 65.4829 30.8824 64.1718C31.4789 63.3262 31.4921 60.7039 32.7048 60.6449C32.7507 60.6449 32.7966 60.6449 32.8425 60.6515C32.8687 60.658 32.8884 60.6581 32.9146 60.6646C32.9408 60.6712 32.9605 60.6777 32.9867 60.6843C33.0785 60.7171 33.1768 60.7695 33.2686 60.835C33.3079 60.8613 33.3473 60.8941 33.3866 60.9203C33.4259 60.9531 33.4653 60.9858 33.5046 61.0186C33.5243 61.0383 33.5439 61.0514 33.5636 61.071C33.5833 61.0907 33.6029 61.1104 33.6226 61.13C33.7537 61.2612 33.8783 61.4119 34.0094 61.5758C34.0618 61.6414 34.1077 61.7069 34.1602 61.7791C34.3568 62.0609 34.5535 62.3625 34.7239 62.6641L34.8354 62.8607L34.9731 63.1098C35.2287 63.5818 35.4254 64.0145 35.5368 64.2702C36.0875 65.5288 36.1334 67.1743 35.1501 68.1248C34.1864 69.0557 32.5737 69.0361 31.6625 70.0259C30.7644 71.0027 30.9217 72.5302 31.0528 73.8609C31.1905 75.1917 31.1315 76.7913 30.0236 77.5255C29.9449 77.5779 29.8663 77.6239 29.7745 77.6239C29.6303 77.6304 29.5123 77.519 29.4074 77.4141C28.9288 76.9158 28.5814 76.2865 28.4109 75.6113C28.3061 75.2114 28.2602 74.7918 28.1094 74.4051C27.9062 73.8741 27.5128 73.4479 27.2375 72.9497C26.7721 72.1106 26.6409 71.1273 26.5229 70.1702C26.4836 69.7441 26.4246 69.2983 26.4967 68.8591Z" fill="#FF830C"/>
</g>
</g>
<g opacity="0.74">
<path opacity="0.74" d="M14.8149 68.9049C15.241 68.5051 14.6051 67.902 14.2445 67.4365C13.4644 66.4401 14.1659 64.8733 15.2344 64.2112C16.303 63.5425 17.6141 63.4442 18.8203 63.0705C20.02 62.6968 21.259 61.8315 21.3639 60.5597C21.4294 59.7665 21.023 59.0126 20.6165 58.3308C18.9252 55.4923 16.834 52.2997 17.8239 49.1465C18.4139 47.2782 19.9741 45.9277 21.2066 44.4199C22.439 42.9056 23.4092 40.8013 22.5767 39.0313C22.5308 38.9329 22.4783 38.8411 22.4259 38.7428C16.6635 47.5535 13.2743 58.0948 13.1694 69.4359C13.4775 69.2589 13.825 69.1344 14.2052 69.0885C14.4215 69.0623 14.6575 69.0557 14.8149 68.9049Z" fill="white"/>
</g>
<g opacity="0.74">
<path opacity="0.74" d="M43.4889 119.035C43.5413 118.858 43.443 118.675 43.3447 118.517C42.6498 117.423 41.5681 116.584 40.3357 116.19C39.8505 116.033 39.3327 115.935 38.9328 115.613C38.664 115.397 38.4018 115.069 38.0674 115.141C37.6348 115.24 37.4315 115.974 37.012 115.843C36.9071 115.81 36.8284 115.725 36.7498 115.646C36.5924 115.489 36.4023 115.351 36.186 115.331C36.0352 115.318 35.8779 115.377 35.7795 115.489C37.7397 116.964 39.8047 118.308 41.9549 119.52C42.322 119.494 42.7088 119.494 43.0628 119.389C43.2463 119.324 43.4364 119.219 43.4889 119.035Z" fill="white"/>
</g>
<g opacity="0.74">
<path opacity="0.74" d="M41.7779 82.9929C40.4406 82.4815 38.8738 81.7277 37.6282 82.6979C36.8285 83.3207 36.2516 83.8975 36.5269 84.9399C36.6842 85.5299 37.1431 86.369 37.7004 86.664C38.5001 87.0835 38.4346 86.5198 38.7427 85.9035C39.4114 84.5531 41.3846 85.0185 42.5056 84.1204C42.5974 84.0483 42.6957 83.9566 42.7154 83.832C42.7285 83.7402 42.6891 83.6484 42.6432 83.5698C42.4531 83.2682 42.1057 83.1174 41.7779 82.9929Z" fill="white"/>
</g>
<g opacity="0.74">
<path opacity="0.74" d="M54.0828 74.0773C54.0894 73.4611 54.5351 72.9956 54.5679 72.3925C54.5941 71.9205 54.3057 71.4944 54.0107 71.1273C53.5649 70.5635 53.0929 70.0325 52.5881 69.5212C52.3259 69.259 51.9654 68.9836 51.631 69.141C51.4606 69.2196 51.3491 69.3966 51.2705 69.5671C50.9099 70.3603 50.9427 71.2715 50.7657 72.1237C50.7264 72.3007 50.6477 72.504 50.4772 72.5302C50.3789 72.5433 50.2871 72.4909 50.2019 72.4384C49.8741 72.2286 49.5857 71.9533 49.2317 71.796C48.8777 71.6321 48.4188 71.619 48.1435 71.8943C47.8353 72.209 47.9009 72.74 48.1107 73.1202C48.3205 73.507 48.6351 73.8282 48.8121 74.2281C48.9891 74.628 48.9695 75.1852 48.6024 75.4146C48.2746 75.6244 47.7042 75.6047 47.678 75.9915C47.6649 76.1357 47.7567 76.2734 47.8419 76.3914C48.1303 76.7979 48.4319 77.2174 48.8646 77.4534C49.2972 77.6894 49.9069 77.6829 50.2216 77.3026C50.7788 76.634 50.5887 76.5553 51.3688 76.6602C51.8015 76.7192 52.3325 76.5946 52.7455 76.693C53.5846 76.8896 53.7026 77.7156 54.64 77.0076C55.4267 76.4176 55.2038 76.103 54.7056 75.5326C54.345 75.1131 54.0762 74.6608 54.0828 74.0773Z" fill="white"/>
</g>
<g opacity="0.74">
<path opacity="0.74" d="M88.1848 84.9989L88.8404 85.2742C88.6568 85.1628 88.4339 85.071 88.1848 84.9989Z" fill="white"/>
</g>
<g opacity="0.74">
<path opacity="0.74" d="M37.7922 25.9529C38.7427 26.2086 39.1951 27.1526 40.0801 27.5263C40.9388 27.8868 41.9222 27.7885 42.8203 27.6836C43.1218 27.6508 43.4431 27.6049 43.6791 27.4148C44.0724 27.1002 44.0986 26.4905 43.9282 26.0119C43.7512 25.5334 43.4234 25.1335 43.2005 24.6812C42.545 23.3635 42.8793 21.6197 43.9806 20.6495C45.1016 19.6596 46.7077 19.5547 48.1631 19.2335C49.6184 18.9123 51.2245 18.0732 51.4343 16.5785C51.454 16.4605 51.454 16.3359 51.4408 16.2179C45.2852 18.2829 39.6015 21.4034 34.5996 25.376C35.4715 26.4905 36.5138 25.6055 37.7922 25.9529Z" fill="white"/>
</g>
<g opacity="0.83">
<path opacity="0.83" d="M60.435 34.7767C60.1335 33.8196 59.0977 33.3673 58.3307 32.7445C57.5571 32.1217 57.0786 30.7582 57.9111 30.2206C58.2782 29.9846 58.7765 30.0239 59.137 29.7683C59.7991 29.3028 59.4845 28.1425 58.7765 27.7557C58.0685 27.3689 57.2031 27.5066 56.4099 27.6639C57.1179 26.3725 56.5672 24.5304 55.2627 23.8617C54.9546 23.7044 54.5547 23.6126 54.2728 23.8158C53.9385 24.0584 53.945 24.5566 54.0237 24.9696C54.2072 26.025 54.5875 27.0412 54.6596 28.1097C54.7382 29.1783 54.4367 30.3648 53.5713 30.9679C52.5487 31.6759 51.054 31.4006 50.11 32.2135C49.0415 33.1313 49.3037 34.875 49.8609 36.173C50.4181 37.4776 51.2048 38.8412 50.877 40.2244C50.2936 42.7089 46.4979 43.6202 46.452 46.1768C46.4323 47.1143 46.9765 47.9796 47.0748 48.9105C47.2846 50.7985 45.7178 52.3981 44.1248 53.4076C42.6301 54.3582 39.2278 55.8528 39.5097 58.1276C39.7129 59.7403 41.4239 60.8613 42.7547 60.114C44.1772 59.3076 44.9573 56.9607 46.0587 55.7807C47.4812 54.2598 50.1625 53.4338 50.8311 51.3033C50.9885 50.792 51.0016 50.2478 51.1851 49.7496C51.9783 47.5994 55.1512 47.5994 56.5738 45.8163C56.7442 45.6065 56.8885 45.3574 56.8885 45.0886C56.895 44.6691 56.5607 44.3282 56.2788 44.0201C55.3413 43.0039 54.6596 41.5093 55.2102 40.2375C55.7478 38.9919 57.1835 38.4937 58.3897 37.8972C59.5959 37.2875 60.8415 36.0747 60.435 34.7767Z" fill="#FF830C"/>
</g>
<g opacity="0.74">
<path opacity="0.74" d="M88.3682 51.1132C87.0702 51.2836 85.7657 51.6114 84.6906 52.3718C83.622 53.1323 82.8288 54.391 82.8943 55.7086C82.9337 56.4887 83.3663 57.5901 82.9206 58.3177C82.2847 59.3601 80.967 58.7439 80.1672 59.3535C77.8662 61.1104 81.8127 61.7332 83.0648 61.7463C84.8741 61.766 86.7556 61.294 88.1126 60.0812C88.7681 59.4912 89.2991 58.7373 90.0661 58.3046C91.7575 57.3475 93.8552 58.2718 95.7957 58.1997C96.0972 58.1866 96.4119 58.1473 96.6676 57.9834C97.0019 57.7605 97.1724 57.3541 97.2772 56.9607C97.6116 55.6693 97.4411 54.2861 97.7886 52.9946C98.136 51.7097 99.3488 50.4511 100.614 50.8313C100.909 50.1036 100.194 49.3497 99.4668 49.081C98.7391 48.8122 97.9066 48.7728 97.2969 48.2877C96.484 47.6387 96.3726 46.4063 96.6151 45.3902C96.8642 44.3675 97.3887 43.4366 97.6247 42.414C97.7689 41.7912 97.6706 40.9455 97.0544 40.7882C96.8249 40.7292 96.5824 40.7947 96.3595 40.8734C93.77 41.7846 92.3671 44.6887 92 47.4486C91.8689 48.4123 91.7968 49.4743 91.1347 50.1757C90.4464 50.8903 89.3581 50.9821 88.3682 51.1132Z" fill="white"/>
</g>
<g opacity="0.74">
<path opacity="0.74" d="M56.8491 56.8624C56.2329 56.9476 55.7281 57.3738 55.2561 57.7868C54.4432 58.5013 53.6303 59.2159 52.8174 59.9304C49.1004 63.1951 53.9712 64.4472 54.9152 62.179C55.0398 61.8774 55.0725 61.5496 55.1643 61.2415C55.4921 60.2057 56.482 59.5764 57.3539 58.9471C57.7341 58.6717 58.1406 58.3112 58.1602 57.8392C58.1864 57.2164 57.4588 56.7772 56.8491 56.8624Z" fill="white"/>
</g>
<g opacity="0.74">
<path opacity="0.74" d="M89.8762 17.4504C89.1748 17.1619 88.4668 16.8931 87.7522 16.6309C87.8833 16.6965 88.021 16.7555 88.1521 16.8145C88.7159 17.0701 89.2862 17.2996 89.8762 17.4504Z" fill="white"/>
</g>
<g opacity="0.74">
<path opacity="0.74" d="M84.9135 38.4413C85.1626 38.3233 85.4576 38.3626 85.7067 38.2512C85.7657 38.2249 85.8247 38.1725 85.8181 38.1069C85.805 38.0414 85.7264 38.0152 85.6608 37.9955C85.569 37.9758 85.4707 37.9562 85.3789 37.9299C85.0511 37.8447 84.7365 37.7333 84.4284 37.6022C83.8908 37.3662 83.4385 37.1564 83.8318 37.884C84.0547 38.3102 84.448 38.6576 84.9135 38.4413Z" fill="white"/>
</g>
<g opacity="0.74">
<path opacity="0.74" d="M87.3325 36.1075C87.8307 36.4615 88.342 36.0616 88.5059 35.4913C88.6108 35.1111 88.5059 34.7112 88.3224 34.3572C88.2765 34.2719 88.2306 34.1867 88.1847 34.1081C87.752 33.4001 86.4737 31.8464 86.4606 33.5246C86.454 34.2588 86.6769 35.6421 87.3325 36.1075Z" fill="white"/>
</g>
<g opacity="0.74">
<path opacity="0.74" d="M78.594 36.8089C78.2925 36.6582 77.945 36.6319 77.6107 36.6188C77.0273 36.5991 76.411 36.6319 75.9063 36.9335C75.8145 36.9925 75.7162 37.0712 75.6703 37.1695C75.6506 37.2154 75.6375 37.2678 75.644 37.3203C76.3586 37.7202 76.8372 38.4282 77.3616 39.064C77.9713 39.8114 78.5678 40.1457 79.0464 39.0968C79.3807 38.356 79.4135 37.2219 78.594 36.8089Z" fill="white"/>
</g>
<g opacity="0.74">
<path opacity="0.74" d="M81.157 33.1312C81.4717 33.6885 82.7697 35.8125 83.2089 34.1146C83.4973 32.9936 82.0027 32.0102 81.1701 32.8952C81.1439 32.9215 81.1177 32.9542 81.1111 32.987C81.1046 33.0329 81.1308 33.0854 81.157 33.1312Z" fill="white"/>
</g>
<g opacity="0.74">
<path opacity="0.74" d="M87.2474 39.1296C86.8934 39.7262 87.3457 40.2703 87.4375 40.8603C87.4703 41.0635 87.4506 41.2864 87.5686 41.4568C87.6801 41.6207 87.8898 41.6863 88.0799 41.6535C88.2701 41.6207 88.4405 41.5093 88.5716 41.3651C89.2009 40.6964 89.6926 38.7494 88.3684 38.6117C87.9488 38.5724 87.4768 38.7494 87.2474 39.1296Z" fill="white"/>
</g>
<g opacity="0.74">
<path opacity="0.74" d="M83.3073 42.014C83.4253 42.1583 83.576 42.2697 83.7203 42.3812C83.7858 42.4336 83.8579 42.4795 83.9366 42.4926C84.0612 42.5057 84.1661 42.4205 84.2644 42.3353C84.3824 42.2304 84.5069 42.1255 84.6249 42.0206C84.7298 41.9288 84.8347 41.8305 84.8609 41.6928C84.8872 41.5814 84.8478 41.4634 84.8085 41.3519C84.6905 41.011 83.6547 40.9193 83.5367 40.5849C83.2745 40.6767 83.0844 40.9455 83.0516 41.2274C83.0254 41.5093 83.1303 41.7977 83.3073 42.014Z" fill="white"/>
</g>
<g opacity="0.74">
<path opacity="0.74" d="M81.4849 35.9108C81.0916 35.9895 81.262 37.1236 81.1375 37.5104C81.3407 37.53 81.557 37.5432 81.7537 37.4776C82.0487 37.3727 82.2453 37.1039 82.4289 36.8483C82.4813 36.7762 82.5338 36.704 82.5403 36.6123C82.5469 36.5402 82.5272 36.468 82.4945 36.4025C82.3175 36.0419 81.8782 35.8387 81.4849 35.9108Z" fill="white"/>
</g>
<g opacity="0.74">
<path opacity="0.74" d="M84.4875 32.3971C84.6121 32.5085 84.7891 32.6265 84.9333 32.5478C85.1037 32.4561 85.0578 32.2069 85.0119 32.0168C84.9464 31.7349 84.9267 31.4465 84.9464 31.1581C84.9595 30.9942 84.9923 30.8368 84.9726 30.6729C84.953 30.5091 83.9172 31.3482 83.7729 31.2761C83.7861 31.7349 84.1466 32.0955 84.4875 32.3971Z" fill="white"/>
</g>
<g opacity="0.83">
<path opacity="0.83" d="M78.712 21.9868C78.4694 21.7705 78.1875 21.541 77.8663 21.5935C77.6369 21.6328 77.4533 21.8164 77.3091 21.9999C76.234 23.3504 75.9914 25.3564 74.5951 26.3528C73.5986 27.0674 69.8816 27.5721 70.3012 29.3815C70.6158 30.7319 72.3465 31.1646 73.3561 30.4304C73.9264 30.0174 74.1952 29.2307 74.7196 28.857C75.2179 28.503 76.0963 28.9029 76.647 29.0275C76.8043 29.0602 76.9879 29.0865 77.0993 28.9685C77.1714 28.8898 77.178 28.7784 77.1845 28.6669C77.2173 27.9196 77.1255 27.1657 77.2107 26.4249C77.296 25.6841 77.5844 24.9106 78.1941 24.491C78.6333 24.1829 79.2561 24.0321 79.4396 23.5208C79.6494 22.9439 79.1577 22.3867 78.712 21.9868Z" fill="#FF830C"/>
</g>
<g opacity="0.74">
<path opacity="0.74" d="M34.9734 63.123L35.5372 64.2833C35.4257 64.0276 35.2225 63.6015 34.9734 63.123Z" fill="white"/>
</g>
<g opacity="0.74">
<path opacity="0.74" d="M34.1604 61.7856L34.7242 62.6706C34.5472 62.3756 34.3571 62.0675 34.1604 61.7856Z" fill="white"/>
</g>
<g opacity="0.74">
<path opacity="0.74" d="M33.6228 61.1366L34.0096 61.5824C33.8785 61.4185 33.7474 61.2677 33.6228 61.1366Z" fill="white"/>
</g>
<g opacity="0.74">
<path opacity="0.74" d="M28.1947 35.5175C28.9814 36.4352 29.8074 34.0294 29.9647 33.3935C30.1286 32.7379 30.1483 32.0496 30.2728 31.3875C30.5285 30.0501 31.2234 28.8373 31.9707 27.6967C32.0166 27.6246 32.0625 27.5525 32.1084 27.4803C30.7514 28.6931 29.4599 29.9649 28.2275 31.3022C28.2275 31.3219 28.2275 31.3416 28.2209 31.3612C28.1488 32.3052 27.5064 34.7111 28.1947 35.5175Z" fill="white"/>
</g>
<g opacity="0.74">
<path opacity="0.74" d="M42.3351 32.9674C42.4269 32.9477 42.5187 32.9281 42.5843 32.8625C42.6498 32.7969 42.6695 32.6921 42.676 32.6003C42.7219 32.2201 42.7088 31.8398 42.6498 31.4596C42.6367 31.3744 42.6236 31.2826 42.6695 31.2105C42.7023 31.1646 42.7547 31.1384 42.8071 31.1253C43.325 30.9614 43.7577 31.0794 44.0134 30.4828C44.21 30.0174 44.033 29.4143 43.6135 29.1652C42.7678 28.6538 41.2273 29.1455 40.5061 29.6765C40.2898 29.8338 40.08 30.0502 40.0604 30.3189C40.0341 30.6336 40.2701 30.9024 40.3947 31.1974C40.6241 31.7218 40.5389 32.4102 40.9519 32.7904C41.319 33.1182 41.8631 33.0592 42.3351 32.9674Z" fill="white"/>
</g>
<path opacity="0.74" d="M67.4297 40.6177C67.4297 40.6177 53.4467 44.9772 62.8802 48.8384C72.3136 52.6996 64.0405 64.4406 70.4912 60.2451C76.9418 56.0495 80.5867 53.6174 75.0407 50.3462C69.4947 47.0749 73.0544 39.0247 67.4297 40.6177Z" fill="white"/>
<path opacity="0.83" d="M80.4949 14.5594C80.2786 16.29 79.6361 18.1977 78.1021 19.8169C74.1295 24.0125 68.59 14.4545 62.7949 16.9653C59.5171 18.3878 57.2751 16.6703 55.9443 14.9134C60.1268 13.8972 64.4993 13.3597 68.9965 13.3597C72.9429 13.3597 76.7845 13.7727 80.4949 14.5594Z" fill="#FF830C"/>
</g>
<defs>
<filter id="filter0_d" x="0.156494" y="0.35968" width="139.687" height="141.228" filterUnits="userSpaceOnUse" color-interpolation-filters="sRGB">
<feFlood flood-opacity="0" result="BackgroundImageFix"/>
<feColorMatrix in="SourceAlpha" type="matrix" values="0 0 0 0 0 0 0 0 0 0 0 0 0 0 0 0 0 0 127 0"/>
<feOffset dx="1" dy="1"/>
<feGaussianBlur stdDeviation="7"/>
<feColorMatrix type="matrix" values="0 0 0 0 1 0 0 0 0 0.969333 0 0 0 0 0.933333 0 0 0 0.25 0"/>
<feBlend mode="normal" in2="BackgroundImageFix" result="effect1_dropShadow"/>
<feBlend mode="normal" in="SourceGraphic" in2="effect1_dropShadow" result="shape"/>
</filter>
<linearGradient id="paint0_linear" x1="68.7512" y1="69.7232" x2="114.744" y2="115.717" gradientUnits="userSpaceOnUse">
<stop stop-color="#FFC900"/>
<stop offset="1" stop-color="#FF800D"/>
</linearGradient>
<linearGradient id="paint1_linear" x1="68.7512" y1="69.7232" x2="114.744" y2="115.717" gradientUnits="userSpaceOnUse">
<stop stop-color="#FFC900"/>
<stop offset="1" stop-color="#FF800D"/>
</linearGradient>
<radialGradient id="paint2_radial" cx="0" cy="0" r="1" gradientUnits="userSpaceOnUse" gradientTransform="translate(43.254 42.0531) scale(48.3857 49.0534)">
<stop offset="0.00053737" stop-color="#FFF87F"/>
<stop offset="1"/>
</radialGradient>
</defs>
</svg>
