<svg width="95" height="95" viewBox="0 0 95 95" fill="none" xmlns="http://www.w3.org/2000/svg">
<path d="M47.3458 94.6716C73.4886 94.6716 94.6816 73.4787 94.6816 47.3358C94.6816 21.193 73.4886 0 47.3458 0C21.2029 0 0.0100098 21.193 0.0100098 47.3358C0.0100098 73.4787 21.2029 94.6716 47.3458 94.6716Z" fill="url(#paint0_linear)"/>
<path opacity="0.3" d="M70.1392 18.0129C76.0107 19.3119 81.1201 19.7276 85.5887 19.4332C76.5649 7.08393 61.7389 -0.658161 45.3194 0.0519632C27.1853 0.831368 11.8743 11.7257 4.59985 27.054C21.0366 19.5544 45.0077 12.4358 70.1392 18.0129Z" fill="#3A52CC"/>
<path opacity="0.14" d="M78.7819 50.7133C84.8266 51.0424 90.04 51.1289 94.5259 51.0077C94.6644 49.1371 94.7164 47.2319 94.6298 45.2921C94.5432 43.3176 94.318 41.3777 94.0062 39.4725C83.1811 41.2045 68.2513 40.4251 47.9694 33.8262C26.1461 26.7076 12.0128 27.4697 2.86782 31.1069C0.789411 36.7879 -0.232484 42.9539 0.044638 49.3623C0.287119 54.9394 1.48228 60.2393 3.47409 65.1409C18.9409 56.325 44.6093 48.86 78.7819 50.7133Z" fill="#3A52CC"/>
<path opacity="0.3" d="M50.5156 59.789C29.3505 59.9449 14.663 63.2184 4.49609 67.4271C8.08135 75.0653 13.6238 81.5603 20.4653 86.2887C38.5128 76.5548 67.4201 73.1254 87.7712 71.9477C90.2306 67.9121 92.1012 63.4781 93.2616 58.7844C83.5277 59.252 69.8102 59.6504 50.5156 59.789Z" fill="#3A52CC"/>
<path opacity="0.3" d="M40.816 22.4469C22.959 17.7185 62.6047 44.9457 92.9322 34.5883C91.9796 31.2109 90.6979 27.9719 89.0698 24.9582C77.5693 25.4779 54.2564 25.9975 40.816 22.4469Z" fill="#3A52CC"/>
<path opacity="0.14" d="M29.5928 91.2076C35.6894 93.6844 42.3924 94.9315 49.3897 94.6197C61.3406 94.1001 72.0617 89.1985 80.0636 81.5257C63.8173 80.5904 40.1754 81.2312 29.5928 91.2076Z" fill="#3A52CC"/>
<defs>
<linearGradient id="paint0_linear" x1="75.3837" y1="73.0533" x2="17.1171" y2="19.6059" gradientUnits="userSpaceOnUse">
<stop stop-color="#5CA3E2"/>
<stop offset="0.2704" stop-color="#59C5D3"/>
<stop offset="0.5707" stop-color="#57E5C5"/>
<stop offset="0.8247" stop-color="#56F8BD"/>
<stop offset="1" stop-color="#55FFBA"/>
</linearGradient>
</defs>
</svg>
