<svg width="85" height="85" viewBox="0 0 85 85" fill="none" xmlns="http://www.w3.org/2000/svg">
<path d="M42.5 85C65.9721 85 85 65.9721 85 42.5C85 19.0279 65.9721 0 42.5 0C19.0279 0 0 19.0279 0 42.5C0 65.9721 19.0279 85 42.5 85Z" fill="url(#paint0_linear)"/>
<g opacity="0.53">
<path opacity="0.53" d="M34.4322 9.48569C44.5593 5.90746 56.0704 6.4138 66.265 7.25772C59.4799 2.66678 51.3107 0 42.5001 0C32.1705 0 22.6848 3.67952 15.3258 9.82328C19.8155 11.8487 25.993 12.4563 34.4322 9.48569Z" fill="white"/>
<path opacity="0.53" d="M68.1555 29.9086C73.4216 28.8284 78.9915 30.415 83.8525 32.6092C82.8398 28.3558 81.1857 24.3725 79.0252 20.7268C65.3874 14.9881 46.4836 17.0472 23.7652 19.2414C16.1698 19.9841 10.7688 19.8828 6.92047 19.309C6.00903 20.693 5.19883 22.1108 4.45618 23.5961C11.6126 24.7438 21.3009 29.0647 34.4324 36.1199C53.9101 46.517 51.0407 33.4531 68.1555 29.9086Z" fill="white"/>
<path opacity="0.48" d="M60.6612 62.923C47.2597 66.1636 51.7493 78.6875 54.0111 83.4134C71.9022 78.3837 85 61.9777 85 42.5C85 42.0949 84.9662 41.7236 84.9662 41.3185C82.4682 40.6772 79.6664 40.137 76.5608 39.6644C50.2304 35.6136 77.3034 58.8721 60.6612 62.923Z" fill="white"/>
<path opacity="0.48" d="M15.697 61.4714C4.52341 51.9857 9.99205 51.7494 33.0143 55.1926C44.1878 56.8467 42.2638 49.4877 19.4778 33.5881C12.5239 28.7271 7.29157 26.6005 3.34201 25.9591C1.18156 31.0564 0 36.6263 0 42.5C0 54.1799 4.72598 64.7796 12.3551 72.4424C17.5536 69.4718 20.1191 65.2522 15.697 61.4714Z" fill="white"/>
<path opacity="0.53" d="M49.3865 63.7331C54.7201 53.4035 65.6573 51.7494 52.8297 48.3062C41.6561 45.3018 44.2893 70.7545 30.1451 71.0921C21.5371 71.2947 19.4103 75.0417 19.0728 77.9448C25.7904 82.4007 33.8245 85 42.5001 85C45.0994 85 47.6311 84.7637 50.0954 84.3248C47.4286 78.1135 46.1459 70.0119 49.3865 63.7331Z" fill="white"/>
<path opacity="0.53" d="M36.5251 61.8765C35.6474 60.7288 34.4322 59.8849 33.1156 59.311C29.5036 57.7919 21.2333 54.6863 20.3218 57.9269C19.2078 61.7752 41.7574 68.5941 36.5251 61.8765Z" fill="white"/>
<path opacity="0.48" d="M57.4542 10.5659C36.9299 12.22 25.9927 12.1187 34.4319 13.5365C42.5673 14.9205 68.2563 14.853 75.3115 15.4944C73.6912 13.5365 71.9359 11.7474 70.0117 10.1271C67.0749 9.99204 63.0241 10.0933 57.4542 10.5659Z" fill="white"/>
</g>
<defs>
<linearGradient id="paint0_linear" x1="61.148" y1="61.1257" x2="8.77685" y2="8.75449" gradientUnits="userSpaceOnUse">
<stop stop-color="#D8053C"/>
<stop offset="0.2539" stop-color="#E62439"/>
<stop offset="0.561" stop-color="#F44436"/>
<stop offset="0.8208" stop-color="#FC5734"/>
<stop offset="1" stop-color="#FF5E33"/>
</linearGradient>
</defs>
</svg>
