<svg width="185" height="181" viewBox="0 0 185 181" fill="none" xmlns="http://www.w3.org/2000/svg">
<path d="M92.4999 180.281C143.586 180.281 185 140.015 185 90.3432C185 40.6718 143.586 0.405243 92.4999 0.405243C41.4136 0.405243 0 40.6718 0 90.3432C0 140.015 41.4136 180.281 92.4999 180.281Z" fill="url(#paint0_linear)"/>
<g opacity="0.53">
<path opacity="0.53" d="M74.9408 20.4788C96.9821 12.9065 122.036 13.9781 144.224 15.764C129.456 6.04865 111.676 0.405243 92.5002 0.405243C70.0181 0.405243 49.3728 8.1918 33.3561 21.1932C43.1278 25.4793 56.573 26.7651 74.9408 20.4788Z" fill="white"/>
<path opacity="0.53" d="M148.338 63.6976C159.8 61.4117 171.923 64.7692 182.502 69.4125C180.298 60.4116 176.698 51.9821 171.996 44.267C142.314 32.1229 101.17 36.4805 51.7241 41.1238C35.1931 42.6954 23.4379 42.4811 15.0622 41.2667C13.0785 44.1956 11.3151 47.1959 9.69871 50.3391C25.2746 52.7679 46.3608 61.9117 74.941 76.8418C117.334 98.8441 111.089 71.1984 148.338 63.6976Z" fill="white"/>
<path opacity="0.48" d="M132.027 133.562C102.859 140.42 112.631 166.923 117.554 176.924C156.493 166.28 185 131.562 185 90.3433C185 89.486 184.927 88.7003 184.927 87.8431C179.49 86.4858 173.392 85.3428 166.632 84.3427C109.325 75.7703 168.249 124.99 132.027 133.562Z" fill="white"/>
<path opacity="0.48" d="M34.164 130.49C9.84507 110.417 21.7474 109.917 71.8546 117.203C96.1735 120.704 91.9858 105.131 42.3929 71.4841C27.2579 61.1973 15.8699 56.6969 7.27378 55.3396C2.57164 66.1265 0 77.9134 0 90.3433C0 115.06 10.286 137.491 26.8904 153.707C38.2049 147.421 43.7887 138.491 34.164 130.49Z" fill="white"/>
<path opacity="0.53" d="M107.488 135.277C119.097 113.417 142.901 109.917 114.982 102.63C90.6634 96.2725 96.3943 150.135 65.61 150.85C46.8749 151.278 42.246 159.208 41.5113 165.351C56.132 174.781 73.6181 180.281 92.5002 180.281C98.1574 180.281 103.668 179.781 109.031 178.853C103.227 165.708 100.435 148.564 107.488 135.277Z" fill="white"/>
<path opacity="0.53" d="M79.4958 131.348C77.5855 128.919 74.9405 127.133 72.0751 125.919C64.2137 122.704 46.2135 116.132 44.2298 122.99C41.8052 131.133 90.8838 145.564 79.4958 131.348Z" fill="white"/>
<path opacity="0.48" d="M125.047 22.7648C80.3769 26.2651 56.5723 26.0507 74.94 29.0511C92.6465 31.9799 148.558 31.8371 163.913 33.1944C160.387 29.0511 156.566 25.265 152.378 21.8361C145.987 21.5503 137.17 21.7647 125.047 22.7648Z" fill="white"/>
</g>
<defs>
<linearGradient id="paint0_linear" x1="133.087" y1="129.759" x2="22.3033" y2="15.8193" gradientUnits="userSpaceOnUse">
<stop stop-color="#D8053C"/>
<stop offset="0.2539" stop-color="#E62439"/>
<stop offset="0.561" stop-color="#F44436"/>
<stop offset="0.8208" stop-color="#FC5734"/>
<stop offset="1" stop-color="#FF5E33"/>
</linearGradient>
</defs>
</svg>
