<svg width="251" height="220" viewBox="0 0 251 220" fill="none" xmlns="http://www.w3.org/2000/svg">
<path d="M65.5994 49.4711C65.1588 48.7613 64.0845 48.6888 63.3505 49.0946C62.9777 49.3015 62.6479 49.6076 62.3718 49.954C61.6145 46.9511 58.1369 45.6713 56.4533 45.3157C55.4451 45.1028 54.3708 45.0303 53.4105 45.3951C52.2517 45.8459 51.3894 46.9601 51.1668 48.1902C50.9442 49.4202 49.5781 50.118 50.3686 51.0843C50.6273 51.3953 51.0497 51.6445 51.5615 51.8489C51.2782 52.1229 51.011 52.42 50.7796 52.744C49.7021 54.3172 49.4605 56.4381 50.1444 58.2184L59.9302 58.1095C62.7368 56.8086 64.9055 54.2032 65.6723 51.2018C65.8186 50.6185 65.9048 49.9736 65.5994 49.4711Z" fill="url(#paint0_linear)"/>
<path d="M60.1543 49.6848C59.6733 49.8721 59.3803 50.3678 59.1732 50.8385C58.9562 51.3073 58.7714 51.8227 58.3853 52.1593C57.8428 52.6302 57.0664 52.6523 56.35 52.6242C54.7167 52.5522 53.1056 52.3012 51.5231 51.8928C51.263 52.1506 51.0092 52.4299 50.801 52.7377C50.4821 53.2084 51.6746 53.5259 52.5394 53.4081C54.8441 53.0833 54.5316 54.8662 56.7591 54.182C57.5451 53.9381 57.0196 53.3043 59.058 52.2607C60.5797 51.4894 60.7676 52.6413 61.4742 51.6005C61.694 51.2846 61.851 50.754 62.2253 50.2019C61.953 49.6851 60.6132 49.6764 60.1543 49.6848Z" fill="url(#paint1_linear)"/>
<path d="M65.5994 49.4711C65.4418 49.219 65.2172 49.0564 64.9505 48.9573C65.1475 49.2166 65.2632 49.5322 65.2867 49.8515C65.3337 50.4901 65.0802 51.1048 64.7747 51.6694C64.1486 52.8264 63.3006 53.8619 62.2942 54.7062C61.6354 55.2576 60.8675 55.7386 60.0197 55.8188C59.1718 55.8991 58.3478 55.567 57.5256 55.3369C55.6487 54.8143 53.6416 54.7864 51.7556 55.2682C51.0643 55.4378 50.3616 55.7272 49.7886 56.1418C49.7936 56.8439 49.9185 57.5576 50.1757 58.2139L59.9615 58.1051C62.7681 56.8041 64.9368 54.1987 65.7036 51.1973C65.8186 50.6185 65.9048 49.9736 65.5994 49.4711Z" fill="url(#paint2_linear)"/>
<path d="M49.9423 63.883C48.4263 62.8261 48.0944 60.5607 48.9214 58.9116C49.7483 57.2625 51.4907 56.2263 53.2998 55.8322C55.447 55.3672 58.5392 55.6322 60.4443 56.729C62.3477 57.8357 64.8502 62.2012 60.4873 63.566" fill="url(#paint3_linear)"/>
<g opacity="0.55">
<path opacity="0.55" d="M62.887 61.1447C62.7824 61.2172 62.6518 61.2647 62.5105 61.2594C62.0865 61.2437 61.8612 60.1867 61.5845 59.8622C60.1969 58.2086 58.0151 57.8543 55.8576 57.7586C53.7002 57.6628 51.523 58.5187 49.9956 60.0512C49.7722 60.275 49.471 60.5355 49.1766 60.4212C48.9216 60.3141 48.8426 59.9644 48.9417 59.6978C49.0309 59.4294 49.2409 59.2235 49.4035 58.9989C49.6215 58.6928 49.7697 58.3233 49.7569 57.945C49.7577 57.8842 49.7371 57.8296 49.7264 57.7769C49.4207 58.1179 49.1509 58.4857 48.9446 58.8955C48.1177 60.5446 48.4495 62.8099 49.9655 63.8668L60.5186 63.5615C62.1023 63.0656 62.776 62.151 62.887 61.1447Z" fill="url(#paint4_linear)"/>
</g>
<path d="M61.4271 58.7666C61.4352 58.7783 61.4433 58.7899 61.4531 58.7917C61.445 58.78 61.4289 58.7568 61.4209 58.7452C61.4352 58.7783 61.4513 58.8015 61.4773 58.8266C61.4853 58.8382 61.4952 58.8399 61.4934 58.8498C61.4495 58.8114 61.4853 58.8382 61.4934 58.8498C61.5176 58.8846 61.5417 58.9195 61.5677 58.9445C61.6259 59.016 61.6743 59.0858 61.711 59.1635C61.7047 59.1421 61.6966 59.1305 61.6805 59.1072C61.6949 59.1403 61.7092 59.1734 61.7235 59.2065C61.7316 59.2181 61.7379 59.2396 61.7459 59.2512C61.7746 59.3173 61.8149 59.3755 61.8802 59.4076C61.8543 59.3826 61.8185 59.3558 61.7925 59.3307C61.8104 59.3441 61.8167 59.3656 61.8328 59.3889C61.865 59.4353 61.9008 59.4621 61.9465 59.4907C61.9286 59.4773 61.9187 59.4755 61.9008 59.4621C61.9107 59.4639 61.9187 59.4756 61.9286 59.4773C61.9742 59.5059 62.0216 59.5246 62.0744 59.5139C62.1272 59.5031 62.1638 59.4691 62.1924 59.4235C62.2228 59.368 62.2317 59.3188 62.2325 59.2579C62.228 59.2266 62.2235 59.1953 62.2172 59.1739C62.2101 59.2132 62.203 59.2526 62.1959 59.292C62.2182 59.2249 62.2306 59.156 62.2118 59.0916C62.2037 59.08 62.1975 59.0585 62.1894 59.0469C62.167 59.0022 62.1446 58.9575 62.1204 58.9226C62.0721 58.8529 62.022 58.793 61.962 58.7313C61.936 58.7063 61.9199 58.6831 61.8922 58.6679C61.8564 58.6411 61.8206 58.6143 61.7749 58.5857C61.7472 58.5705 61.7194 58.5553 61.6917 58.5402C61.664 58.525 61.6345 58.5196 61.6166 58.5062C61.5987 58.4928 61.6541 58.5232 61.6362 58.5098C61.6264 58.508 61.6183 58.4964 61.6085 58.4946C61.5333 58.4607 61.4376 58.484 61.3939 58.5574C61.3519 58.6209 61.3555 58.713 61.4271 58.7666Z" fill="url(#paint5_linear)"/>
<path d="M54.6215 56.5593C55.7046 56.4707 56.8128 56.5799 57.8578 56.8706C58.3704 57.0142 58.8777 57.1873 59.3546 57.4159C59.8234 57.6329 60.2762 57.9384 60.7727 58.0588C60.8792 58.0882 60.9551 57.9495 60.8987 57.8682C60.5809 57.4346 60.0601 57.1676 59.5814 56.9489C59.0732 56.7248 58.5382 56.5365 58.0023 56.409C56.8796 56.155 55.7383 56.172 54.6061 56.3634C54.4791 56.3912 54.498 56.5674 54.6215 56.5593Z" fill="url(#paint6_linear)"/>
<path d="M58.8416 99.6091C53.4558 95.677 50.9844 89.9046 49.0179 83.5325C47.0513 77.1603 47.913 67.4587 50.1494 61.1664C50.172 60.2559 52.2344 59.0235 53.1206 58.7875C55.9661 58.0018 60.047 58.6998 61.0107 60.3376C63.5427 70.3791 70.2285 79.3127 79.1439 84.5747" fill="url(#paint7_linear)"/>
<g opacity="0.75">
<path opacity="0.75" d="M70.2891 81.224C67.2558 79.7909 61.4214 80.808 57.1127 83.9509C56.2689 84.5705 55.2987 86.0006 54.3851 85.4897C53.4339 84.9619 52.6204 82.1012 52.2582 81.0702C50.5011 76.0673 49.894 70.6628 50.5016 65.3968C50.7166 63.5353 51.1131 61.6254 52.2272 60.1299C52.6981 59.4936 53.3435 58.96 54.0507 58.5901C53.7359 58.6449 53.4211 58.6997 53.1224 58.7777C52.246 59.0154 50.1737 60.246 50.1512 61.1566C47.9246 67.4507 47.0531 77.1505 49.0196 83.5226C50.9673 89.8304 53.4101 95.5367 58.6841 99.4689C60.681 93.4889 66.7683 86.4709 70.2891 81.224Z" fill="url(#paint8_linear)"/>
</g>
<g opacity="0.75">
<g opacity="0.75">
<path opacity="0.75" d="M62.6432 66.2529C61.831 66.1364 61.0099 66.0691 60.188 66.1744C59.6049 66.2518 58.8993 66.3883 58.49 66.8528C58.0557 67.3433 58.2377 67.9657 58.3661 68.5479C58.56 69.3858 58.8164 70.2147 59.1078 71.0195C59.6313 72.5065 60.2416 74.0194 61.0745 75.3693C61.2868 75.7126 61.5438 76.1453 61.9241 76.3462C62.3616 76.5677 62.9206 76.4554 63.3757 76.3549C64.1806 76.1754 64.9621 75.9002 65.7687 75.7108C66.5342 75.5242 67.2864 75.4672 68.0618 75.3941C68.1441 75.3887 68.1985 75.2563 68.1269 75.2027C67.2463 74.5657 65.7405 75.1366 64.8114 75.3851C64.2025 75.5493 63.5953 75.7036 62.963 75.7721C62.5909 75.8064 62.3145 75.8173 62.0621 75.5277C61.2805 74.6241 60.8082 73.3597 60.3663 72.2635C59.7892 70.8481 59.2639 69.3709 58.9577 67.8623C58.805 67.1334 59.5195 66.9477 60.1196 66.8328C60.9406 66.6765 61.7929 66.6275 62.6256 66.575C62.8098 66.5676 62.832 66.2769 62.6432 66.2529Z" fill="url(#paint9_linear)"/>
</g>
</g>
<g opacity="0.75">
<g opacity="0.75">
<path opacity="0.75" d="M61.9203 64.801C60.5184 64.4049 58.5499 64.5568 57.2625 65.2689C55.6917 66.1431 56.4327 68.8991 56.7459 70.2566C57.2234 72.3349 58.1247 74.3171 59.3434 76.0621C59.8753 76.8291 60.4753 77.6694 61.2807 78.1606C62.0386 78.6332 62.8588 78.6495 63.7111 78.4887C65.5345 78.1277 67.2904 77.1854 69.1695 77.0784C69.4871 77.0647 69.4786 76.6059 69.1951 76.5444C67.9122 76.2207 66.4378 76.899 65.2306 77.2801C64.5403 77.5006 63.8268 77.7373 63.1005 77.8193C62.1355 77.9292 61.391 77.4387 60.7777 76.7282C59.5593 75.3186 58.6206 73.6548 57.9609 71.9095C57.6266 71.0055 57.3486 70.071 57.1645 69.123C56.9894 68.2377 56.6799 67.0841 57.07 66.2198C57.4093 65.4682 58.385 65.2993 59.1139 65.1466C60.0224 64.9554 60.9633 64.8107 61.8847 64.9978C62.0189 65.0424 62.0545 64.8456 61.9203 64.801Z" fill="url(#paint10_linear)"/>
</g>
</g>
<path d="M78.9379 85.3199C75.9611 76.1633 60.1327 82.2008 54.8355 88.3354C48.2532 95.9549 53.0415 97.6854 54.247 96.3589C55.2006 95.3018 59.8348 96.7605 61.2183 96.4723" fill="url(#paint11_linear)"/>
<g opacity="0.55">
<path opacity="0.55" d="M74.6718 88.003C74.9804 86.9715 75.1057 85.8864 74.9197 84.8365C74.6233 83.2179 73.6473 81.8725 72.4836 80.666C71.6311 80.6032 70.7314 80.6334 69.8173 80.7423C69.728 80.8989 69.6468 81.0671 69.5771 81.2273C69.2772 81.986 69.0008 83.064 69.3127 83.9233C66.5531 84.684 63.3451 86.1257 59.2482 89.0528C57.5444 90.2688 53.9103 93.6151 52.8983 93.0864C51.8764 92.5559 53.2504 90.4672 53.3156 90.2757C49.0941 96.2494 53.1532 97.5735 54.2452 96.3687C55.1988 95.3116 59.8331 96.7703 61.2165 96.4821L74.6718 88.003Z" fill="url(#paint12_linear)"/>
</g>
<path d="M68.0716 82.1337C66.4063 82.2387 64.7164 82.9288 63.2089 83.6214C62.4659 83.9646 61.7453 84.3524 61.039 84.7733C60.3426 85.1961 59.53 85.6994 58.992 86.3134C58.9035 86.4092 59.0209 86.6032 59.1451 86.5342C59.8452 86.2036 60.5049 85.7031 61.1665 85.3045C61.9076 84.8594 62.6729 84.4492 63.4508 84.0818C64.1955 83.7288 64.9609 83.4304 65.7326 83.1534C66.5257 82.8701 67.3377 82.6512 68.1165 82.3349C68.2274 82.2838 68.1852 82.1237 68.0716 82.1337Z" fill="url(#paint13_linear)"/>
<path d="M74.5771 83.6973C49.2162 88.8935 40.6024 110.881 43.3315 120.115C46.0508 129.347 50.5886 138.918 57.3769 144.028C64.1572 149.128 75.8839 153.455 84.3687 153.853L96.9333 150.07C108.754 146.803 119.388 123.932 117.572 109.091" fill="url(#paint14_linear)"/>
<g opacity="0.75">
<path opacity="0.75" d="M117.562 109.089C119.378 123.93 108.744 146.802 96.9235 150.068L84.3589 153.851C75.8839 153.455 64.1572 149.128 57.3671 144.027C50.5869 138.928 46.0508 129.347 43.3217 120.113C43.0706 119.254 42.9115 118.28 42.8588 117.224L49.6921 105.86C53.2469 108.566 64.2075 123.527 54.7261 134.25C57.0078 137.59 63.4222 141.566 67.7405 142.693C68.8856 142.992 72.4632 141.698 73.6395 141.881L69.1282 134.184C76.6278 131.771 84.7336 131.287 92.4698 132.789C93.452 132.977 94.4352 133.216 95.3978 133.512C95.4282 133.457 95.4586 133.401 95.4889 133.346C97.3743 129.835 97.719 125.741 98.5182 121.831C99.3156 117.931 100.819 113.833 104.153 111.642C91.4636 108.085 80.4504 98.9167 74.6567 87.0755L79.7189 86.7316L117.562 109.089ZM65.1554 118.74C67.6443 120.653 70.143 122.569 72.632 124.483C74.6036 125.998 76.8257 127.59 79.2978 127.407C82.0363 127.212 84.0953 124.932 85.8494 122.82C87.9931 120.241 90.135 117.671 92.2786 115.092C92.7987 114.465 93.3429 113.76 93.3064 112.951C93.2628 112.069 92.5422 111.39 91.8611 110.829C86.1635 106.15 79.2765 102.932 72.0386 101.54L65.2702 107.998C63.3568 109.867 61.2845 112.277 61.9341 114.864C62.3549 116.525 63.7887 117.699 65.1554 118.74Z" fill="url(#paint15_linear)"/>
</g>
<path d="M74.1154 96.9164C73.0051 96.5935 69.7088 97.2875 68.6725 97.6792C67.0013 98.3219 79.322 123.062 80.8837 123.08C82.4454 123.099 92.2739 111.412 92.0335 110.495C91.7832 109.576 76.2374 97.5444 74.1154 96.9164Z" fill="url(#paint16_linear)"/>
<path d="M87.1745 111.008C85.0014 111.448 73.7569 123.04 75.5076 123.418C77.8845 123.93 79.4876 123.214 80.8909 123.041C82.439 122.854 92.9888 110.495 92.0406 110.455C91.1023 110.418 89.3395 110.556 87.1745 111.008Z" fill="url(#paint17_linear)"/>
<path d="M68.6707 97.6891C66.4976 98.1291 60.4507 108.63 60.4423 110.417C60.4339 112.204 74.463 123.575 76.0229 123.603C77.5846 123.621 87.4131 111.935 87.1727 111.017C86.9242 110.088 70.8456 97.2392 68.6707 97.6891Z" fill="url(#paint18_linear)"/>
<path d="M79.1965 113.649C78.7875 113.382 77.9313 113.003 77.7825 112.59C77.6543 112.232 77.7835 111.686 77.8521 111.251C78.4226 111.131 79.0138 111.065 79.5969 110.988C79.7847 110.961 79.9151 110.801 79.9078 110.617C79.8182 109.259 79.5229 107.915 78.65 106.843C78.5676 106.736 78.3913 106.644 78.2554 106.721C77.9309 106.885 76.3601 107.76 76.3601 107.76L75.2539 106.909C75.2539 106.909 75.3975 106.396 75.4546 106.193C75.5652 105.807 75.6758 105.42 75.7864 105.034C75.8417 104.841 75.6779 104.679 75.5124 104.639C74.4281 104.341 73.3458 104.257 72.2269 104.318C72.0426 104.326 71.9068 104.515 71.9159 104.689C71.9503 105.173 72.0277 105.756 71.9404 106.238C71.9386 106.248 71.9386 106.248 71.9368 106.258C71.7348 106.363 71.5005 106.423 71.2841 106.495C71.0874 106.571 70.8656 106.674 70.6626 106.728C70.2267 106.273 69.9132 105.648 69.4709 105.171C69.3689 105.061 69.173 105.077 69.0586 105.147C67.9375 105.839 67.0975 106.774 66.4159 107.901C66.3436 108.02 66.3867 108.231 66.5057 108.303C66.8556 108.56 67.5338 108.855 67.7971 109.197C68.0263 109.503 67.9176 110.103 67.8724 110.634C67.3018 110.642 66.7294 110.661 66.1579 110.73C65.9701 110.757 65.8396 110.916 65.8469 111.101C65.9202 112.1 66.1302 112.961 66.5531 113.881C66.6248 114.046 66.8073 114.161 66.9942 114.083C68.1449 113.62 68.16 113.481 69.1437 114.279C69.2591 114.371 69.4588 114.671 69.5088 114.619C69.4707 114.998 68.982 115.733 68.865 115.986C68.782 116.164 68.86 116.351 69.0264 116.442C70.0724 117.008 71.0923 117.324 72.2588 117.505C72.3966 117.53 72.5718 117.46 72.6281 117.318C72.7423 117.023 72.9866 116.011 73.2181 115.798C73.3647 115.662 74.4236 115.651 74.5873 115.589C74.8988 115.889 75.2734 116.851 75.3549 117.019C75.4365 117.186 75.611 117.289 75.796 117.22C77.3939 116.646 78.4959 115.555 79.2746 114.059C79.3372 113.939 79.3137 113.731 79.1965 113.649ZM74.214 112.991C72.9855 113.49 71.3475 113.163 70.6757 111.934C69.9833 110.65 70.7289 109.057 72.1016 108.716C73.113 108.462 74.317 108.66 74.9474 109.557C75.7425 110.666 75.327 112.288 74.214 112.991Z" fill="url(#paint19_linear)"/>
<path d="M75.7885 109.963C75.4823 109.521 75.0322 109.257 74.5473 109.129C74.6985 109.247 74.8462 109.386 74.959 109.549C75.7426 110.666 75.327 112.288 74.214 112.991C73.5676 113.25 72.8109 113.276 72.1462 113.074C72.9517 113.677 74.1109 113.785 75.0435 113.405C76.1565 112.702 76.5819 111.082 75.7885 109.963Z" fill="url(#paint20_linear)"/>
<path d="M71.2921 106.507C71.2161 106.534 70.7485 106.703 70.6707 106.74C70.8077 106.938 70.9089 107.108 71.0727 107.27C71.2739 107.225 71.9267 106.988 72.1216 106.921C72.3282 106.847 72.5723 106.789 72.7744 106.684C72.7761 106.674 72.7761 106.674 72.7779 106.664C72.8652 106.182 72.7878 105.599 72.7534 105.115C72.7444 104.941 72.8703 104.75 73.0644 104.744C73.999 104.69 74.8926 104.75 75.7926 104.943C75.7763 104.808 75.6448 104.693 75.5088 104.658C74.4245 104.36 73.3422 104.276 72.2233 104.338C72.0391 104.345 71.9033 104.534 71.9123 104.709C71.9467 105.192 72.0241 105.776 71.9368 106.258C71.935 106.268 71.935 106.268 71.9333 106.277C71.7348 106.363 71.5005 106.423 71.2921 106.507Z" fill="url(#paint21_linear)"/>
<path d="M78.9177 107.216C78.8291 107.089 78.7404 106.961 78.65 106.843C78.5676 106.736 78.3913 106.644 78.2554 106.721C77.7422 106.973 76.3601 107.76 76.3601 107.76C76.9788 108.664 78.1292 107.643 78.9177 107.216Z" fill="url(#paint22_linear)"/>
<path d="M66.6845 111.527C66.6673 111.341 66.8094 111.173 66.9954 111.156C67.5669 111.087 68.1393 111.068 68.71 111.06C68.7552 110.529 68.8638 109.929 68.6346 109.623C68.3714 109.281 67.703 108.987 67.3432 108.729C67.226 108.647 67.1811 108.446 67.2535 108.327C67.9198 107.228 68.7464 106.31 69.8362 105.624C69.7216 105.471 69.607 105.318 69.479 105.183C69.3769 105.073 69.1811 105.088 69.0666 105.159C67.9456 105.85 67.1056 106.786 66.424 107.912C66.3516 108.031 66.3947 108.242 66.5138 108.315C66.8637 108.571 67.5419 108.867 67.8051 109.209C68.0343 109.515 67.9257 110.115 67.8805 110.645C67.3099 110.654 66.7374 110.672 66.166 110.742C65.9782 110.769 65.8477 110.928 65.855 111.112C65.9282 112.111 66.1382 112.972 66.5611 113.892C66.6328 114.058 66.8154 114.172 67.0022 114.094C67.1015 114.051 67.1775 114.024 67.2651 113.989C66.9326 113.187 66.7478 112.412 66.6845 111.527Z" fill="url(#paint23_linear)"/>
<path d="M69.7044 116.402C69.8213 116.149 70.3082 115.424 70.3481 115.035C70.289 114.913 70.0984 114.787 69.9829 114.695C69.4773 114.288 69.2312 114.132 68.9584 114.123C69.0201 114.175 69.0837 114.217 69.1535 114.28C69.2689 114.372 69.4686 114.673 69.5187 114.621C69.4805 115 68.9919 115.735 68.8749 115.988C68.7918 116.166 68.8698 116.353 69.0363 116.444C69.3056 116.584 69.5668 116.713 69.8317 116.822C69.6948 116.736 69.6347 116.563 69.7044 116.402Z" fill="url(#paint24_linear)"/>
<path d="M75.122 115.442C75.0255 115.526 74.607 115.593 74.607 115.593C74.957 115.961 75.3236 116.911 75.3746 117.022C75.4562 117.189 75.6307 117.292 75.8157 117.224C75.9034 117.189 75.991 117.154 76.0688 117.117C75.9012 116.752 75.3378 115.654 75.122 115.442Z" fill="url(#paint25_linear)"/>
<path d="M74.7028 104.452C74.9684 104.5 75.2422 104.559 75.5124 104.639C75.6779 104.679 75.8417 104.841 75.7864 105.034C75.6758 105.42 75.5652 105.807 75.4546 106.193C75.3993 106.387 75.2539 106.909 75.2539 106.909L76.352 107.748C76.352 107.748 77.9211 106.884 78.2474 106.709C78.3019 106.688 78.3547 106.678 78.4039 106.686C78.4924 106.702 78.5837 106.76 78.6419 106.831C79.513 107.914 79.8102 109.248 79.8998 110.606C79.9169 110.792 79.7766 110.949 79.5888 110.976C79.0057 111.053 78.4146 111.119 77.844 111.239C77.7755 111.674 77.6462 112.22 77.7744 112.579C77.9232 112.992 78.7795 113.37 79.1884 113.637C79.3057 113.719 79.3389 113.929 79.2782 114.04C78.4995 115.535 77.3975 116.626 75.7996 117.201C75.7451 117.221 75.6825 117.23 75.6234 117.22C75.5053 117.198 75.4078 117.12 75.3585 116.999C75.277 116.832 74.9041 115.86 74.5908 115.569C74.4272 115.631 73.3664 115.653 73.2216 115.779C72.9902 115.991 72.7459 117.004 72.6316 117.298C72.5754 117.44 72.4001 117.51 72.2624 117.485C72.1541 117.466 72.0459 117.446 71.9377 117.426C70.9044 117.239 69.9749 116.929 69.03 116.423C68.8635 116.331 68.7856 116.145 68.8686 115.967C68.9856 115.713 69.4725 114.988 69.5124 114.599C69.5106 114.609 69.5008 114.607 69.4909 114.606C69.4221 114.593 69.2546 114.339 69.1472 114.259C68.723 113.908 68.4688 113.74 68.2327 113.697C67.9276 113.642 67.6344 113.802 66.9879 114.061C66.9334 114.082 66.8708 114.091 66.8216 114.082C66.7035 114.06 66.6077 113.972 66.5566 113.861C66.1337 112.941 65.922 112.09 65.8505 111.081C65.8334 110.895 65.9754 110.727 66.1615 110.71C66.733 110.641 67.3054 110.623 67.876 110.614C67.9212 110.084 68.0299 109.483 67.8006 109.178C67.5374 108.835 66.869 108.542 66.5093 108.283C66.392 108.201 66.3471 108 66.4195 107.881C67.1011 106.754 67.9393 105.829 69.0621 105.128C69.1417 105.081 69.2374 105.058 69.3358 105.076C69.385 105.085 69.4423 105.105 69.4745 105.152C69.9167 105.628 70.2204 106.252 70.6662 106.709C70.8674 106.664 71.0909 106.552 71.2877 106.476C71.4942 106.401 71.7383 106.344 71.9404 106.238C71.9422 106.228 71.9422 106.228 71.9439 106.218C72.0312 105.736 71.9538 105.153 71.9195 104.669C71.9104 104.495 72.0462 104.306 72.2304 104.299C73.0694 104.268 73.886 104.304 74.7028 104.452ZM72.4754 113.164C73.056 113.269 73.6766 113.209 74.214 112.991C75.327 112.288 75.7524 110.668 74.959 109.549C74.6026 109.047 74.0658 108.757 73.4852 108.652C73.0325 108.57 72.5505 108.594 72.1132 108.708C70.7405 109.049 69.9851 110.64 70.6873 111.926C71.0492 112.621 71.7275 113.029 72.4754 113.164ZM74.758 104.146C73.9511 104 73.1165 103.951 72.2132 104.001C72.0486 104.012 71.8931 104.085 71.7778 104.217C71.6607 104.358 71.5992 104.53 71.6065 104.714L71.6308 104.973C71.6588 105.323 71.6895 105.715 71.6585 106.055C71.5825 106.082 71.4967 106.107 71.4189 106.144C71.3429 106.171 71.2668 106.197 71.1908 106.224C71.1247 106.253 71.0487 106.28 70.9727 106.307C70.9065 106.336 70.8403 106.364 70.776 106.383C70.6256 106.203 70.4805 105.994 70.3354 105.785C70.1519 105.508 69.9584 105.229 69.7185 104.982C69.6326 104.896 69.5216 104.835 69.4036 104.813C69.2363 104.783 69.0565 104.822 68.909 104.907C67.821 105.584 66.9202 106.518 66.1663 107.764C66.0082 108.02 66.0899 108.411 66.3423 108.589C66.4675 108.682 66.634 108.774 66.7986 108.874C67.0939 109.04 67.4232 109.242 67.5638 109.419C67.6784 109.572 67.6412 110.003 67.5985 110.351C67.1495 110.361 66.6478 110.382 66.1389 110.442C65.7847 110.49 65.5256 110.798 65.5536 111.149C65.626 112.209 65.8602 113.105 66.2911 114.037C66.3852 114.247 66.5723 114.392 66.7887 114.432C66.9068 114.453 67.0204 114.443 67.1313 114.392L67.4487 114.266C67.8555 114.096 68.0522 114.02 68.1998 114.047C68.3671 114.077 68.6096 114.253 68.9641 114.541C68.9999 114.568 69.0402 114.626 69.0822 114.674C69.1163 114.711 69.1404 114.745 69.1664 114.77C69.0843 114.999 68.8905 115.34 68.7743 115.533C68.6984 115.672 68.6261 115.791 68.5921 115.866C68.443 116.184 68.5677 116.562 68.8925 116.733C69.8472 117.241 70.8027 117.577 71.895 117.774C72.0032 117.794 72.1213 117.815 72.2296 117.835C72.5265 117.879 72.8296 117.72 72.9385 117.455C72.976 117.36 73.0242 117.206 73.0777 117.023C73.1518 116.782 73.324 116.224 73.433 116.071C73.5617 116.033 73.9338 115.999 74.1511 115.978C74.296 115.963 74.3997 115.951 74.4919 115.948C74.6933 116.238 74.9433 116.822 75.0356 117.042L75.093 117.174C75.1871 117.385 75.3741 117.53 75.5906 117.569C75.6988 117.589 75.8223 117.581 75.9314 117.54C77.5292 116.965 78.7216 115.88 79.5798 114.226C79.7048 113.985 79.6544 113.59 79.3824 113.408C79.2732 113.338 79.1345 113.262 78.9976 113.176C78.6844 112.997 78.1689 112.701 78.0928 112.504C78.0103 112.286 78.0798 111.902 78.1421 111.558L78.1457 111.538C78.5463 111.458 78.9613 111.411 79.3566 111.361L79.658 111.324C80.0121 111.276 80.2596 110.976 80.2433 110.617C80.1274 108.899 79.7042 107.643 78.9155 106.667C78.8071 106.536 78.6523 106.437 78.485 106.406C78.3571 106.383 78.2319 106.401 78.1309 106.454C77.8627 106.588 76.8336 107.164 76.4063 107.392L75.6482 106.808C75.6982 106.644 75.7588 106.421 75.7901 106.305C75.8873 105.936 75.9961 105.56 76.1031 105.193L76.1219 105.145C76.17 104.991 76.1476 104.835 76.0705 104.699C75.9774 104.54 75.8181 104.409 75.6248 104.354C75.3171 104.258 75.0433 104.198 74.758 104.146ZM72.5324 112.849C71.8239 112.721 71.2619 112.345 70.9573 111.782C70.6833 111.275 70.6622 110.661 70.9032 110.115C71.1461 109.56 71.6154 109.157 72.1895 109.017C72.6053 108.909 73.0346 108.895 73.4282 108.967C73.812 109.036 74.347 109.224 74.7034 109.726C75.0096 110.168 75.1219 110.726 75.0087 111.295C74.892 111.884 74.5445 112.4 74.0734 112.701C73.5905 112.898 73.0441 112.942 72.5324 112.849Z" fill="url(#paint26_linear)"/>
<path d="M88.9236 40.7051C85.4668 36.3905 78.7157 38.766 76.6035 40.3857C74.4912 42.0054 73.1818 44.2989 71.9225 46.5404C70.7221 48.6809 69.5065 50.849 68.8688 53.1929C68.241 55.5386 68.2296 58.128 69.379 60.3685C70.5283 62.609 72.9957 64.4174 75.7023 64.511" fill="url(#paint27_linear)"/>
<path d="M88.9236 40.7051C85.4668 36.3905 78.7157 38.766 76.6035 40.3857C74.4912 42.0054 73.1818 44.2989 71.9225 46.5404C70.7221 48.6809 69.5065 50.849 68.8688 53.1929C68.241 55.5386 68.2296 58.128 69.379 60.3685C70.5283 62.609 72.9957 64.4174 75.7023 64.511" fill="url(#paint28_linear)"/>
<path d="M84.4075 38.3125C82.5854 38.1047 80.6958 38.4944 79.1623 39.0501C75.8475 42.3729 73.596 46.6706 72.2255 51.9408C72.0329 52.6681 72.0153 55.3478 71.5158 55.9179C71.0163 56.4881 70.1095 56.7813 69.4893 56.3337C69.0759 56.0353 68.8402 55.4845 68.5099 55.1198C68.3208 56.8945 68.5405 58.7127 69.3825 60.3488C70.5319 62.5894 72.9992 64.3977 75.7058 64.4913L86.0905 45.802C86.3244 43.0497 86.3876 40.3985 84.4075 38.3125Z" fill="url(#paint29_linear)"/>
<path d="M76.9779 79.3047C75.3768 77.0332 70.4634 76.6114 71.5013 82.7239C71.9965 85.6591 75.0104 93.0947 83.1065 98.5031C98.1651 108.566 105.892 110.513 117.592 110.497C122.523 110.485 123.829 109.217 124.276 107.591C124.721 105.974 122.482 103.862 120.837 103.513" fill="url(#paint30_linear)"/>
<g opacity="0.55">
<path opacity="0.55" d="M124.319 107.243C124.316 107.202 124.321 107.172 124.319 107.131C124.313 107.049 124.31 106.957 124.294 106.873C124.292 106.832 124.279 106.789 124.267 106.746C124.251 106.662 124.226 106.576 124.191 106.488C124.179 106.445 124.164 106.412 124.152 106.369C124.103 106.249 124.053 106.128 123.984 106.004C123.915 105.879 123.845 105.765 123.764 105.649C123.74 105.614 123.706 105.577 123.682 105.542C123.625 105.461 123.559 105.378 123.493 105.295C123.459 105.258 123.425 105.221 123.392 105.175C123.326 105.092 123.248 105.017 123.17 104.942C123.136 104.905 123.11 104.88 123.076 104.843C122.403 104.183 121.549 103.683 120.816 103.52L76.9466 79.3092C76.1855 78.2364 74.6787 77.5775 73.424 77.8281C74.2294 80.5653 75.1895 83.2899 76.7477 85.6857C84.5154 97.5691 98.5912 106.773 112.635 108.014C117.786 108.469 116.76 108.913 116.039 108.915C104.339 108.931 96.6267 106.397 81.578 96.3363C78.504 94.286 76.174 91.9435 74.4218 89.665C76.2443 92.566 79.024 95.7927 83.0869 98.4996C98.1454 108.562 105.872 110.51 117.572 110.493C122.503 110.481 123.81 109.214 124.257 107.587C124.306 107.484 124.317 107.365 124.319 107.243Z" fill="url(#paint31_linear)"/>
</g>
<path d="M85.3958 96.8037C83.54 95.8276 81.8922 94.32 80.383 92.8883C78.3189 90.9294 76.446 88.7002 75.0469 86.2112C74.248 84.7861 73.6744 83.351 73.0855 81.8318C72.9108 81.3937 72.3117 81.5596 72.312 82.0068C72.3238 83.4012 72.8483 84.9392 73.4459 86.1856C74.1106 87.5661 74.9954 88.8542 75.9355 90.061C77.6671 92.2849 79.7509 94.3592 82.0849 95.9504C83.0066 96.5847 83.965 97.185 85.0252 97.5598C85.5406 97.7445 85.8871 97.0654 85.3958 96.8037Z" fill="url(#paint32_linear)"/>
<path d="M72.4082 79.2296C72.3036 79.3021 72.2527 79.4149 72.2116 79.5294C72.1893 79.5965 72.1688 79.6538 72.1581 79.7128C72.1528 79.7423 72.1474 79.7718 72.1403 79.8112C72.1296 79.8702 72.1189 79.9293 72.1181 79.9901C72.1127 80.0196 72.1074 80.0491 72.1003 80.0885C72.0923 80.1887 72.096 80.2808 72.1309 80.3684C72.156 80.4543 72.2223 80.5374 72.2939 80.591C72.3297 80.6178 72.3673 80.6348 72.4031 80.6616C72.4684 80.6937 72.5274 80.7044 72.5981 80.707C72.6374 80.7142 72.6884 80.7132 72.7215 80.6989C72.7841 80.6899 72.8386 80.6693 72.8968 80.629C73.0675 80.5278 73.1443 80.3283 73.1387 80.1342C73.1342 80.1029 73.1298 80.0716 73.1351 80.0421C73.1359 79.9812 73.1269 79.9186 73.126 79.8676C73.1241 79.7657 73.1187 79.6834 73.0855 79.5859C73.0461 79.467 73.0165 79.3499 72.9189 79.2712C72.7596 79.1408 72.5592 79.1248 72.4082 79.2296Z" fill="url(#paint33_linear)"/>
<path d="M154.831 43.5489C148.811 33.8009 140.781 25.6098 121.07 23.4547C101.36 21.2897 88.0866 27.4745 79.4967 40.0659C70.905 52.6672 69.6481 70.3358 77.1663 83.4851C84.2672 95.9084 97.9917 103.179 111.912 105.383C119.806 106.629 128.076 106.419 135.568 103.486C146.156 99.3359 154.493 89.7168 157.65 78.5608C160.814 67.4262 160.851 53.297 154.831 43.5489Z" fill="url(#paint34_linear)"/>
<g opacity="0.75">
<path opacity="0.75" d="M154.831 43.5489C153.299 41.0663 151.635 38.692 149.686 36.4897C150.188 37.2513 150.677 38.0309 151.143 38.8265C156.927 48.5319 156.811 62.6469 153.683 73.8083C151.259 82.4853 141.717 87.5365 134.571 92.5438C134.091 94.9672 133.493 96.7592 133.441 98.6707C126.66 102.728 116.936 103.061 109.297 101.861C95.8102 99.7354 82.4669 91.5379 75.6513 79.1662C74.8479 77.7098 74.1571 76.1925 73.5655 74.6322C74.3855 77.7379 75.5819 80.7288 77.1726 83.5065C84.2735 95.9299 97.998 103.2 111.918 105.405C119.812 106.651 128.082 106.44 135.574 103.508C146.163 99.3573 154.499 89.7383 157.656 78.5823C160.814 67.4263 160.851 53.297 154.831 43.5489Z" fill="url(#paint35_linear)"/>
</g>
<path d="M135.807 76.4467C136.684 71.321 136.451 65.6487 133.483 61.6664C130.482 57.6376 125.441 56.2373 120.845 54.623C112.684 51.7637 103.439 46.5235 98.0033 42.3079C82.5103 30.266 75.2931 62.8414 76.3738 69.8967C77.8097 79.313 85.2949 86.8059 90.7674 90.7639C96.24 94.7218 113.506 102.471 123.642 95.9925C129.584 92.19 134.571 83.672 135.807 76.4467Z" fill="url(#paint36_linear)"/>
<g opacity="0.75">
<g opacity="0.75">
<path opacity="0.75" d="M108.798 47.5746C112.84 49.6071 116.998 51.2845 121.218 52.9018C123.347 53.714 125.456 54.5835 127.531 55.5282C129.428 56.3898 131.324 57.3122 133.021 58.5443C134.612 59.696 135.946 61.0857 136.724 62.9035C137.431 64.5558 137.739 66.3391 137.905 68.1171C138.179 70.9817 137.855 73.7788 137.285 76.5923C136.528 80.3271 135.464 84.2401 133.532 87.5591C133.353 87.8723 133.852 88.2064 134.068 87.9102C136.116 85.0187 137.338 81.6323 138.141 78.2105C138.803 75.3934 139.369 72.376 139.185 69.4666C138.955 65.797 138.282 61.9354 135.557 59.2471C132.435 56.1718 127.993 54.5448 123.975 52.9944C121.449 52.0188 118.883 51.1479 116.32 50.2573C113.825 49.389 111.292 48.5037 108.936 47.3151C108.744 47.199 108.612 47.48 108.798 47.5746Z" fill="url(#paint37_linear)"/>
</g>
</g>
<g opacity="0.75">
<g opacity="0.75">
<path opacity="0.75" d="M109.338 99.7855C115.733 101.228 122.714 100.052 127.896 95.8988C128.633 95.3106 129.328 94.6741 129.962 93.9759C130.585 93.2858 131.273 92.5161 131.632 91.6562C131.735 91.4209 131.447 91.1045 131.217 91.3068C130.648 91.8135 130.177 92.4498 129.67 93.0084C129.1 93.6269 128.505 94.2203 127.876 94.7772C126.702 95.8148 125.393 96.7057 124.019 97.443C121.228 98.9398 118.066 99.7902 114.903 99.9188C113.06 99.9918 111.218 99.8412 109.403 99.4822C109.188 99.4332 109.131 99.7481 109.338 99.7855Z" fill="url(#paint38_linear)"/>
</g>
</g>
<g opacity="0.75">
<g opacity="0.75">
<path opacity="0.75" d="M105.346 45.2527C103.513 44.3213 101.883 42.9389 100.3 41.6361C99.2042 40.7264 98.2105 39.7031 97.006 38.9465C94.2498 37.218 90.9126 37.0712 87.9091 38.2248C81.752 40.5757 78.5506 47.0897 76.4552 52.94C75.4324 55.7833 74.6253 58.7266 74.176 61.7144C73.9642 63.109 73.8938 64.5088 73.843 65.9122C73.7882 67.8433 73.805 69.828 74.2242 71.723C74.6183 73.5321 75.4738 75.2622 76.3141 76.9081C77.1624 78.5657 78.1234 80.1624 79.189 81.6866C81.3058 84.7018 83.8312 87.4251 86.6442 89.794C91.8184 94.1654 98.1036 97.6201 104.782 98.9609C105.547 99.1096 106.305 99.2468 107.076 99.366C107.344 99.4043 107.417 99.0008 107.153 98.9429C100.81 97.6018 94.6149 94.7732 89.3955 90.9322C83.6213 86.6757 78.8531 81.016 75.9821 74.4192C75.2222 72.6658 74.7558 70.9757 74.6344 69.0635C74.5212 67.2748 74.5644 65.4635 74.6963 63.6683C74.8963 60.9911 75.5185 58.3395 76.2794 55.7639C77.1902 52.697 78.3765 49.6801 79.9198 46.8802C81.281 44.4132 83.0008 41.9298 85.3724 40.3367C88.2438 38.3971 92.0336 37.4469 95.3324 38.8163C96.4294 39.269 97.4066 39.9336 98.3017 40.7155C99.7212 41.9684 101.181 43.1675 102.788 44.1698C103.574 44.6575 104.375 45.1175 105.204 45.5319C105.389 45.6364 105.522 45.3456 105.346 45.2527Z" fill="url(#paint39_linear)"/>
</g>
</g>
<g opacity="0.51">
<path opacity="0.51" d="M130.546 58.8584C127.708 56.8509 124.16 55.792 120.853 54.6346C112.692 51.7753 103.447 46.5351 98.0114 42.3195C86.1439 33.0984 79.1343 50.0409 76.9916 61.6549C77.8051 63.4485 78.8387 65.1498 80.0554 66.6809C84.8015 72.6314 91.9419 76.3018 99.318 78.1653C104.944 79.5901 110.951 80.037 116.533 78.4459C122.116 76.8547 127.224 73.0029 129.426 67.6292C130.558 64.8564 130.871 61.8339 130.546 58.8584Z" fill="url(#paint40_linear)"/>
</g>
<path d="M93.9426 89.5601C88.47 85.6022 80.9831 78.1191 79.549 68.6929C78.764 63.5408 82.385 44.8265 90.4201 39.7362C80.1747 41.2049 75.4909 64.1068 76.3738 69.8967C77.8097 79.313 85.2948 86.8059 90.7674 90.7639C96.0431 94.5744 112.276 101.913 122.51 96.6311C112.373 99.2983 98.6974 92.9918 93.9426 89.5601Z" fill="url(#paint41_linear)"/>
<g opacity="0.51">
<g opacity="0.51">
<path opacity="0.51" d="M103.234 59.169C105.787 61.4603 109.221 62.5291 112.089 64.3693C111.762 64.1576 111.444 63.9477 111.117 63.736C112.633 64.7321 114.023 65.8678 115.254 67.2084C114.976 66.8938 114.696 66.589 114.417 66.2744C114.958 66.8804 115.5 67.4766 116.043 68.0727C115.764 67.7581 115.476 67.4417 115.196 67.1369C116.115 68.1773 116.907 69.3063 117.548 70.5401C117.352 70.1593 117.157 69.7784 116.962 69.3975C117.454 70.381 117.85 71.3977 118.104 72.46C118.008 72.0362 117.914 71.6024 117.818 71.1786C118.028 72.1515 118.095 73.1291 118.058 74.1183C118.079 73.6648 118.102 73.2015 118.123 72.748C118.074 73.6944 117.946 74.6265 117.749 75.5461C117.474 76.8987 117.26 78.1913 117.282 79.5875C117.301 79.1438 117.322 78.6903 117.342 78.2467C117.256 78.9426 117.171 79.6386 117.096 80.3363C117.011 81.195 116.961 81.9785 117.155 82.8165C117.302 83.463 117.495 84.0264 117.923 84.5815C118.177 84.8612 118.429 85.1508 118.693 85.4323C119.786 86.1891 119.98 86.2953 119.274 85.761C119.986 86.4894 121.543 86.812 122.472 86.3399C122.32 86.3937 122.17 86.4376 122.008 86.4896C122.389 86.4061 122.76 86.3209 123.141 86.2374C123.841 86.0186 124.237 85.6837 124.735 85.2352C125.355 84.6766 125.808 84.0269 126.08 83.253C126.287 82.6706 126.486 82.0765 126.711 81.5075C127.288 80.0572 127.791 78.5729 128.021 77.0191C128.483 73.9625 128.41 70.8294 127.303 67.9055C126.212 65.0048 124.416 62.4643 122.215 60.3078C121.18 59.2871 119.861 58.4895 118.637 57.7293C117.585 57.0817 116.476 56.5253 115.342 56.0558C112.12 54.7104 108.489 53.4942 104.959 53.8512C102.313 54.0939 101.293 57.4256 103.234 59.169Z" fill="url(#paint42_linear)"/>
</g>
</g>
<g opacity="0.51">
<g opacity="0.51">
<path opacity="0.51" d="M114.558 95.7609C115.145 95.8874 115.707 95.8673 116.267 95.6942C116.83 95.6133 117.335 95.4099 117.805 95.058C118.288 94.749 118.667 94.3399 118.94 93.8406C119.298 93.377 119.524 92.859 119.601 92.2633C119.62 91.8804 119.64 91.4878 119.649 91.1032C119.574 90.3376 119.322 89.6518 118.887 89.0242C118.642 88.7462 118.386 88.4763 118.142 88.1984C117.542 87.6935 116.86 87.3666 116.092 87.2277C115.505 87.1012 114.943 87.1213 114.383 87.2944C113.819 87.3753 113.315 87.5788 112.845 87.9307C112.362 88.2396 111.983 88.6487 111.71 89.148C111.352 89.6116 111.126 90.1296 111.049 90.7254C111.03 91.1082 111.01 91.5009 111.001 91.8855C111.076 92.6511 111.328 93.3369 111.763 93.9644C112.007 94.2424 112.263 94.5123 112.508 94.7903C113.098 95.2934 113.78 95.6202 114.558 95.7609Z" fill="url(#paint43_linear)"/>
</g>
</g>
<path d="M151.549 75.2106C148.119 73.6141 145.113 73.2632 143.255 73.872C141.397 74.4808 135.315 88.8269 134.677 91.7298C134.395 93.01 134.727 93.7002 135.253 94.8929C135.83 96.1965 136.636 97.6431 137.98 98.1304C142.587 99.7975 146.407 100.082 150.62 97.5828C153.433 95.9071 155.95 92.1655 156.893 89.0333C157.834 85.911 157.095 77.8099 151.549 75.2106Z" fill="url(#paint44_linear)"/>
<path d="M146.321 79.1118C145.895 76.0165 143.223 75.6752 142.802 76.3204C142.37 76.9639 137.398 87.6491 136.13 91.6777C135.791 92.7647 136.972 94.7163 137.676 95.433C138.355 96.115 139.959 95.3382 140.748 94.7392C145.039 91.4711 146.995 84.0915 146.321 79.1118Z" fill="url(#paint45_linear)"/>
<g opacity="0.55">
<path opacity="0.55" d="M138.72 95.3374C138.014 94.6305 136.823 92.6771 137.174 91.5821C138.441 87.5534 143.424 76.87 143.845 76.2248C143.874 76.1792 143.922 76.1371 143.98 76.0968C143.425 75.9657 142.948 76.0725 142.784 76.307C142.352 76.9505 137.38 87.6357 136.112 91.6643C135.773 92.7513 136.954 94.7029 137.658 95.4196C137.994 95.7548 138.566 95.7365 139.159 95.5491C139.001 95.5206 138.839 95.4608 138.72 95.3374Z" fill="url(#paint46_linear)"/>
</g>
<path d="M142.428 75.8055C140.388 79.5521 138.724 83.5193 137.088 87.4507C136.545 88.7651 135.925 90.1162 135.544 91.4903C135.135 92.9611 135.907 94.0865 136.801 95.2137C136.875 95.3085 137.015 95.2117 136.952 95.1089C136.257 94.0076 135.472 93.0118 135.835 91.6243C135.958 91.1689 136.179 90.7313 136.35 90.2947C136.916 88.8524 137.49 87.4218 138.085 85.9849C139.486 82.5697 140.981 79.1921 142.542 75.8466C142.553 75.7876 142.458 75.75 142.428 75.8055Z" fill="url(#paint47_linear)"/>
<path d="M145.929 96.0428C148.836 94.13 151.246 89.2409 151.718 83.6557C152.033 79.9525 148.417 78.2005 148.556 80.5733C148.889 85.979 145.784 92.5206 142.867 95.2751C141.174 96.8793 143.689 97.5275 145.929 96.0428Z" fill="url(#paint48_linear)"/>
<path opacity="0.55" d="M151.716 83.6655C151.82 82.475 151.541 81.4895 151.112 80.7716C151.259 81.3064 151.321 81.9172 151.261 82.5872C150.789 88.1724 148.381 93.0516 145.474 94.9644C144.356 95.697 143.169 95.909 142.469 95.7316C141.686 96.9719 143.902 97.3628 145.919 96.041C148.836 94.1299 151.254 89.2525 151.716 83.6655Z" fill="url(#paint49_linear)"/>
<path d="M148.027 80.3555C148.124 82.9645 147.317 85.9588 146.444 88.3717C145.514 90.927 143.875 93.7502 141.742 95.4271C141.635 95.5095 141.739 95.7214 141.856 95.6408C144.145 94.165 145.869 91.2657 146.784 88.7382C147.663 86.2957 148.724 82.9613 148.277 80.3195C148.253 80.1729 148.016 80.191 148.027 80.3555Z" fill="url(#paint50_linear)"/>
<path d="M150.909 96.4359C153.189 94.5621 155.185 89.9336 155.713 84.7142C156.066 81.2516 153.352 79.7341 153.391 81.9362C153.477 86.9619 150.912 93.1641 148.583 95.8117C147.246 97.3583 149.143 97.8845 150.909 96.4359Z" fill="url(#paint51_linear)"/>
<path opacity="0.55" d="M155.713 84.7142C155.824 83.5961 155.643 82.6893 155.344 82.0357C155.438 82.5302 155.468 83.0946 155.405 83.7234C154.877 88.9428 152.88 93.5713 150.6 95.4451C149.717 96.1694 148.813 96.392 148.279 96.2547C147.638 97.4394 149.322 97.7341 150.909 96.4359C153.189 94.5621 155.185 89.9336 155.713 84.7142Z" fill="url(#paint52_linear)"/>
<path d="M152.989 81.7415C152.977 84.1681 152.273 86.9879 151.535 89.2728C150.753 91.6822 149.404 94.3647 147.717 95.9904C147.63 96.0763 147.708 96.2632 147.793 96.1871C149.589 94.7438 151.002 91.9914 151.78 89.6018C152.532 87.2989 153.436 84.1597 153.179 81.7047C153.174 81.5616 152.996 81.5904 152.989 81.7415Z" fill="url(#paint53_linear)"/>
<g opacity="0.75">
<path opacity="0.75" d="M148.22 76.3662C150.109 79.6857 151.637 83.2041 152.788 86.8372C152.788 86.8372 152.571 87.5905 152.456 88.0575C152.757 89.0876 153.196 90.0309 153.592 90.9867L154.103 91.4756C154.322 92.0639 154.379 93.1515 154.495 93.8026C154.988 93.0991 155.436 92.3671 155.824 91.6245C155.672 90.3876 155.597 88.555 155.314 87.4264L154.888 87.0851C154.442 85.4495 153.912 83.8293 153.405 82.0811C153.405 82.0811 153.672 81.2249 153.628 81.0746C153.164 79.4865 152.635 77.9172 152.041 76.3667L148.22 76.3662Z" fill="url(#paint54_linear)"/>
</g>
<path d="M124.611 120.731C125.699 115.958 124.77 108.737 117.469 108.31C113.065 108.051 109.139 110.034 105.788 115.017C103.491 118.443 102.24 123.165 102.614 127.277C102.977 131.388 105.853 135.486 109.924 136.131C113.154 136.644 116.415 134.908 118.595 132.467C120.774 130.026 122.065 126.936 123.322 123.922" fill="url(#paint55_linear)"/>
<g opacity="0.55">
<path opacity="0.55" d="M124.791 119.849C124.845 119.553 124.88 119.245 124.916 118.936C124.916 118.936 124.916 118.936 124.918 118.926C124.981 118.298 125.016 117.654 125 117.01C123.675 111.08 123.195 114.966 121.974 113.627C117.392 108.57 110.791 113.036 107.309 119.357C106.172 121.428 105.193 125.661 105.589 127.907C105.985 130.154 106.541 131.687 105.484 131.913C104.439 132.13 102.917 128.745 102.563 125.703C102.559 126.231 102.575 126.762 102.623 127.279C102.987 131.39 105.863 135.488 109.933 136.133C111.277 136.345 112.619 136.172 113.89 135.721C114.997 135.332 116.041 134.728 116.987 133.995C117.012 133.969 117.045 133.955 117.07 133.929C117.213 133.812 117.368 133.688 117.503 133.56C117.539 133.526 117.588 133.484 117.624 133.45C117.757 133.331 117.881 133.212 118.004 133.092C118.043 133.048 118.091 133.006 118.127 132.972C118.289 132.808 118.441 132.642 118.593 132.477C120.773 130.036 122.064 126.946 123.321 123.932L124.598 120.749C124.659 120.465 124.721 120.181 124.764 119.884C124.79 119.858 124.791 119.849 124.791 119.849Z" fill="url(#paint56_linear)"/>
</g>
<path d="M118.408 109.638C115.682 108.921 112.99 109.867 110.701 111.343C109.47 112.137 108.378 113.118 107.497 114.279C106.671 115.36 105.899 116.704 105.587 118.039C105.532 118.283 105.873 118.365 105.989 118.173C106.306 117.6 106.576 117.009 106.909 116.46C107.267 115.884 107.689 115.351 108.129 114.831C108.986 113.797 109.999 112.862 111.119 112.12C112.158 111.434 113.271 110.843 114.471 110.501C115.736 110.141 117.015 110.088 118.32 110.181C118.653 110.191 118.737 109.729 118.408 109.638Z" fill="url(#paint57_linear)"/>
<path d="M119.392 110.487C119.562 110.559 119.739 110.652 119.922 110.705C119.999 110.729 120.074 110.763 120.153 110.777C120.192 110.785 120.233 110.782 120.273 110.789C120.324 110.788 120.363 110.795 120.416 110.784C120.47 110.764 120.53 110.714 120.549 110.666C120.677 110.405 120.302 110.235 120.125 110.142C120.052 110.099 119.975 110.075 119.9 110.041C119.815 110.005 119.74 109.971 119.655 109.935C119.503 109.877 119.311 109.924 119.243 110.074C119.185 110.226 119.242 110.42 119.392 110.487Z" fill="url(#paint58_linear)"/>
<path d="M145.084 132.77C139.643 136.947 134.326 138.586 127.47 138.341C120.615 138.097 113.341 137.745 109.247 132.624C106.954 129.069 107.94 122.5 109.454 119.745C112.938 113.415 118.815 111.43 121.289 113.371C126.006 117.07 135.719 123.087 145.125 123.001" fill="url(#paint59_linear)"/>
<g opacity="0.75">
<g opacity="0.75">
<path opacity="0.75" d="M124.294 116.141C122.551 116.618 121.039 118.011 120.534 119.789C120.346 120.436 120.383 121.185 120.624 121.818C120.957 122.671 121.63 123.108 122.428 123.476C124.297 124.322 126.302 124.919 128.302 125.382C129.17 125.58 130.043 125.758 130.931 125.848C131.44 125.9 131.978 125.956 132.478 125.833C133.255 125.639 133.724 124.9 134.142 124.275C134.74 123.387 135.377 122.618 136.152 121.874C136.214 121.814 136.147 121.68 136.063 121.696C134.595 121.999 133.995 123.74 133.1 124.757C132.704 125.204 132.38 125.308 131.807 125.275C131.175 125.232 130.537 125.106 129.907 124.992C128.128 124.66 126.364 124.188 124.654 123.584C123.183 123.064 121.209 122.574 121.119 120.708C121.087 119.879 121.516 119.134 121.971 118.474C122.578 117.588 123.429 116.929 124.406 116.476C124.608 116.37 124.507 116.088 124.294 116.141Z" fill="url(#paint60_linear)"/>
</g>
</g>
<g opacity="0.75">
<g opacity="0.75">
<path opacity="0.75" d="M123.274 115.489C121.429 115.795 120.047 117.313 119.029 118.785C118.505 119.544 117.889 120.418 117.694 121.328C117.48 122.346 118.04 123.179 118.828 123.769C120.842 125.272 123.435 126.219 125.836 126.877C127.173 127.241 128.539 127.498 129.924 127.648C131.051 127.77 132.267 127.899 133.376 127.612C135.968 126.933 135.679 123.984 137.293 122.365C137.518 122.132 137.179 121.816 136.929 121.964C135.367 122.901 135.491 124.966 134.331 126.209C133.612 126.984 132.501 127.057 131.511 127.02C130.299 126.984 129.078 126.824 127.887 126.608C125.566 126.178 123.315 125.425 121.198 124.371C120.294 123.923 119.069 123.447 118.484 122.579C117.843 121.63 118.566 120.5 119.066 119.646C120.007 118.038 121.407 116.147 123.315 115.709C123.444 115.672 123.399 115.471 123.274 115.489Z" fill="url(#paint61_linear)"/>
</g>
</g>
<g opacity="0.75">
<path opacity="0.75" d="M127.461 138.34C134.317 138.585 139.642 136.957 145.075 132.768L145.077 132.138C144.666 132.216 141.407 122.317 141.027 122.452C137.906 123.584 136.094 127.697 136.604 132.403C133.415 135.424 126.197 134.595 122.345 133.644C119.845 133.028 117.375 132.134 115.266 130.645C113.158 129.155 111.438 127.035 110.78 124.548C110.141 122.126 110.545 119.618 111.172 117.16C110.557 117.923 109.966 118.771 109.438 119.722C107.924 122.476 106.938 129.046 109.231 132.601C113.341 137.745 120.615 138.096 127.461 138.34Z" fill="url(#paint62_linear)"/>
</g>
<path d="M148.226 125.686C147.051 122.018 144.762 121.299 143.205 121.535C141.648 121.772 140.583 122.829 140.255 123.461C138.661 126.597 138.62 130.248 140.768 133.543C141.331 134.417 142.808 135.467 143.958 135.625C145.297 135.806 146.774 134.833 147.357 133.913C148.703 131.809 149.197 128.687 148.226 125.686ZM146.172 131.533C145.818 132.14 145.046 132.59 144.299 132.505C143.652 132.429 143.197 131.859 142.898 131.317C141.768 129.253 141.669 126.765 142.64 124.715C142.836 124.304 143.084 123.891 143.469 123.615C143.854 123.34 146.301 123.244 146.846 126.239C147.205 128.184 146.972 130.144 146.172 131.533Z" fill="url(#paint63_linear)"/>
<g opacity="0.55">
<g opacity="0.55">
<path opacity="0.55" d="M140.332 132.804C140.47 133.052 140.608 133.301 140.778 133.545C141.341 134.419 142.817 135.469 143.968 135.626C145.307 135.808 146.784 134.835 147.367 133.914C148.705 131.799 149.197 128.687 148.228 125.676C147.053 122.008 144.764 121.289 143.207 121.525C142.82 121.587 142.465 121.696 142.134 121.839C142.158 121.874 142.182 121.909 142.218 121.936C142.352 122.041 142.521 122.062 142.69 122.082C143.187 122.142 144.353 121.54 144.182 122.261C141.574 122.744 141.057 125.77 140.834 128.067C140.752 128.916 140.948 130.527 141.878 131.955C142.819 133.386 143.733 133.724 143.571 134C143.446 134.241 143.066 135.443 140.332 132.804ZM142.898 131.317C141.768 129.253 141.669 126.765 142.64 124.715C142.836 124.304 143.084 123.891 143.469 123.615C143.854 123.34 146.301 123.244 146.846 126.239C147.195 128.182 146.971 130.154 146.16 131.541C145.807 132.148 145.034 132.598 144.287 132.513C143.652 132.429 143.197 131.859 142.898 131.317Z" fill="url(#paint64_linear)"/>
</g>
</g>
<path d="M141.187 123.141C140.605 123.829 140.177 124.625 139.91 125.481C139.771 125.913 139.657 126.371 139.626 126.822C139.595 127.223 139.531 127.74 139.676 128.122C139.738 128.286 139.957 128.254 139.995 128.098C140.042 127.894 140.021 127.676 140.038 127.466C140.056 127.256 140.085 127.037 140.113 126.829C140.174 126.434 140.236 126.038 140.346 125.652C140.577 124.83 140.961 124.056 141.434 123.349C141.545 123.186 141.317 122.982 141.187 123.141Z" fill="url(#paint65_linear)"/>
<path d="M159.621 130.614C158.111 131.265 155.784 130.478 154.897 130.775C153.684 131.186 153.494 131.954 152.815 132.675C152.615 132.882 152.373 133.093 152.042 133.297C151.266 133.766 150.479 134.071 149.66 134.218C149.079 134.336 148.484 134.37 147.85 134.337C147.557 134.325 147.266 134.303 146.951 134.246C146.487 134.172 146.068 134.075 145.693 133.957C144.591 133.585 143.808 132.915 142.898 131.317C142.26 130.185 142.012 128.463 142.172 127.242C142.426 125.164 143.033 123.049 143.532 122.316C144.796 120.441 145.048 119.887 146.741 118.395C147.019 118.15 150.187 116.315 150.549 116.279C151.934 116.093 152.083 117.908 151.457 118.954C150.591 120.372 149.325 120.966 149.036 121.94C150.31 121.419 151.468 121.029 152.559 120.84C153.399 120.687 154.187 120.657 154.952 120.755C155.477 120.83 155.98 120.971 156.482 121.174C157.087 121.426 157.674 121.776 158.267 122.259C158.755 122.653 159.246 123.138 159.741 123.715C161.918 126.233 161.141 129.964 159.621 130.614Z" fill="url(#paint66_linear)"/>
<g opacity="0.75">
<path opacity="0.75" d="M150.439 126.208C150.352 125.339 148.596 122.633 149.772 121.636C149.533 121.725 149.291 121.824 149.05 121.922C149.326 120.956 150.592 120.362 151.459 118.944C151.821 118.349 151.925 117.494 151.686 116.902C151.462 118.141 150.795 119.301 149.833 120.123C149.377 120.508 148.861 120.831 148.529 121.32C148.223 121.773 148.153 122.441 148.498 122.839C148.523 124.327 148.293 126.44 147.791 127.64C147.574 128.169 147.315 128.813 147.659 129.272C147.888 129.578 148.327 129.678 148.692 129.571C149.055 129.474 149.368 129.205 149.613 128.915C150.224 128.181 150.537 127.181 150.439 126.208Z" fill="url(#paint67_linear)"/>
</g>
<g opacity="0.75">
<path opacity="0.75" d="M160.58 125.036C160.672 125.987 160.713 126.94 160.447 127.847C160.117 128.996 159.175 130.046 157.988 130.146C157.937 130.147 157.876 130.146 157.815 130.145C157.728 130.068 157.64 129.991 157.562 129.916C157.011 129.369 156.591 128.714 156.099 128.117C155.215 127.052 154.116 126.162 152.861 125.569C153.817 126.972 155.546 128.088 155.728 129.777C155.73 129.818 155.743 129.861 155.746 129.902C154.111 129.891 152.756 131.15 151.303 131.934C149.364 132.985 146.869 133.184 144.986 132.02C144.328 131.616 143.768 131.058 143.125 130.626C142.907 130.485 142.677 130.352 142.458 130.211C142.577 130.619 142.722 131 142.916 131.33C144.134 133.472 145.132 133.967 146.969 134.259C148.815 134.563 150.445 134.258 152.05 133.309C153.484 132.461 153.334 131.326 154.905 130.787C155.164 130.702 155.539 130.708 155.971 130.736C156.222 130.751 156.501 130.781 156.79 130.813C156.949 130.832 157.1 130.839 157.261 130.848C157.332 130.85 157.401 130.863 157.472 130.865C157.684 130.873 157.906 130.883 158.119 130.881C158.151 130.876 158.18 130.882 158.211 130.877C158.721 130.868 159.21 130.804 159.64 130.618C160.888 130.071 161.639 127.382 160.58 125.036Z" fill="url(#paint68_linear)"/>
</g>
<g opacity="0.19">
<path opacity="0.19" d="M176.526 27.3336C175.885 26.3842 175.042 25.5915 173.053 25.4652C171.065 25.329 169.764 26.008 168.96 27.3056C168.156 28.6032 168.098 30.3813 168.912 31.6669C169.678 32.8827 171.081 33.5533 172.484 33.7158C173.281 33.8091 174.103 33.7548 174.845 33.4215C175.893 32.9609 176.683 31.9657 176.951 30.8251C177.226 29.6961 177.177 28.2847 176.526 27.3336Z" fill="url(#paint69_linear)"/>
</g>
<path d="M172.34 28.954C172.34 28.954 156.391 62.6115 148.46 75.434C148.46 75.434 147.505 76.9481 149.78 78.0814C151.617 78.9931 152.325 78.3387 152.325 78.3387C152.325 78.3387 172.847 30.9258 173.546 29.6498C174.234 28.372 172.34 28.954 172.34 28.954Z" fill="url(#paint70_linear)"/>
<path d="M175.16 28.1432C174.75 27.5407 174.212 27.0367 172.947 26.95C171.682 26.8634 170.841 27.3005 170.326 28.122C169.81 28.9533 169.778 30.0857 170.299 30.9118C170.788 31.6913 171.686 32.1181 172.582 32.2194C173.09 32.2807 173.625 32.2454 174.089 32.0348C174.753 31.7382 175.265 31.0992 175.436 30.3782C175.607 29.6571 175.569 28.7457 175.16 28.1432Z" fill="url(#paint71_linear)"/>
<path d="M172.922 27.8194C172.793 27.6335 172.619 27.47 172.228 27.4399C171.827 27.408 171.567 27.554 171.409 27.8099C171.249 28.0757 171.236 28.429 171.404 28.6829C171.553 28.9233 171.842 29.0671 172.121 29.0973C172.28 29.116 172.445 29.1051 172.599 29.0415C172.809 28.9474 172.966 28.7523 173.019 28.5179C173.07 28.2934 173.06 28.0072 172.922 27.8194Z" fill="white"/>
<path d="M170.946 28.7423C170.66 28.8024 170.498 29.1389 170.44 29.4028C170.38 29.6765 170.417 29.9779 170.522 30.2408C170.619 30.492 170.747 30.7388 170.923 30.9435C171.006 31.0498 171.117 31.1615 171.248 31.2258C171.286 31.2428 171.335 31.2517 171.376 31.249C171.366 31.2472 171.347 31.2437 171.337 31.2419C171.348 31.2338 171.432 31.2794 171.441 31.2812C171.508 31.3035 171.579 31.3061 171.652 31.2989C171.826 31.2898 171.836 31.068 171.707 30.9938C171.669 30.9769 171.643 30.9518 171.607 30.925C171.572 30.8982 171.557 30.8652 171.588 30.9215C171.565 30.8768 171.541 30.8419 171.507 30.8053C171.439 30.732 171.387 30.6819 171.321 30.5988C171.2 30.4245 171.117 30.2671 171.029 30.0785C170.949 29.9014 170.903 29.7101 170.915 29.5294C170.921 29.4391 170.947 29.3523 170.973 29.2655C171.012 29.1608 171.089 29.0731 171.12 28.9568C171.159 28.8521 171.051 28.7207 170.946 28.7423Z" fill="white"/>
<path d="M169.873 34.8387C169.986 34.6051 170.329 34.7891 170.225 35.0244C168.995 37.7793 167.727 40.5173 166.405 43.215C164.248 47.6111 162.371 52.2001 160.017 56.4997C159.924 56.6759 159.665 56.5375 159.738 56.3577C161.595 51.8259 163.941 47.4539 165.968 42.9936C167.216 40.2521 168.522 37.5311 169.873 34.8387ZM159.273 57.2999C158.857 57.9666 158.594 58.6913 158.28 59.4169C158.015 60.0396 157.487 60.7672 157.395 61.4417C157.378 61.5911 157.551 61.7036 157.664 61.5819C158.135 61.0574 158.36 60.1529 158.676 59.5293C159.024 58.8403 159.389 58.1745 159.634 57.4364C159.716 57.2074 159.387 57.1173 159.273 57.2999Z" fill="url(#paint72_linear)"/>
<path d="M55.2347 178.772C53.8722 180.629 52.0196 183.79 52.4261 186.597C52.7886 189.143 53.3866 189.769 55.6365 190.308C57.8846 190.858 64.3098 188.149 65.2015 182.436" fill="url(#paint73_linear)"/>
<g opacity="0.55">
<path opacity="0.55" d="M55.2151 180.06C55.1759 181.343 57.6259 183.809 59.1395 184.093C59.5528 184.168 59.748 185.616 58.6426 186.838C58.2118 187.309 57.7795 188.013 57.2288 188.361C55.0958 189.702 53.6134 189.302 53.3745 189.218C53.3808 189.24 53.3871 189.261 53.3933 189.283C53.8633 189.774 54.5648 190.053 55.6266 190.307C57.8748 190.856 64.3 188.147 65.1917 182.434L56.6616 180.321L55.2151 180.06Z" fill="url(#paint74_linear)"/>
</g>
<path d="M99.2543 144.322C94.9413 135.248 84.1794 131.654 75.1384 131.522C70.1313 131.449 62.7885 134.287 63.2622 142.787C63.5207 147.366 66.2257 149.827 68.9982 151.803C76.0493 156.808 84.6437 159.97 93.5514 158.93C98.4739 158.347 102.157 150.406 99.2543 144.322Z" fill="url(#paint75_linear)"/>
<g opacity="0.55">
<path opacity="0.55" d="M99.2543 144.322C97.2797 140.184 93.9688 137.196 90.0925 135.143C96.2173 140.439 96.9959 144.391 97.1145 146.15C97.2739 148.638 96.7729 148.486 93.0091 144.014C89.2553 139.544 82.3092 133.958 72.7797 135.963C68.8172 136.8 65.7796 141.118 63.7482 145.436C64.687 148.39 66.8199 150.25 69.008 151.804C76.0592 156.81 84.6536 159.971 93.5612 158.931C98.4738 158.347 102.157 150.406 99.2543 144.322Z" fill="url(#paint76_linear)"/>
</g>
<path d="M69.7479 135.14C75.1267 133.664 80.9149 134.193 86.1407 136.034C86.5988 136.198 87.0969 136.085 87.3237 135.618C87.5166 135.226 87.3578 134.587 86.9078 134.435C83.933 133.408 80.8637 132.792 77.7233 132.681C74.8441 132.587 71.856 132.869 69.2722 134.23C68.7224 134.517 69.2131 135.287 69.7479 135.14Z" fill="url(#paint77_linear)"/>
<path d="M66.6075 137.386C66.6781 137.277 66.7648 137.191 66.8434 137.094C66.9238 136.986 67.0123 136.89 67.1089 136.806C67.0606 136.848 67.0123 136.89 66.9641 136.933C67.1223 136.788 67.3082 136.659 67.4986 136.562C67.4423 136.592 67.3761 136.621 67.3198 136.651C67.4092 136.607 67.4986 136.562 67.588 136.517C67.6774 136.472 67.749 136.414 67.8303 136.358C68.0958 136.182 68.2261 135.799 68.1069 135.503C68.0576 135.383 67.9851 135.278 67.8974 135.201C67.7497 135.063 67.543 135.025 67.3489 135.031C67.2157 135.037 67.061 135.05 66.9304 135.097C66.7981 135.155 66.6738 135.224 66.5594 135.294C66.3752 135.413 66.2072 135.556 66.0553 135.721C65.915 135.879 65.789 136.069 65.6845 136.254C65.58 136.438 65.5292 136.663 65.5016 136.871C65.4732 137.14 65.5826 137.434 65.8474 137.543C65.9521 137.583 66.0603 137.602 66.1721 137.602C66.3251 137.599 66.5352 137.505 66.6075 137.386Z" fill="url(#paint78_linear)"/>
<path d="M72.0839 137.056C67.0857 138.113 63.558 144.69 61.6632 149.825C60.7814 152.226 58.2576 157.074 57.8213 159.597C56.6088 166.745 56.0874 170.187 55.8576 177.015L59.3914 181.466L64.2584 183.099C71.9397 178.503 71.3974 169.147 79.5608 165.706C85.4915 163.202 93.2672 161.51 94.5193 153.414C96.04 143.608 84.6261 134.408 72.0839 137.056Z" fill="url(#paint79_linear)"/>
<g opacity="0.55">
<path opacity="0.55" d="M94.5291 153.415C95.3584 148.047 92.3213 142.874 87.3458 139.707L82.2251 137.398C82.0221 137.341 81.8172 137.294 81.6141 137.237C84.9333 139.392 86.8186 143.687 85.9424 147.573C85.1171 151.234 83.1567 153.755 80.3063 156.197C77.4559 158.638 73.9544 158.838 72.2424 162.176C71.0002 164.604 71.5549 167.042 70.5758 169.588C66.909 179.066 61.0639 180.143 60.0741 181.681L64.2799 183.092C71.9612 178.497 71.4189 169.141 79.5822 165.7C85.4897 163.212 93.2672 161.51 94.5291 153.415Z" fill="url(#paint80_linear)"/>
</g>
<path d="M67.2798 180.78C65.4582 181.243 62.3219 180.716 60.2908 179.81C58.2696 178.905 56.5103 176.778 55.9719 174.587C54.9179 174.122 53.6324 174.936 53.534 176.097C53.4339 177.268 53.6049 178.569 54.3372 179.464C56.7465 182.379 60.2962 184.272 64.0316 184.633C65.13 184.74 65.8301 184.41 66.7867 183.841C67.7433 183.272 67.6795 181.828 67.2798 180.78Z" fill="url(#paint81_linear)"/>
<g opacity="0.55">
<path opacity="0.55" d="M67.2798 180.78C65.4582 181.243 62.3219 180.716 60.2908 179.81C58.8154 179.146 57.487 177.839 56.663 176.328C56.9158 177.065 57.3698 177.756 57.8711 178.355C58.6411 179.267 59.9421 179.94 60.6772 180.875C60.8177 181.053 61.6439 181.823 61.3674 182.789C61.2015 183.369 59.9839 182.965 59.6537 182.824C57.9152 182.042 56.0985 180.738 54.7459 179.395C54.4541 179.099 54.0675 178.764 53.8013 178.157C53.7888 178.114 53.7146 178.131 53.677 178.114C53.8098 178.616 54.0185 179.091 54.3435 179.485C56.7527 182.401 60.3024 184.293 64.0379 184.654C65.1363 184.762 65.8364 184.431 66.793 183.862C67.7495 183.294 67.6795 181.828 67.2798 180.78Z" fill="url(#paint82_linear)"/>
</g>
<path d="M55.3638 176.936C55.2128 177.153 55.1262 177.35 55.1569 177.63C55.1695 177.785 55.2099 177.955 55.2556 178.095C55.3166 178.32 55.4188 178.542 55.5245 178.744C55.8013 179.292 56.1862 179.747 56.6141 180.191C56.9642 180.559 57.3508 180.893 57.7607 181.211C58.0015 181.397 58.2556 181.565 58.5133 181.713C58.8363 181.894 59.1547 181.819 59.4874 181.778C59.8416 181.73 60.0864 181.388 59.9582 181.03C59.8587 180.737 59.8021 180.432 59.555 180.225C59.3877 180.083 59.1971 179.957 59.0261 179.835C58.6323 179.54 58.2386 179.245 57.8832 178.906C57.7955 178.829 57.7194 178.745 57.6415 178.669C57.6075 178.633 57.5591 178.563 57.5135 178.535C57.6665 178.644 57.5556 178.583 57.5054 178.523C57.3533 178.353 57.2243 178.167 57.0855 177.979C56.9709 177.827 56.7847 177.62 56.7264 177.437C56.7873 177.549 56.7873 177.549 56.7282 177.427C56.7058 177.382 56.6834 177.338 56.6512 177.291C56.5742 177.155 56.7166 177.435 56.6431 177.279C56.5347 177.036 56.4067 176.901 56.1749 176.778C55.9271 176.632 55.53 176.692 55.3638 176.936Z" fill="url(#paint83_linear)"/>
<path d="M54.6462 176.522C54.7347 176.538 54.817 176.532 54.9028 176.507C54.9869 176.492 55.0629 176.465 55.1326 176.417C55.2024 176.368 55.264 176.308 55.298 176.233C55.3516 176.161 55.3855 176.086 55.4015 175.998C55.4024 175.937 55.4014 175.886 55.4121 175.827C55.4022 175.713 55.3592 175.614 55.2947 175.521C55.2607 175.485 55.2186 175.436 55.1846 175.4C55.0969 175.323 54.994 175.274 54.8759 175.252C54.7873 175.236 54.7051 175.242 54.6192 175.267C54.5352 175.282 54.4591 175.309 54.3894 175.357C54.3197 175.406 54.258 175.466 54.2241 175.541C54.1705 175.612 54.1366 175.688 54.1205 175.776C54.1197 175.837 54.1206 175.888 54.1099 175.947C54.1199 176.061 54.1629 176.16 54.2273 176.253C54.2614 176.289 54.3034 176.338 54.3375 176.374C54.435 176.453 54.5281 176.5 54.6462 176.522Z" fill="url(#paint84_linear)"/>
<g opacity="0.55">
<path opacity="0.55" d="M70.5528 160.956C70.8875 155.569 64.7389 154.111 63.3582 154.44C58.2127 155.694 55.8403 163.13 59.1929 166.898C61.4641 169.453 65.5805 169.731 67.8792 167.474C69.4494 165.929 70.4185 163.045 70.5528 160.956Z" fill="url(#paint85_linear)"/>
</g>
<path d="M69.9553 159.821C70.29 154.435 64.1415 152.976 62.7607 153.306C57.6152 154.559 55.2428 161.996 58.5954 165.763C60.8666 168.318 64.983 168.596 67.2817 166.339C68.852 164.794 69.8192 161.921 69.9553 159.821Z" fill="url(#paint86_linear)"/>
<g opacity="0.55">
<g opacity="0.55">
<path opacity="0.55" d="M63.8862 155.847C61.9079 154.93 60.1628 156.037 59.0559 157.716C57.8097 159.605 57.7251 162.262 59.0306 164.145C60.3604 166.062 62.8939 166.663 64.9815 165.628C66.556 164.846 67.5323 163.214 67.8485 161.523C68.1504 159.911 67.8812 157.637 66.2571 156.784C66.0907 156.693 65.9442 156.941 66.0758 157.056C68.3536 159.013 67.7575 162.98 65.5247 164.761C63.9702 165.994 61.6349 166.039 60.1125 164.737C58.4584 163.32 58.0441 160.836 58.81 158.851C59.1956 157.843 59.9264 156.837 60.8212 156.217C61.7509 155.572 62.8036 155.539 63.8219 155.977C63.9149 156.025 63.981 155.884 63.8862 155.847Z" fill="url(#paint87_linear)"/>
</g>
</g>
<path d="M14.493 133.126C12.4008 134.018 9.27913 135.038 8.0683 137.573C6.9691 139.884 7.10748 140.692 8.58719 142.23C10.0651 143.778 16.6184 144.629 20.4341 140.279" fill="url(#paint88_linear)"/>
<g opacity="0.55">
<path opacity="0.55" d="M13.3964 134.188C13.3617 135.615 13.7051 137.76 14.747 138.741C15.0245 139.005 14.3914 140.313 12.8605 140.798C12.2677 140.986 11.539 141.362 10.9138 141.391C8.49893 141.482 7.55179 140.427 7.40138 140.247C7.39782 140.267 7.38441 140.285 7.38085 140.304C7.48869 140.944 7.88358 141.513 8.58539 142.24C10.0633 143.788 16.6166 144.639 20.4323 140.289L14.8437 134.389L13.3964 134.188Z" fill="url(#paint89_linear)"/>
</g>
<path d="M48.4294 103.964C54.478 109.063 56.9216 115.776 56.914 123.061C56.9055 127.094 54.6491 132.935 48.1631 132.33C44.6656 132.002 42.8258 129.759 41.3517 127.459C37.6182 121.641 36.3735 114.201 37.2802 107.058C37.7922 103.106 44.622 100.745 48.4294 103.964Z" fill="url(#paint90_linear)"/>
<g opacity="0.25">
<path opacity="0.25" d="M54.387 111.475C55.2096 114.511 55.3362 116.281 55.6836 119.078C55.744 119.587 55.4839 121.024 55.0253 121.256C54.6694 121.425 54.2283 121.223 54.0027 120.898C53.777 120.572 53.7168 120.175 53.6548 119.788C53.2734 117.178 52.8546 114.552 51.8741 112.108C50.8937 109.664 49.2729 107.389 46.9893 106.082C44.7057 104.774 41.6815 104.582 39.4716 106.012L37.0295 110.072C36.7741 116.255 38.1296 122.466 41.3401 127.467C42.8142 129.767 44.654 132.01 48.1515 132.338C54.6357 132.953 56.8939 127.102 56.9023 123.069C56.9268 118.947 56.1527 115.027 54.387 111.475Z" fill="url(#paint91_linear)"/>
</g>
<path d="M41.0328 104.292C41.1348 104.29 41.2251 104.297 41.3271 104.295C41.429 104.293 41.5229 104.279 41.6267 104.268C41.6777 104.267 41.7206 104.254 41.7734 104.243C41.8887 104.224 41.9844 104.2 42.0854 104.147C42.165 104.101 42.2428 104.064 42.3143 104.006C42.4904 103.875 42.4946 103.571 42.2692 103.469C42.2038 103.437 42.1349 103.425 42.0678 103.402C42.0204 103.384 41.973 103.365 41.9238 103.356C41.8075 103.325 41.6608 103.349 41.5374 103.357C41.4122 103.375 41.287 103.393 41.16 103.421C41.0643 103.444 40.9588 103.466 40.8631 103.489C40.7773 103.514 40.6673 103.616 40.6334 103.691C40.5977 103.776 40.5817 103.865 40.605 103.961C40.6203 104.045 40.6669 104.124 40.7367 104.188C40.8244 104.265 40.921 104.292 41.0328 104.292Z" fill="url(#paint92_linear)"/>
<path d="M43.6211 104.029C46.3904 104.225 49.1066 106.343 50.603 108.575C51.4277 109.802 52.0236 111.17 52.4827 112.564C52.7239 113.309 52.9436 114.06 53.1204 114.823C53.3098 115.63 53.4589 116.49 53.82 117.247C53.9365 117.502 54.3605 117.517 54.4076 117.201C54.6478 115.537 54.0246 113.646 53.4841 112.084C52.9677 110.558 52.2769 109.041 51.3349 107.732C49.5396 105.243 46.7448 103.446 43.6411 103.301C43.2466 103.29 43.2087 104.005 43.6211 104.029Z" fill="url(#paint93_linear)"/>
<path d="M52.8636 121.464C52.7167 115.482 48.3848 105.166 41.2722 104.935C36.4734 104.778 26.9127 109.033 22.1302 113.503C17.8839 117.48 15.4742 127.481 14.0424 135.616C13.8688 136.631 15.2138 136.387 15.0643 137.325L20.967 140.03C24.7838 138.089 30.4828 132.149 31.5843 131.565C33.0434 130.803 43.8036 133.34 49.1608 129.401C51.3386 128.149 52.9184 123.913 52.8636 121.464Z" fill="url(#paint94_linear)"/>
<g opacity="0.55">
<path opacity="0.55" d="M30.0345 120.645C32.1786 116.267 27.5607 112.921 26.2859 112.72C21.561 111.987 17.0108 117.363 18.4883 121.665C19.495 124.581 22.8326 126.242 25.5293 125.155C27.3927 124.404 29.1987 122.343 30.0345 120.645Z" fill="url(#paint95_linear)"/>
</g>
<path d="M29.9191 119.486C32.0632 115.108 27.4452 111.762 26.1705 111.561C21.4456 110.828 16.8954 116.204 18.3729 120.506C19.3796 123.422 22.7172 125.083 25.4139 123.995C27.2755 123.255 29.0913 121.196 29.9191 119.486Z" fill="url(#paint96_linear)"/>
<g opacity="0.55">
<g opacity="0.55">
<path opacity="0.55" d="M26.2378 114.053C25.5154 113.272 24.567 112.897 23.5055 113.091C22.4654 113.279 21.4623 113.88 20.7268 114.631C19.3424 116.047 18.7539 118.288 19.5568 120.141C20.288 121.828 22.1206 122.82 23.945 122.622C25.4699 122.451 26.791 121.44 27.6093 120.175C28.399 118.957 28.9779 116.937 27.9233 115.69C27.815 115.558 27.5422 115.661 27.6318 115.84C28.1962 116.989 28.1355 118.167 27.58 119.327C27.0059 120.534 25.9638 121.575 24.6851 122.014C23.2214 122.521 21.4455 122.058 20.4545 120.852C19.2807 119.42 19.3631 117.28 20.2822 115.74C20.8798 114.74 21.8175 113.995 22.8842 113.548C24.0698 113.061 25.2247 113.25 26.1225 114.185C26.2138 114.242 26.3058 114.127 26.2378 114.053Z" fill="url(#paint97_linear)"/>
</g>
</g>
<g opacity="0.55">
<path opacity="0.55" d="M52.8636 121.464C52.8008 118.892 51.96 115.508 50.4567 112.471C50.0526 113.75 49.2584 114.937 48.2609 115.844C46.4876 117.444 44.1575 118.303 41.836 118.889C39.5127 119.484 37.1383 119.857 34.8922 120.701C31.0446 122.139 27.7321 124.943 25.6867 128.496C24.7551 130.106 24.0696 131.872 22.9133 133.319C21.7472 134.765 21.2272 135.392 19.4023 135.031C17.5952 134.684 16.0327 132.48 14.9884 130.726C14.4029 133.456 15.1312 134.766 14.7458 137.176L20.967 140.03C24.7838 138.089 30.4828 132.149 31.5843 131.565C33.0434 130.803 43.8036 133.34 49.1607 129.401C51.3386 128.149 52.9184 123.913 52.8636 121.464Z" fill="url(#paint98_linear)"/>
</g>
<path d="M23.0313 138.899C21.4142 138.962 18.9081 137.93 17.3903 136.771C15.8822 135.614 14.8287 133.462 14.8038 131.465C14.0163 130.875 12.785 131.334 12.4736 132.324C12.1623 133.314 12.0541 134.474 12.4886 135.386C13.9238 138.349 16.5275 140.639 19.5667 141.646C20.4587 141.94 21.1169 141.785 22.0173 141.47C22.9294 141.147 23.1591 139.878 23.0313 138.899Z" fill="url(#paint99_linear)"/>
<g opacity="0.55">
<path opacity="0.55" d="M23.0313 138.899C21.4143 138.962 18.9081 137.93 17.3903 136.771C16.2841 135.92 15.4351 134.547 15.0377 133.093C15.1071 133.776 15.3509 134.45 15.6564 135.065C16.1187 135.992 17.0773 136.816 17.5064 137.757C17.5862 137.934 18.1289 138.754 17.7136 139.532C17.4653 140.006 16.523 139.429 16.2823 139.243C14.9792 138.245 13.7285 136.789 12.8571 135.371C12.669 135.062 12.4094 134.7 12.3105 134.124C12.3078 134.082 12.247 134.082 12.2094 134.065C12.2178 134.524 12.3004 134.965 12.4922 135.366C13.9274 138.329 16.5311 140.619 19.5703 141.627C20.4623 141.92 21.1204 141.765 22.0209 141.45C22.9294 141.147 23.1591 139.878 23.0313 138.899Z" fill="url(#paint100_linear)"/>
</g>
<path d="M13.7919 133.294C13.2582 133.604 13.3671 134.406 13.4766 134.924C13.6005 135.475 13.845 135.977 14.1325 136.466C14.3573 136.852 14.6152 137.224 14.8981 137.57C15.0826 137.786 15.3073 138.06 15.5435 138.215C15.7619 138.356 15.9766 138.405 16.2351 138.381C16.3075 138.373 16.3683 138.374 16.4408 138.367C16.7699 138.345 16.9334 138.06 16.9456 137.767C16.9429 137.726 16.9501 137.687 16.9456 137.656C16.9591 137.861 16.9322 137.785 16.9447 137.716C16.9991 137.472 16.9461 137.259 16.8342 137.036C16.7285 136.834 16.5485 136.649 16.4062 136.481C16.1295 136.156 15.8726 135.835 15.6424 135.479C15.586 135.397 15.5314 135.306 15.4768 135.215C15.4445 135.168 15.4221 135.124 15.3917 135.067C15.3756 135.044 15.2905 134.897 15.3693 135.023C15.4481 135.149 15.3469 134.978 15.3406 134.957C15.3182 134.912 15.3039 134.879 15.2815 134.834C15.2385 134.735 15.1954 134.636 15.1524 134.536C15.0727 134.359 15.0126 134.186 14.9642 134.004C14.9409 133.909 14.9175 133.813 14.8826 133.725C14.8135 133.489 14.656 133.349 14.4537 133.231C14.2613 133.115 13.9957 133.179 13.7919 133.294Z" fill="url(#paint101_linear)"/>
<path d="M13.4294 132.995C13.518 133.011 13.6003 133.005 13.6861 132.98C13.7702 132.965 13.8462 132.938 13.9159 132.89C13.9856 132.841 14.0473 132.781 14.0812 132.706C14.1348 132.635 14.1688 132.56 14.1848 132.471C14.1856 132.41 14.1847 132.359 14.1954 132.3C14.1855 132.187 14.1425 132.087 14.078 131.994C14.044 131.958 14.0019 131.909 13.9679 131.873C13.8802 131.796 13.7773 131.747 13.6592 131.726C13.5706 131.709 13.4883 131.715 13.4025 131.74C13.3184 131.755 13.2424 131.782 13.1727 131.831C13.103 131.879 13.0413 131.939 13.0074 132.014C12.9538 132.086 12.9198 132.161 12.9038 132.249C12.9029 132.31 12.9039 132.361 12.8932 132.42C12.9031 132.534 12.9461 132.633 13.0106 132.726C13.0446 132.763 13.0867 132.811 13.1207 132.848C13.2084 132.924 13.3113 132.973 13.4294 132.995Z" fill="url(#paint102_linear)"/>
<path d="M158.259 122.248L152.803 132.683C152.603 132.891 152.362 133.101 152.03 133.305C150.695 134.11 149.336 134.433 147.848 134.347L154.952 120.755C156.104 120.902 157.188 121.373 158.259 122.248Z" fill="url(#paint103_linear)"/>
<path d="M156.474 121.162L149.648 134.226C149.068 134.344 148.472 134.379 147.838 134.345C147.545 134.333 147.255 134.311 146.94 134.254C146.476 134.18 146.056 134.084 145.681 133.965L152.539 120.836C153.38 120.684 154.168 120.654 154.932 120.751C155.471 120.808 155.974 120.95 156.474 121.162Z" fill="url(#paint104_linear)"/>
<path d="M156.474 121.162L149.648 134.226C149.068 134.344 148.472 134.379 147.838 134.345C147.545 134.333 147.255 134.311 146.94 134.254C146.476 134.18 146.056 134.084 145.681 133.965L152.539 120.836C153.38 120.684 154.168 120.654 154.932 120.751C155.471 120.808 155.974 120.95 156.474 121.162Z" fill="url(#paint105_linear)"/>
<path d="M115.656 201.202L112.434 199.522L193.679 44.0153L196.901 45.6961L115.656 201.202Z" fill="url(#paint106_linear)"/>
<path d="M115.656 201.202L112.434 199.522L193.679 44.0153L196.901 45.6961L115.656 201.202Z" fill="url(#paint107_linear)"/>
<g opacity="0.55">
<path opacity="0.55" d="M113.743 200.206L112.434 199.522L193.679 44.0153L195.063 44.7334L113.743 200.206Z" fill="url(#paint108_linear)"/>
</g>
<path d="M245.517 69.5664C245.517 69.5664 237.362 50.56 218.002 50.2776C198.633 49.9933 194.943 41.6325 194.943 41.6325L175.24 78.8482C175.24 78.8482 183.425 87.1385 205.09 86.5273C222.638 86.0349 224.308 107.241 224.308 107.241C231.861 99.9296 238.03 83.1399 245.517 69.5664Z" fill="url(#paint109_linear)"/>
<path d="M220.796 53.4255C227.586 54.319 239.032 60.0289 243.452 73.4507C244.128 72.13 244.82 70.8326 245.527 69.5682C245.527 69.5682 237.371 50.5618 218.012 50.2794C198.643 49.9951 194.953 41.6343 194.953 41.6343C194.953 41.6343 194.069 49.8887 220.796 53.4255Z" fill="url(#paint110_linear)"/>
<defs>
<linearGradient id="paint0_linear" x1="56.4372" y1="43.6805" x2="58.7298" y2="60.0234" gradientUnits="userSpaceOnUse">
<stop stop-color="#CE2949"/>
<stop offset="1" stop-color="#692C99"/>
</linearGradient>
<linearGradient id="paint1_linear" x1="55.1976" y1="47.9983" x2="55.243" y2="54.8113" gradientUnits="userSpaceOnUse">
<stop stop-color="#CE2949"/>
<stop offset="1" stop-color="#692C99"/>
</linearGradient>
<linearGradient id="paint2_linear" x1="56.4906" y1="46.0436" x2="57.9847" y2="60.1269" gradientUnits="userSpaceOnUse">
<stop stop-color="#CE2949"/>
<stop offset="1" stop-color="#692C99"/>
</linearGradient>
<linearGradient id="paint3_linear" x1="54.3447" y1="54.0946" x2="54.9928" y2="65.484" gradientUnits="userSpaceOnUse">
<stop stop-color="#CE2949"/>
<stop offset="1" stop-color="#692C99"/>
</linearGradient>
<linearGradient id="paint4_linear" x1="53.9421" y1="56.3952" x2="53.9877" y2="65.321" gradientUnits="userSpaceOnUse">
<stop stop-color="#CE2949"/>
<stop offset="1" stop-color="#692C99"/>
</linearGradient>
<linearGradient id="paint5_linear" x1="61.7285" y1="58.4009" x2="61.9081" y2="59.4948" gradientUnits="userSpaceOnUse">
<stop stop-color="#CE2949"/>
<stop offset="1" stop-color="#692C99"/>
</linearGradient>
<linearGradient id="paint6_linear" x1="56.7578" y1="56.0426" x2="56.5937" y2="57.4601" gradientUnits="userSpaceOnUse">
<stop stop-color="#CE2949"/>
<stop offset="1" stop-color="#692C99"/>
</linearGradient>
<linearGradient id="paint7_linear" x1="58.6136" y1="54.258" x2="73.7249" y2="100.669" gradientUnits="userSpaceOnUse">
<stop offset="0.2378" stop-color="#FFF2E7"/>
<stop offset="1" stop-color="#DD8596"/>
</linearGradient>
<linearGradient id="paint8_linear" x1="56.4116" y1="54.55" x2="75.6918" y2="93.9492" gradientUnits="userSpaceOnUse">
<stop offset="0.2378" stop-color="#FFF2E7"/>
<stop offset="1" stop-color="#DD8596"/>
</linearGradient>
<linearGradient id="paint9_linear" x1="61.2759" y1="64.8593" x2="63.8939" y2="77.549" gradientUnits="userSpaceOnUse">
<stop offset="0.2378" stop-color="#FFF2E7"/>
<stop offset="1" stop-color="#DD8596"/>
</linearGradient>
<linearGradient id="paint10_linear" x1="60.4138" y1="62.9766" x2="63.9937" y2="79.839" gradientUnits="userSpaceOnUse">
<stop offset="0.2378" stop-color="#FFF2E7"/>
<stop offset="1" stop-color="#DD8596"/>
</linearGradient>
<linearGradient id="paint11_linear" x1="63.0445" y1="76.6142" x2="65.2521" y2="99.9439" gradientUnits="userSpaceOnUse">
<stop stop-color="#CE2949"/>
<stop offset="1" stop-color="#692C99"/>
</linearGradient>
<linearGradient id="paint12_linear" x1="61.8639" y1="76.4701" x2="65.0092" y2="99.3243" gradientUnits="userSpaceOnUse">
<stop stop-color="#CE2949"/>
<stop offset="1" stop-color="#692C99"/>
</linearGradient>
<linearGradient id="paint13_linear" x1="62.7801" y1="80.4713" x2="63.3446" y2="87.6813" gradientUnits="userSpaceOnUse">
<stop stop-color="#CE2949"/>
<stop offset="1" stop-color="#692C99"/>
</linearGradient>
<linearGradient id="paint14_linear" x1="67.1747" y1="74.6943" x2="84.9569" y2="159.375" gradientUnits="userSpaceOnUse">
<stop offset="0.2378" stop-color="#FFF2E7"/>
<stop offset="1" stop-color="#DD8596"/>
</linearGradient>
<linearGradient id="paint15_linear" x1="67.1237" y1="77.0234" x2="83.7208" y2="159.534" gradientUnits="userSpaceOnUse">
<stop offset="0.2378" stop-color="#FFF2E7"/>
<stop offset="1" stop-color="#DD8596"/>
</linearGradient>
<linearGradient id="paint16_linear" x1="77.494" y1="94.6289" x2="82.2202" y2="123.309" gradientUnits="userSpaceOnUse">
<stop stop-color="#CE2949"/>
<stop offset="1" stop-color="#692C99"/>
</linearGradient>
<linearGradient id="paint17_linear" x1="82.9538" y1="106.96" x2="86.701" y2="124.866" gradientUnits="userSpaceOnUse">
<stop stop-color="#CE2949"/>
<stop offset="1" stop-color="#692C99"/>
</linearGradient>
<linearGradient id="paint18_linear" x1="71.8695" y1="95.3622" x2="76.0931" y2="123.923" gradientUnits="userSpaceOnUse">
<stop stop-color="#CE2949"/>
<stop offset="1" stop-color="#692C99"/>
</linearGradient>
<linearGradient id="paint19_linear" x1="70.6176" y1="102.21" x2="74.3949" y2="118.651" gradientUnits="userSpaceOnUse">
<stop offset="0.2378" stop-color="#FFF2E7"/>
<stop offset="1" stop-color="#DD8596"/>
</linearGradient>
<linearGradient id="paint20_linear" x1="73.8344" y1="108.479" x2="75.6098" y2="113.747" gradientUnits="userSpaceOnUse">
<stop offset="0.2378" stop-color="#FFF2E7"/>
<stop offset="1" stop-color="#DD8596"/>
</linearGradient>
<linearGradient id="paint21_linear" x1="72.3197" y1="103.659" x2="72.9024" y2="108.091" gradientUnits="userSpaceOnUse">
<stop offset="0.2378" stop-color="#FFF2E7"/>
<stop offset="1" stop-color="#DD8596"/>
</linearGradient>
<linearGradient id="paint22_linear" x1="77.1864" y1="106.285" x2="77.446" y2="108.472" gradientUnits="userSpaceOnUse">
<stop offset="0.2378" stop-color="#FFF2E7"/>
<stop offset="1" stop-color="#DD8596"/>
</linearGradient>
<linearGradient id="paint23_linear" x1="67.8417" y1="103.783" x2="73.0572" y2="109.158" gradientUnits="userSpaceOnUse">
<stop offset="0.2378" stop-color="#FFF2E7"/>
<stop offset="1" stop-color="#DD8596"/>
</linearGradient>
<linearGradient id="paint24_linear" x1="69.3525" y1="113.902" x2="70.5721" y2="116.424" gradientUnits="userSpaceOnUse">
<stop offset="0.2378" stop-color="#FFF2E7"/>
<stop offset="1" stop-color="#DD8596"/>
</linearGradient>
<linearGradient id="paint25_linear" x1="75.0659" y1="115.242" x2="75.5546" y2="117.309" gradientUnits="userSpaceOnUse">
<stop offset="0.2378" stop-color="#FFF2E7"/>
<stop offset="1" stop-color="#DD8596"/>
</linearGradient>
<linearGradient id="paint26_linear" x1="71.9269" y1="101.995" x2="74.5996" y2="118.261" gradientUnits="userSpaceOnUse">
<stop stop-color="#CE2949"/>
<stop offset="1" stop-color="#692C99"/>
</linearGradient>
<linearGradient id="paint27_linear" x1="76.4039" y1="33.7356" x2="89.322" y2="62.0457" gradientUnits="userSpaceOnUse">
<stop offset="0.2378" stop-color="#FFF2E7"/>
<stop offset="1" stop-color="#DD8596"/>
</linearGradient>
<linearGradient id="paint28_linear" x1="76.4039" y1="33.7356" x2="89.322" y2="62.0457" gradientUnits="userSpaceOnUse">
<stop offset="0.2378" stop-color="#FFF2E7"/>
<stop offset="1" stop-color="#DD8596"/>
</linearGradient>
<linearGradient id="paint29_linear" x1="76.0051" y1="33.6875" x2="89.8571" y2="60.1329" gradientUnits="userSpaceOnUse">
<stop offset="0.2378" stop-color="#FFF2E7"/>
<stop offset="1" stop-color="#DD8596"/>
</linearGradient>
<linearGradient id="paint30_linear" x1="90.6409" y1="77.7127" x2="90.169" y2="109.417" gradientUnits="userSpaceOnUse">
<stop stop-color="#CE2949"/>
<stop offset="1" stop-color="#692C99"/>
</linearGradient>
<linearGradient id="paint31_linear" x1="91.6568" y1="77.9136" x2="91.3247" y2="109.577" gradientUnits="userSpaceOnUse">
<stop stop-color="#CE2949"/>
<stop offset="1" stop-color="#692C99"/>
</linearGradient>
<linearGradient id="paint32_linear" x1="77.7257" y1="80.8772" x2="79.7791" y2="96.9919" gradientUnits="userSpaceOnUse">
<stop stop-color="#CE2949"/>
<stop offset="1" stop-color="#692C99"/>
</linearGradient>
<linearGradient id="paint33_linear" x1="72.6394" y1="78.975" x2="73.1668" y2="80.5957" gradientUnits="userSpaceOnUse">
<stop stop-color="#CE2949"/>
<stop offset="1" stop-color="#692C99"/>
</linearGradient>
<linearGradient id="paint34_linear" x1="101.488" y1="10.3738" x2="124.16" y2="113.004" gradientUnits="userSpaceOnUse">
<stop offset="0.2378" stop-color="#FFF2E7"/>
<stop offset="1" stop-color="#DD8596"/>
</linearGradient>
<linearGradient id="paint35_linear" x1="102.886" y1="19.5655" x2="121.741" y2="113.481" gradientUnits="userSpaceOnUse">
<stop offset="0.2378" stop-color="#FFF2E7"/>
<stop offset="1" stop-color="#DD8596"/>
</linearGradient>
<linearGradient id="paint36_linear" x1="101.761" y1="34.9915" x2="110.898" y2="99.3124" gradientUnits="userSpaceOnUse">
<stop stop-color="#CE2949"/>
<stop offset="1" stop-color="#692C99"/>
</linearGradient>
<linearGradient id="paint37_linear" x1="117.175" y1="44.7515" x2="128.308" y2="88.1082" gradientUnits="userSpaceOnUse">
<stop offset="0.2378" stop-color="#FFF2E7"/>
<stop offset="1" stop-color="#DD8596"/>
</linearGradient>
<linearGradient id="paint38_linear" x1="116.25" y1="87.0999" x2="117.586" y2="103.549" gradientUnits="userSpaceOnUse">
<stop offset="0.2378" stop-color="#FFF2E7"/>
<stop offset="1" stop-color="#DD8596"/>
</linearGradient>
<linearGradient id="paint39_linear" x1="88.9532" y1="30.176" x2="115.451" y2="92.0384" gradientUnits="userSpaceOnUse">
<stop offset="0.2378" stop-color="#FFF2E7"/>
<stop offset="1" stop-color="#DD8596"/>
</linearGradient>
<linearGradient id="paint40_linear" x1="99.0084" y1="36.5932" x2="102.172" y2="81.1897" gradientUnits="userSpaceOnUse">
<stop stop-color="#CE2949"/>
<stop offset="1" stop-color="#692C99"/>
</linearGradient>
<linearGradient id="paint41_linear" x1="98.656" y1="34.8597" x2="110.811" y2="96.9897" gradientUnits="userSpaceOnUse">
<stop stop-color="#CE2949"/>
<stop offset="1" stop-color="#692C99"/>
</linearGradient>
<linearGradient id="paint42_linear" x1="112.776" y1="51.2167" x2="119.161" y2="85.6988" gradientUnits="userSpaceOnUse">
<stop stop-color="#CE2949"/>
<stop offset="1" stop-color="#692C99"/>
</linearGradient>
<linearGradient id="paint43_linear" x1="114.774" y1="85.9655" x2="116.537" y2="96.0464" gradientUnits="userSpaceOnUse">
<stop stop-color="#CE2949"/>
<stop offset="1" stop-color="#692C99"/>
</linearGradient>
<linearGradient id="paint44_linear" x1="143.529" y1="70.1691" x2="153.331" y2="100.203" gradientUnits="userSpaceOnUse">
<stop offset="0.2378" stop-color="#FFF2E7"/>
<stop offset="1" stop-color="#DD8596"/>
</linearGradient>
<linearGradient id="paint45_linear" x1="141.428" y1="73.3359" x2="152.839" y2="88.9574" gradientUnits="userSpaceOnUse">
<stop offset="0.2378" stop-color="#E6627B"/>
<stop offset="1" stop-color="#750C20"/>
</linearGradient>
<linearGradient id="paint46_linear" x1="140.599" y1="73.1806" x2="151.106" y2="81.7312" gradientUnits="userSpaceOnUse">
<stop offset="0.2378" stop-color="#E6627B"/>
<stop offset="1" stop-color="#750C20"/>
</linearGradient>
<linearGradient id="paint47_linear" x1="139.826" y1="73.0117" x2="149.354" y2="79.6584" gradientUnits="userSpaceOnUse">
<stop offset="0.2378" stop-color="#E6627B"/>
<stop offset="1" stop-color="#750C20"/>
</linearGradient>
<linearGradient id="paint48_linear" x1="147.417" y1="77.0703" x2="157.738" y2="90.113" gradientUnits="userSpaceOnUse">
<stop offset="0.2378" stop-color="#E6627B"/>
<stop offset="1" stop-color="#750C20"/>
</linearGradient>
<linearGradient id="paint49_linear" x1="147.224" y1="78.1131" x2="156.946" y2="91.1224" gradientUnits="userSpaceOnUse">
<stop offset="0.2378" stop-color="#E6627B"/>
<stop offset="1" stop-color="#750C20"/>
</linearGradient>
<linearGradient id="paint50_linear" x1="145.869" y1="77.9527" x2="154.558" y2="85.4741" gradientUnits="userSpaceOnUse">
<stop offset="0.2378" stop-color="#E6627B"/>
<stop offset="1" stop-color="#750C20"/>
</linearGradient>
<linearGradient id="paint51_linear" x1="152.633" y1="78.7125" x2="162.186" y2="88.5264" gradientUnits="userSpaceOnUse">
<stop offset="0.2378" stop-color="#E6627B"/>
<stop offset="1" stop-color="#750C20"/>
</linearGradient>
<linearGradient id="paint52_linear" x1="152.463" y1="79.6805" x2="161.59" y2="89.5341" gradientUnits="userSpaceOnUse">
<stop offset="0.2378" stop-color="#E6627B"/>
<stop offset="1" stop-color="#750C20"/>
</linearGradient>
<linearGradient id="paint53_linear" x1="151.42" y1="79.5695" x2="158.824" y2="84.9135" gradientUnits="userSpaceOnUse">
<stop offset="0.2378" stop-color="#E6627B"/>
<stop offset="1" stop-color="#750C20"/>
</linearGradient>
<linearGradient id="paint54_linear" x1="150.957" y1="74.2747" x2="159.094" y2="91.0793" gradientUnits="userSpaceOnUse">
<stop offset="0.2378" stop-color="#FFF2E7"/>
<stop offset="1" stop-color="#DD8596"/>
</linearGradient>
<linearGradient id="paint55_linear" x1="113.148" y1="104.059" x2="122.293" y2="135.081" gradientUnits="userSpaceOnUse">
<stop stop-color="#CE2949"/>
<stop offset="1" stop-color="#692C99"/>
</linearGradient>
<linearGradient id="paint56_linear" x1="112.732" y1="107.471" x2="119.956" y2="135.999" gradientUnits="userSpaceOnUse">
<stop stop-color="#CE2949"/>
<stop offset="1" stop-color="#692C99"/>
</linearGradient>
<linearGradient id="paint57_linear" x1="111.324" y1="107.064" x2="113.321" y2="119.696" gradientUnits="userSpaceOnUse">
<stop stop-color="#CE2949"/>
<stop offset="1" stop-color="#692C99"/>
</linearGradient>
<linearGradient id="paint58_linear" x1="119.741" y1="109.857" x2="119.754" y2="110.777" gradientUnits="userSpaceOnUse">
<stop stop-color="#CE2949"/>
<stop offset="1" stop-color="#692C99"/>
</linearGradient>
<linearGradient id="paint59_linear" x1="119.456" y1="109.871" x2="122.808" y2="142.446" gradientUnits="userSpaceOnUse">
<stop offset="0.2378" stop-color="#FFF2E7"/>
<stop offset="1" stop-color="#DD8596"/>
</linearGradient>
<linearGradient id="paint60_linear" x1="124.979" y1="115.289" x2="125.596" y2="126.613" gradientUnits="userSpaceOnUse">
<stop offset="0.2378" stop-color="#FFF2E7"/>
<stop offset="1" stop-color="#DD8596"/>
</linearGradient>
<linearGradient id="paint61_linear" x1="123.48" y1="114.29" x2="124.403" y2="128.821" gradientUnits="userSpaceOnUse">
<stop offset="0.2378" stop-color="#FFF2E7"/>
<stop offset="1" stop-color="#DD8596"/>
</linearGradient>
<linearGradient id="paint62_linear" x1="118.294" y1="116.193" x2="119.283" y2="141.653" gradientUnits="userSpaceOnUse">
<stop offset="0.2378" stop-color="#FFF2E7"/>
<stop offset="1" stop-color="#DD8596"/>
</linearGradient>
<linearGradient id="paint63_linear" x1="143.73" y1="119.791" x2="148.293" y2="134.661" gradientUnits="userSpaceOnUse">
<stop stop-color="#CE2949"/>
<stop offset="1" stop-color="#692C99"/>
</linearGradient>
<linearGradient id="paint64_linear" x1="144.91" y1="119.993" x2="150.444" y2="133.752" gradientUnits="userSpaceOnUse">
<stop stop-color="#CE2949"/>
<stop offset="1" stop-color="#692C99"/>
</linearGradient>
<linearGradient id="paint65_linear" x1="140.804" y1="122.364" x2="143.413" y2="124.687" gradientUnits="userSpaceOnUse">
<stop stop-color="#CE2949"/>
<stop offset="1" stop-color="#692C99"/>
</linearGradient>
<linearGradient id="paint66_linear" x1="148.904" y1="113.829" x2="154.262" y2="136.5" gradientUnits="userSpaceOnUse">
<stop offset="0.2378" stop-color="#E6627B"/>
<stop offset="1" stop-color="#750C20"/>
</linearGradient>
<linearGradient id="paint67_linear" x1="150.213" y1="115.148" x2="156.808" y2="120.232" gradientUnits="userSpaceOnUse">
<stop offset="0.2378" stop-color="#E6627B"/>
<stop offset="1" stop-color="#750C20"/>
</linearGradient>
<linearGradient id="paint68_linear" x1="148.18" y1="121.487" x2="149.692" y2="136.698" gradientUnits="userSpaceOnUse">
<stop offset="0.2378" stop-color="#E6627B"/>
<stop offset="1" stop-color="#750C20"/>
</linearGradient>
<linearGradient id="paint69_linear" x1="171.268" y1="24.1547" x2="173.549" y2="34.4591" gradientUnits="userSpaceOnUse">
<stop offset="0.2378" stop-color="#FFF2E7"/>
<stop offset="1" stop-color="#DD8596"/>
</linearGradient>
<linearGradient id="paint70_linear" x1="163.752" y1="20.8753" x2="191.049" y2="54.3927" gradientUnits="userSpaceOnUse">
<stop stop-color="#CE2949"/>
<stop offset="1" stop-color="#692C99"/>
</linearGradient>
<linearGradient id="paint71_linear" x1="171.801" y1="26.1145" x2="173.253" y2="32.696" gradientUnits="userSpaceOnUse">
<stop offset="0.2378" stop-color="#FFF2E7"/>
<stop offset="1" stop-color="#DD8596"/>
</linearGradient>
<linearGradient id="paint72_linear" x1="165.6" y1="30.5454" x2="180.325" y2="46.3984" gradientUnits="userSpaceOnUse">
<stop stop-color="#CE2949"/>
<stop offset="1" stop-color="#692C99"/>
</linearGradient>
<linearGradient id="paint73_linear" x1="56.5256" y1="177.727" x2="59.5713" y2="191.812" gradientUnits="userSpaceOnUse">
<stop offset="0.2378" stop-color="#FFF2E7"/>
<stop offset="1" stop-color="#DD8596"/>
</linearGradient>
<linearGradient id="paint74_linear" x1="57.5703" y1="179.35" x2="60.407" y2="191.756" gradientUnits="userSpaceOnUse">
<stop offset="0.2378" stop-color="#FFF2E7"/>
<stop offset="1" stop-color="#DD8596"/>
</linearGradient>
<linearGradient id="paint75_linear" x1="78.0348" y1="128.548" x2="79.9812" y2="159.574" gradientUnits="userSpaceOnUse">
<stop stop-color="#CE2949"/>
<stop offset="1" stop-color="#692C99"/>
</linearGradient>
<linearGradient id="paint76_linear" x1="78.6262" y1="130.232" x2="80.3247" y2="159.607" gradientUnits="userSpaceOnUse">
<stop stop-color="#CE2949"/>
<stop offset="1" stop-color="#692C99"/>
</linearGradient>
<linearGradient id="paint77_linear" x1="75.5937" y1="131.49" x2="75.0985" y2="136.723" gradientUnits="userSpaceOnUse">
<stop stop-color="#CE2949"/>
<stop offset="1" stop-color="#692C99"/>
</linearGradient>
<linearGradient id="paint78_linear" x1="66.7142" y1="134.564" x2="67.4202" y2="137.703" gradientUnits="userSpaceOnUse">
<stop stop-color="#CE2949"/>
<stop offset="1" stop-color="#692C99"/>
</linearGradient>
<linearGradient id="paint79_linear" x1="71.3011" y1="129.848" x2="91.9169" y2="182.847" gradientUnits="userSpaceOnUse">
<stop offset="0.2378" stop-color="#FFF2E7"/>
<stop offset="1" stop-color="#DD8596"/>
</linearGradient>
<linearGradient id="paint80_linear" x1="75.9685" y1="130.748" x2="99.7016" y2="178.683" gradientUnits="userSpaceOnUse">
<stop offset="0.2378" stop-color="#FFF2E7"/>
<stop offset="1" stop-color="#DD8596"/>
</linearGradient>
<linearGradient id="paint81_linear" x1="58.8227" y1="174.053" x2="59.123" y2="184.553" gradientUnits="userSpaceOnUse">
<stop stop-color="#CE2949"/>
<stop offset="1" stop-color="#692C99"/>
</linearGradient>
<linearGradient id="paint82_linear" x1="58.8377" y1="175.906" x2="58.803" y2="184.48" gradientUnits="userSpaceOnUse">
<stop stop-color="#CE2949"/>
<stop offset="1" stop-color="#692C99"/>
</linearGradient>
<linearGradient id="paint83_linear" x1="57.1382" y1="176.386" x2="57.7773" y2="181.783" gradientUnits="userSpaceOnUse">
<stop stop-color="#CE2949"/>
<stop offset="1" stop-color="#692C99"/>
</linearGradient>
<linearGradient id="paint84_linear" x1="54.678" y1="175.065" x2="54.938" y2="176.565" gradientUnits="userSpaceOnUse">
<stop stop-color="#CE2949"/>
<stop offset="1" stop-color="#692C99"/>
</linearGradient>
<linearGradient id="paint85_linear" x1="62.2485" y1="152.388" x2="67.4241" y2="169.499" gradientUnits="userSpaceOnUse">
<stop offset="0.2378" stop-color="#FFF2E7"/>
<stop offset="1" stop-color="#DD8596"/>
</linearGradient>
<linearGradient id="paint86_linear" x1="61.651" y1="151.254" x2="66.8267" y2="168.364" gradientUnits="userSpaceOnUse">
<stop offset="0.2378" stop-color="#FFF2E7"/>
<stop offset="1" stop-color="#DD8596"/>
</linearGradient>
<linearGradient id="paint87_linear" x1="61.5014" y1="154.102" x2="64.9422" y2="166.74" gradientUnits="userSpaceOnUse">
<stop offset="0.2378" stop-color="#FFF2E7"/>
<stop offset="1" stop-color="#DD8596"/>
</linearGradient>
<linearGradient id="paint88_linear" x1="11.84" y1="131.441" x2="14.1791" y2="145.048" gradientUnits="userSpaceOnUse">
<stop offset="0.2378" stop-color="#FFF2E7"/>
<stop offset="1" stop-color="#DD8596"/>
</linearGradient>
<linearGradient id="paint89_linear" x1="11.7169" y1="132.75" x2="13.4228" y2="145.059" gradientUnits="userSpaceOnUse">
<stop offset="0.2378" stop-color="#FFF2E7"/>
<stop offset="1" stop-color="#DD8596"/>
</linearGradient>
<linearGradient id="paint90_linear" x1="46.0522" y1="99.2976" x2="54.6056" y2="130.881" gradientUnits="userSpaceOnUse">
<stop stop-color="#CE2949"/>
<stop offset="1" stop-color="#692C99"/>
</linearGradient>
<linearGradient id="paint91_linear" x1="45.7072" y1="102.303" x2="52.6439" y2="131.586" gradientUnits="userSpaceOnUse">
<stop stop-color="#CE2949"/>
<stop offset="1" stop-color="#692C99"/>
</linearGradient>
<linearGradient id="paint92_linear" x1="41.3203" y1="103.117" x2="41.3734" y2="104.454" gradientUnits="userSpaceOnUse">
<stop stop-color="#CE2949"/>
<stop offset="1" stop-color="#692C99"/>
</linearGradient>
<linearGradient id="paint93_linear" x1="47.9122" y1="102.568" x2="49.9948" y2="116.867" gradientUnits="userSpaceOnUse">
<stop stop-color="#CE2949"/>
<stop offset="1" stop-color="#692C99"/>
</linearGradient>
<linearGradient id="paint94_linear" x1="29.0749" y1="98.3117" x2="41.5355" y2="144.385" gradientUnits="userSpaceOnUse">
<stop offset="0.2378" stop-color="#FFF2E7"/>
<stop offset="1" stop-color="#DD8596"/>
</linearGradient>
<linearGradient id="paint95_linear" x1="22.5976" y1="110.568" x2="26.9486" y2="126.276" gradientUnits="userSpaceOnUse">
<stop offset="0.2378" stop-color="#FFF2E7"/>
<stop offset="1" stop-color="#DD8596"/>
</linearGradient>
<linearGradient id="paint96_linear" x1="22.4822" y1="109.409" x2="26.8332" y2="125.117" gradientUnits="userSpaceOnUse">
<stop offset="0.2378" stop-color="#FFF2E7"/>
<stop offset="1" stop-color="#DD8596"/>
</linearGradient>
<linearGradient id="paint97_linear" x1="22.443" y1="111.608" x2="25.5649" y2="123.285" gradientUnits="userSpaceOnUse">
<stop offset="0.2378" stop-color="#FFF2E7"/>
<stop offset="1" stop-color="#DD8596"/>
</linearGradient>
<linearGradient id="paint98_linear" x1="27.9573" y1="104.729" x2="36.3501" y2="145.37" gradientUnits="userSpaceOnUse">
<stop offset="0.2378" stop-color="#FFF2E7"/>
<stop offset="1" stop-color="#DD8596"/>
</linearGradient>
<linearGradient id="paint99_linear" x1="16.6311" y1="130.557" x2="17.8116" y2="141.764" gradientUnits="userSpaceOnUse">
<stop stop-color="#CE2949"/>
<stop offset="1" stop-color="#692C99"/>
</linearGradient>
<linearGradient id="paint100_linear" x1="16.3601" y1="132.435" x2="16.8883" y2="141.736" gradientUnits="userSpaceOnUse">
<stop stop-color="#CE2949"/>
<stop offset="1" stop-color="#692C99"/>
</linearGradient>
<linearGradient id="paint101_linear" x1="14.9977" y1="132.734" x2="16.2326" y2="138.173" gradientUnits="userSpaceOnUse">
<stop stop-color="#CE2949"/>
<stop offset="1" stop-color="#692C99"/>
</linearGradient>
<linearGradient id="paint102_linear" x1="13.4613" y1="131.538" x2="13.7212" y2="133.038" gradientUnits="userSpaceOnUse">
<stop stop-color="#CE2949"/>
<stop offset="1" stop-color="#692C99"/>
</linearGradient>
<linearGradient id="paint103_linear" x1="152.559" y1="118.653" x2="160.103" y2="132.497" gradientUnits="userSpaceOnUse">
<stop offset="0.2378" stop-color="#FFF2E7"/>
<stop offset="1" stop-color="#DD8596"/>
</linearGradient>
<linearGradient id="paint104_linear" x1="145.896" y1="127.355" x2="156.277" y2="127.672" gradientUnits="userSpaceOnUse">
<stop offset="0.2378" stop-color="#FADEC5"/>
<stop offset="1" stop-color="#F37198"/>
</linearGradient>
<linearGradient id="paint105_linear" x1="150.453" y1="118.257" x2="157.938" y2="132.404" gradientUnits="userSpaceOnUse">
<stop offset="0.2378" stop-color="#FFF2E7"/>
<stop offset="1" stop-color="#DD8596"/>
</linearGradient>
<linearGradient id="paint106_linear" x1="133.627" y1="117.195" x2="175.709" y2="128.027" gradientUnits="userSpaceOnUse">
<stop offset="0.2378" stop-color="#FADEC5"/>
<stop offset="1" stop-color="#F4809E"/>
</linearGradient>
<linearGradient id="paint107_linear" x1="158.088" y1="18.4599" x2="253.073" y2="119.881" gradientUnits="userSpaceOnUse">
<stop offset="0.2378" stop-color="#E6627B"/>
<stop offset="1" stop-color="#750C20"/>
</linearGradient>
<linearGradient id="paint108_linear" x1="157.632" y1="18.45" x2="251.796" y2="115.936" gradientUnits="userSpaceOnUse">
<stop offset="0.2378" stop-color="#FFF2E7"/>
<stop offset="1" stop-color="#DD8596"/>
</linearGradient>
<linearGradient id="paint109_linear" x1="205.164" y1="36.4958" x2="214.657" y2="106.803" gradientUnits="userSpaceOnUse">
<stop stop-color="#CE2949"/>
<stop offset="1" stop-color="#692C99"/>
</linearGradient>
<linearGradient id="paint110_linear" x1="207.659" y1="41.3634" x2="207.754" y2="72.1746" gradientUnits="userSpaceOnUse">
<stop offset="0.2378" stop-color="#E6627B"/>
<stop offset="1" stop-color="#750C20"/>
</linearGradient>
</defs>
</svg>
