<svg width="29" height="28" viewBox="0 0 29 28" xmlns="http://www.w3.org/2000/svg">
  <path d="M13.6401 7.04819C10.6145 7.51631 8.26704 9.86424 7.79781 12.891C7.75326 13.1759 7.50894 13.3859 7.22007 13.3859H1.33436C1.1711 13.3859 1.01469 13.3174 0.903932 13.1964C0.793173 13.076 0.73837 12.9144 0.75207 12.7511C1.33781 5.95098 6.69949 0.58944 13.5009 0.00255567C13.6607 -0.0122959 13.8251 0.0431098 13.9461 0.153812C14.0671 0.264569 14.1357 0.420976 14.1357 0.584837V6.47045C14.1357 6.75877 13.9256 7.00423 13.6401 7.04819Z" fill="#000" />
  <path d="M1.33441 14.555H7.22012C7.50899 14.555 7.7533 14.7651 7.79786 15.0499C7.96797 16.1489 8.40525 17.2044 9.06065 18.1029C9.23076 18.3353 9.20566 18.6572 9.00239 18.861L4.83961 23.0249C4.73 23.1345 4.58159 23.1961 4.42628 23.1961C4.41827 23.1961 4.40912 23.1961 4.40118 23.1956C4.23676 23.1887 4.08375 23.1128 3.97875 22.9878C2.11657 20.7711 1.00104 18.0749 0.752177 15.1898C0.738476 15.0265 0.79328 14.8649 0.904038 14.7445C1.01469 14.6235 1.17115 14.555 1.33441 14.555Z" fill="#000" />
  <path d="M9.829 19.6877C10.0334 19.4838 10.3576 19.4581 10.5871 19.6294C11.7996 20.5166 13.2291 20.9852 14.7202 20.9852C18.5884 20.9852 21.7351 17.8386 21.7351 13.9704C21.7351 10.4916 19.2392 7.58021 15.8003 7.04812C15.5149 7.00417 15.3048 6.75871 15.3048 6.47039V0.584829C15.3048 0.420968 15.3733 0.264561 15.4943 0.153804C15.6153 0.042499 15.7729 -0.0129068 15.9396 0.00254767C23.1235 0.621931 28.75 6.75761 28.75 13.9704C28.75 21.7062 22.4567 28 14.7202 28C11.4286 28 8.22714 26.8326 5.70386 24.7124C5.57825 24.6068 5.5029 24.4538 5.4949 24.29C5.48805 24.1267 5.5497 23.9674 5.66616 23.8515L9.829 19.6877Z" fill="#000" />
</svg>
