<svg width="202" height="202" viewBox="0 0 202 202" fill="none" xmlns="http://www.w3.org/2000/svg">
<path d="M202 101C202 82.6632 197.008 64.6723 187.559 48.9572C178.111 33.2421 164.563 20.3958 148.367 11.7961C132.172 3.19646 113.941 -0.831999 95.6305 0.14286C77.3197 1.11772 59.6196 7.05911 44.4291 17.3297L79.786 69.6236C85.4824 65.7722 92.1199 63.5441 98.9865 63.1786C105.853 62.813 112.69 64.3237 118.763 67.5485C124.836 70.7734 129.917 75.5908 133.46 81.484C137.003 87.3771 138.875 94.1237 138.875 101H202Z" fill="#E08432"/>
<path d="M44.4291 17.3297C23.4671 31.5026 8.58857 53.0274 2.7375 77.6453C-3.11358 102.263 0.489087 128.181 12.8326 150.269C25.1762 172.358 45.3613 189.009 69.3941 196.927C93.427 204.846 119.557 203.455 142.613 193.029L116.605 135.511C107.959 139.42 98.1602 139.942 89.1479 136.973C80.1356 134.003 72.5661 127.759 67.9373 119.476C63.3085 111.193 61.9575 101.474 64.1516 92.242C66.3458 83.0103 71.9252 74.9384 79.786 69.6236L44.4291 17.3297Z" fill="#CE2949"/>
<path d="M142.613 193.029C160.314 185.025 175.331 172.087 185.864 155.764C196.398 139.441 202 120.426 202 101H138.875C138.875 108.285 136.774 115.415 132.824 121.536C128.874 127.657 123.243 132.51 116.605 135.511L142.613 193.029Z" fill="#EE5F40"/>
</svg>
