<svg width="304" height="309" viewBox="0 0 304 309" fill="none" xmlns="http://www.w3.org/2000/svg">
<path d="M152.721 4.11886C123.764 3.48297 95.2734 11.6894 70.8493 27.7011C46.4253 43.7128 27.1641 66.8112 15.4996 94.0775C3.83504 121.344 0.290735 151.554 5.3145 180.892C10.3383 210.229 23.7046 237.377 43.7246 258.904C63.7446 280.431 89.5197 295.372 117.793 301.838C146.066 308.304 175.569 306.006 202.572 295.234C229.576 284.461 252.869 265.698 269.508 241.315C286.147 216.932 295.385 188.024 296.055 158.243L281.409 157.895C280.806 184.697 272.491 210.715 257.516 232.66C242.541 254.604 221.578 271.491 197.274 281.186C172.971 290.881 146.419 292.95 120.973 287.13C95.5271 281.31 72.3295 267.864 54.3115 248.489C36.2936 229.115 24.2638 204.682 19.7424 178.278C15.2211 151.875 18.4109 124.685 28.909 100.146C39.4071 75.6058 56.7422 54.8172 78.7238 40.4067C100.705 25.9962 126.347 18.6105 152.409 19.1828L152.721 4.11886Z" fill="#302B4E"/>
<path d="M296.05 158.488C296.496 138.652 293.153 118.92 286.214 100.422C279.275 81.9246 268.874 65.0236 255.608 50.6865C242.342 36.3494 226.47 24.8577 208.901 16.8689C191.333 8.88019 172.412 4.55125 153.221 4.12983L152.908 19.2182C170.179 19.5974 187.208 23.4935 203.02 30.6833C218.832 37.8732 233.116 48.2157 245.056 61.1191C256.996 74.0225 266.356 89.2335 272.601 105.882C278.847 122.53 281.855 140.288 281.454 158.141L296.05 158.488Z" fill="#EE5F40"/>
<circle cx="288" cy="163" r="16" fill="#CE2949"/>
</svg>
