<svg width="29" height="28" viewBox="0 0 29 28" xmlns="http://www.w3.org/2000/svg">
  <path d="M5.20998 9.62213C4.77477 10.5663 4.48373 11.5704 4.34616 12.6009C3.48587 13.1224 3.0834 13.6355 3.0834 13.9999C3.0834 14.5217 3.68916 14.9602 4.06642 15.2189C4.69173 15.6301 5.36628 15.9608 6.07415 16.2034C8.3734 17.0395 11.4541 17.4999 14.7501 17.4999C18.0459 17.4999 21.1266 17.0393 23.4258 16.2034C24.0265 15.9919 24.6056 15.7226 25.154 15.399C26.0141 14.8775 26.4167 14.3645 26.4167 13.9999C26.4167 13.6355 26.0141 13.1224 25.154 12.6009C25.0165 11.5704 24.7253 10.5663 24.2904 9.62213C26.9583 10.6021 28.75 12.0687 28.75 13.9999C28.75 15.9313 26.9583 17.3979 24.29 18.3777C21.6677 19.3406 18.1985 19.8333 14.7501 19.8333C11.3014 19.8333 7.8323 19.3406 5.20986 18.3777C2.54172 17.3979 0.75 15.9313 0.75 13.9999C0.75 12.0687 2.54172 10.6021 5.20998 9.62213Z" fill="#000" />
  <path d="M7.90711 20.3382C10.16 20.7886 12.4526 21.0103 14.7501 20.9999C17.0474 21.0103 19.3401 20.7886 21.5929 20.3382C18.103 24.1174 12.21 24.3518 8.43078 20.8617C8.24916 20.6942 8.0746 20.5195 7.90711 20.3382Z" fill="#000" />
  <path d="M25.2498 6.99994C23.3168 6.99994 21.7498 5.43296 21.7498 3.50003C21.7498 1.56698 23.3168 0 25.2498 0C27.1828 0 28.7498 1.56698 28.7498 3.50003C28.7476 5.43202 27.1819 6.9977 25.2498 6.99994ZM25.2498 2.33339C24.6055 2.33339 24.0832 2.85564 24.0832 3.50003C24.0832 4.1443 24.6055 4.66678 25.2498 4.66678C25.8942 4.66678 26.4164 4.1443 26.4164 3.50003C26.4157 2.85599 25.8938 2.3341 25.2498 2.33339Z" fill="#000" />
  <path d="M24.0565 14.6708C23.7217 14.8352 23.3779 14.9808 23.0269 15.1069C20.8522 15.8978 17.9128 16.3333 14.7501 16.3333C11.5872 16.3333 8.64772 15.8978 6.47285 15.1069C6.12186 14.9808 5.77817 14.8352 5.44343 14.6708C5.42753 14.4489 5.41645 14.2258 5.41645 13.9999C5.41645 8.84537 9.59528 4.66656 14.7498 4.66656C19.9046 4.66656 24.0834 8.84537 24.0834 13.9999C24.0834 14.2258 24.0724 14.4491 24.0565 14.6708ZM14.7501 11.6667C14.1057 11.6667 13.5834 12.189 13.5834 12.8334C13.5834 13.4776 14.1057 13.9999 14.7501 13.9999C15.3943 13.9999 15.9166 13.4776 15.9166 12.8334C15.9166 12.189 15.3943 11.6667 14.7501 11.6667ZM17.0833 6.99996C16.4391 6.99996 15.9166 7.52244 15.9166 8.16671C15.9166 8.8111 16.4391 9.33335 17.0833 9.33335C17.7277 9.33335 18.25 8.8111 18.25 8.16671C18.25 7.52244 17.7277 6.99996 17.0833 6.99996ZM18.25 10.5C17.6057 10.5 17.0833 11.0224 17.0833 11.6667C17.0833 12.3109 17.6057 12.8334 18.25 12.8334C18.8944 12.8334 19.4166 12.3109 19.4166 11.6667C19.4166 11.0224 18.8944 10.5 18.25 10.5Z" fill="#000" />
  <path d="M5.41668 25.0832C6.54375 25.0819 7.45704 24.1687 7.45834 23.0417C7.45834 22.8805 7.58896 22.7498 7.74997 22.7498C7.91109 22.7498 8.04172 22.8805 8.04172 23.0417C8.04289 24.1687 8.95642 25.0819 10.0834 25.0832C10.2444 25.0832 10.375 25.2139 10.375 25.3749C10.375 25.5361 10.2444 25.6666 10.0834 25.6666C8.95642 25.6678 8.04289 26.5812 8.04172 27.7083C8.04172 27.8693 7.91109 28 7.74997 28C7.58896 28 7.45834 27.8693 7.45834 27.7083C7.45704 26.5812 6.54375 25.6678 5.41668 25.6666C5.25556 25.6666 5.12505 25.5361 5.12505 25.3749C5.12505 25.2139 5.25556 25.0832 5.41668 25.0832Z" fill="#000" />
  <path d="M6.58346 2.91677C5.45627 2.91795 4.54298 3.83135 4.54168 4.95841C4.54168 5.11942 4.41106 5.24993 4.25005 5.24993C4.08893 5.24993 3.9583 5.11942 3.9583 4.95841C3.95713 3.83135 3.04372 2.91795 1.91665 2.91677C1.75564 2.91677 1.62502 2.78603 1.62502 2.62502C1.62502 2.4639 1.75564 2.33339 1.91665 2.33339C3.04372 2.3321 3.95713 1.41881 3.9583 0.29163C3.9583 0.130621 4.08893 0 4.25005 0C4.41106 0 4.54168 0.130621 4.54168 0.29163C4.54298 1.41881 5.45627 2.3321 6.58346 2.33339C6.74447 2.33339 6.87497 2.4639 6.87497 2.62502C6.87497 2.78603 6.74447 2.91677 6.58346 2.91677Z" fill="#000" />
</svg>
