<svg width="23" height="28" viewBox="0 0 23 28" xmlns="http://www.w3.org/2000/svg">
  <path d="M10.9421 0.120715C11.2571 -0.0402382 11.6296 -0.0402382 11.9589 0.120715C13.3483 0.823539 17.1727 3.0932 17.1727 6.9148V20.9716H5.71395V6.9148C5.71395 3.0932 9.53823 0.823539 10.9421 0.120715ZM8.00565 10.429C8.00565 11.0733 8.52137 11.6005 9.15161 11.6005H13.7351C14.3654 11.6005 14.8809 11.0733 14.8809 10.429V6.9148C14.8809 4.9674 13.3483 3.40056 11.4433 3.40056C9.53834 3.40056 8.00576 4.96752 8.00576 6.9148L8.00565 10.429Z" fill="#000" />
  <path d="M10.2975 25.6571H8.00567V28H10.2975V25.6571Z" fill="#000" />
  <path d="M14.8809 25.6571H12.5892V28H14.8809V25.6571Z" fill="#000" />
  <path d="M4.56799 23.3145H2.27641V28H4.56799V23.3145Z" fill="#000" />
  <path d="M20.6104 23.3145H18.3185V28H20.6104V23.3145Z" fill="#000" />
  <path d="M21.613 20.9716H18.3185V11.2929L22.6156 19.2292C23.0167 20.0053 22.4724 20.957 21.613 20.9716Z" fill="#000" />
  <path d="M0.14216 19.2145L4.56799 11.2929V20.9716H1.13056C0.271032 20.957 -0.273145 19.9907 0.14216 19.2145Z" fill="#000" />
  <path d="M14.8809 23.3145C14.8809 23.9588 14.3654 24.4859 13.7351 24.4859H9.15162C8.52137 24.4859 8.00565 23.9588 8.00565 23.3145V22.143H14.8809V23.3145Z" fill="#000" />
  <path d="M11.4434 4.57217C12.7038 4.57217 13.7352 5.62623 13.7352 6.9148V10.429H9.15166V6.9148C9.15166 5.62623 10.1829 4.57217 11.4434 4.57217Z" fill="#000" />
</svg>
